%TF.GenerationSoftware,KiCad,Pcbnew,(5.1.6-0)*%
%TF.CreationDate,2024-01-11T20:43:49-08:00*%
%TF.ProjectId,psu_15V_reg,7073755f-3135-4565-9f72-65672e6b6963,1.0*%
%TF.SameCoordinates,Original*%
%TF.FileFunction,Copper,L1,Top*%
%TF.FilePolarity,Positive*%
%FSLAX46Y46*%
G04 Gerber Fmt 4.6, Leading zero omitted, Abs format (unit mm)*
G04 Created by KiCad (PCBNEW (5.1.6-0)) date 2024-01-11 20:43:49*
%MOMM*%
%LPD*%
G01*
G04 APERTURE LIST*
%TA.AperFunction,ComponentPad*%
%ADD10C,0.800000*%
%TD*%
%TA.AperFunction,ComponentPad*%
%ADD11C,6.400000*%
%TD*%
%TA.AperFunction,SMDPad,CuDef*%
%ADD12R,6.400000X5.800000*%
%TD*%
%TA.AperFunction,SMDPad,CuDef*%
%ADD13R,2.200000X1.200000*%
%TD*%
%TA.AperFunction,ComponentPad*%
%ADD14C,2.000000*%
%TD*%
%TA.AperFunction,SMDPad,CuDef*%
%ADD15R,1.800000X2.500000*%
%TD*%
%TA.AperFunction,SMDPad,CuDef*%
%ADD16R,2.500000X1.800000*%
%TD*%
%TA.AperFunction,ViaPad*%
%ADD17C,0.800000*%
%TD*%
%TA.AperFunction,ViaPad*%
%ADD18C,0.700000*%
%TD*%
%TA.AperFunction,Conductor*%
%ADD19C,1.000000*%
%TD*%
%TA.AperFunction,Conductor*%
%ADD20C,0.254000*%
%TD*%
%TA.AperFunction,Conductor*%
%ADD21C,0.300000*%
%TD*%
G04 APERTURE END LIST*
D10*
%TO.P,H4,1*%
%TO.N,N/C*%
X110197056Y-79302944D03*
X108500000Y-78600000D03*
X106802944Y-79302944D03*
X106100000Y-81000000D03*
X106802944Y-82697056D03*
X108500000Y-83400000D03*
X110197056Y-82697056D03*
X110900000Y-81000000D03*
D11*
X108500000Y-81000000D03*
%TD*%
D10*
%TO.P,H3,1*%
%TO.N,N/C*%
X158197056Y-79302944D03*
X156500000Y-78600000D03*
X154802944Y-79302944D03*
X154100000Y-81000000D03*
X154802944Y-82697056D03*
X156500000Y-83400000D03*
X158197056Y-82697056D03*
X158900000Y-81000000D03*
D11*
X156500000Y-81000000D03*
%TD*%
D10*
%TO.P,H2,1*%
%TO.N,N/C*%
X158197056Y-122302944D03*
X156500000Y-121600000D03*
X154802944Y-122302944D03*
X154100000Y-124000000D03*
X154802944Y-125697056D03*
X156500000Y-126400000D03*
X158197056Y-125697056D03*
X158900000Y-124000000D03*
D11*
X156500000Y-124000000D03*
%TD*%
D10*
%TO.P,H1,1*%
%TO.N,N/C*%
X110197056Y-122302944D03*
X108500000Y-121600000D03*
X106802944Y-122302944D03*
X106100000Y-124000000D03*
X106802944Y-125697056D03*
X108500000Y-126400000D03*
X110197056Y-125697056D03*
X110900000Y-124000000D03*
D11*
X108500000Y-124000000D03*
%TD*%
%TO.P,C2,2*%
%TO.N,/VI-*%
%TA.AperFunction,SMDPad,CuDef*%
G36*
G01*
X142450000Y-108450000D02*
X143550000Y-108450000D01*
G75*
G02*
X143800000Y-108700000I0J-250000D01*
G01*
X143800000Y-111200000D01*
G75*
G02*
X143550000Y-111450000I-250000J0D01*
G01*
X142450000Y-111450000D01*
G75*
G02*
X142200000Y-111200000I0J250000D01*
G01*
X142200000Y-108700000D01*
G75*
G02*
X142450000Y-108450000I250000J0D01*
G01*
G37*
%TD.AperFunction*%
%TO.P,C2,1*%
%TO.N,GND*%
%TA.AperFunction,SMDPad,CuDef*%
G36*
G01*
X142450000Y-104050000D02*
X143550000Y-104050000D01*
G75*
G02*
X143800000Y-104300000I0J-250000D01*
G01*
X143800000Y-106800000D01*
G75*
G02*
X143550000Y-107050000I-250000J0D01*
G01*
X142450000Y-107050000D01*
G75*
G02*
X142200000Y-106800000I0J250000D01*
G01*
X142200000Y-104300000D01*
G75*
G02*
X142450000Y-104050000I250000J0D01*
G01*
G37*
%TD.AperFunction*%
%TD*%
%TO.P,C1,2*%
%TO.N,GND*%
%TA.AperFunction,SMDPad,CuDef*%
G36*
G01*
X147050000Y-82550000D02*
X145950000Y-82550000D01*
G75*
G02*
X145700000Y-82300000I0J250000D01*
G01*
X145700000Y-79800000D01*
G75*
G02*
X145950000Y-79550000I250000J0D01*
G01*
X147050000Y-79550000D01*
G75*
G02*
X147300000Y-79800000I0J-250000D01*
G01*
X147300000Y-82300000D01*
G75*
G02*
X147050000Y-82550000I-250000J0D01*
G01*
G37*
%TD.AperFunction*%
%TO.P,C1,1*%
%TO.N,/VI+*%
%TA.AperFunction,SMDPad,CuDef*%
G36*
G01*
X147050000Y-86950000D02*
X145950000Y-86950000D01*
G75*
G02*
X145700000Y-86700000I0J250000D01*
G01*
X145700000Y-84200000D01*
G75*
G02*
X145950000Y-83950000I250000J0D01*
G01*
X147050000Y-83950000D01*
G75*
G02*
X147300000Y-84200000I0J-250000D01*
G01*
X147300000Y-86700000D01*
G75*
G02*
X147050000Y-86950000I-250000J0D01*
G01*
G37*
%TD.AperFunction*%
%TD*%
%TO.P,R4,2*%
%TO.N,/VO-*%
%TA.AperFunction,SMDPad,CuDef*%
G36*
G01*
X129625000Y-116525000D02*
X130875000Y-116525000D01*
G75*
G02*
X131125000Y-116775000I0J-250000D01*
G01*
X131125000Y-117525000D01*
G75*
G02*
X130875000Y-117775000I-250000J0D01*
G01*
X129625000Y-117775000D01*
G75*
G02*
X129375000Y-117525000I0J250000D01*
G01*
X129375000Y-116775000D01*
G75*
G02*
X129625000Y-116525000I250000J0D01*
G01*
G37*
%TD.AperFunction*%
%TO.P,R4,1*%
%TO.N,/ADJ-*%
%TA.AperFunction,SMDPad,CuDef*%
G36*
G01*
X129625000Y-113725000D02*
X130875000Y-113725000D01*
G75*
G02*
X131125000Y-113975000I0J-250000D01*
G01*
X131125000Y-114725000D01*
G75*
G02*
X130875000Y-114975000I-250000J0D01*
G01*
X129625000Y-114975000D01*
G75*
G02*
X129375000Y-114725000I0J250000D01*
G01*
X129375000Y-113975000D01*
G75*
G02*
X129625000Y-113725000I250000J0D01*
G01*
G37*
%TD.AperFunction*%
%TD*%
%TO.P,R3,2*%
%TO.N,/ADJ-*%
%TA.AperFunction,SMDPad,CuDef*%
G36*
G01*
X125625000Y-109025000D02*
X126875000Y-109025000D01*
G75*
G02*
X127125000Y-109275000I0J-250000D01*
G01*
X127125000Y-110025000D01*
G75*
G02*
X126875000Y-110275000I-250000J0D01*
G01*
X125625000Y-110275000D01*
G75*
G02*
X125375000Y-110025000I0J250000D01*
G01*
X125375000Y-109275000D01*
G75*
G02*
X125625000Y-109025000I250000J0D01*
G01*
G37*
%TD.AperFunction*%
%TO.P,R3,1*%
%TO.N,GND*%
%TA.AperFunction,SMDPad,CuDef*%
G36*
G01*
X125625000Y-106225000D02*
X126875000Y-106225000D01*
G75*
G02*
X127125000Y-106475000I0J-250000D01*
G01*
X127125000Y-107225000D01*
G75*
G02*
X126875000Y-107475000I-250000J0D01*
G01*
X125625000Y-107475000D01*
G75*
G02*
X125375000Y-107225000I0J250000D01*
G01*
X125375000Y-106475000D01*
G75*
G02*
X125625000Y-106225000I250000J0D01*
G01*
G37*
%TD.AperFunction*%
%TD*%
%TO.P,R2,2*%
%TO.N,GND*%
%TA.AperFunction,SMDPad,CuDef*%
G36*
G01*
X143025000Y-90375000D02*
X143025000Y-89125000D01*
G75*
G02*
X143275000Y-88875000I250000J0D01*
G01*
X144025000Y-88875000D01*
G75*
G02*
X144275000Y-89125000I0J-250000D01*
G01*
X144275000Y-90375000D01*
G75*
G02*
X144025000Y-90625000I-250000J0D01*
G01*
X143275000Y-90625000D01*
G75*
G02*
X143025000Y-90375000I0J250000D01*
G01*
G37*
%TD.AperFunction*%
%TO.P,R2,1*%
%TO.N,/ADJ+*%
%TA.AperFunction,SMDPad,CuDef*%
G36*
G01*
X140225000Y-90375000D02*
X140225000Y-89125000D01*
G75*
G02*
X140475000Y-88875000I250000J0D01*
G01*
X141225000Y-88875000D01*
G75*
G02*
X141475000Y-89125000I0J-250000D01*
G01*
X141475000Y-90375000D01*
G75*
G02*
X141225000Y-90625000I-250000J0D01*
G01*
X140475000Y-90625000D01*
G75*
G02*
X140225000Y-90375000I0J250000D01*
G01*
G37*
%TD.AperFunction*%
%TD*%
%TO.P,R1,2*%
%TO.N,/ADJ+*%
%TA.AperFunction,SMDPad,CuDef*%
G36*
G01*
X135775000Y-98375000D02*
X135775000Y-97125000D01*
G75*
G02*
X136025000Y-96875000I250000J0D01*
G01*
X136775000Y-96875000D01*
G75*
G02*
X137025000Y-97125000I0J-250000D01*
G01*
X137025000Y-98375000D01*
G75*
G02*
X136775000Y-98625000I-250000J0D01*
G01*
X136025000Y-98625000D01*
G75*
G02*
X135775000Y-98375000I0J250000D01*
G01*
G37*
%TD.AperFunction*%
%TO.P,R1,1*%
%TO.N,/VO+*%
%TA.AperFunction,SMDPad,CuDef*%
G36*
G01*
X132975000Y-98375000D02*
X132975000Y-97125000D01*
G75*
G02*
X133225000Y-96875000I250000J0D01*
G01*
X133975000Y-96875000D01*
G75*
G02*
X134225000Y-97125000I0J-250000D01*
G01*
X134225000Y-98375000D01*
G75*
G02*
X133975000Y-98625000I-250000J0D01*
G01*
X133225000Y-98625000D01*
G75*
G02*
X132975000Y-98375000I0J250000D01*
G01*
G37*
%TD.AperFunction*%
%TD*%
%TO.P,C4,2*%
%TO.N,/VI-*%
%TA.AperFunction,SMDPad,CuDef*%
G36*
G01*
X137375000Y-109775000D02*
X138625000Y-109775000D01*
G75*
G02*
X138875000Y-110025000I0J-250000D01*
G01*
X138875000Y-110775000D01*
G75*
G02*
X138625000Y-111025000I-250000J0D01*
G01*
X137375000Y-111025000D01*
G75*
G02*
X137125000Y-110775000I0J250000D01*
G01*
X137125000Y-110025000D01*
G75*
G02*
X137375000Y-109775000I250000J0D01*
G01*
G37*
%TD.AperFunction*%
%TO.P,C4,1*%
%TO.N,GND*%
%TA.AperFunction,SMDPad,CuDef*%
G36*
G01*
X137375000Y-106975000D02*
X138625000Y-106975000D01*
G75*
G02*
X138875000Y-107225000I0J-250000D01*
G01*
X138875000Y-107975000D01*
G75*
G02*
X138625000Y-108225000I-250000J0D01*
G01*
X137375000Y-108225000D01*
G75*
G02*
X137125000Y-107975000I0J250000D01*
G01*
X137125000Y-107225000D01*
G75*
G02*
X137375000Y-106975000I250000J0D01*
G01*
G37*
%TD.AperFunction*%
%TD*%
%TO.P,C3,2*%
%TO.N,GND*%
%TA.AperFunction,SMDPad,CuDef*%
G36*
G01*
X141375000Y-83225000D02*
X140125000Y-83225000D01*
G75*
G02*
X139875000Y-82975000I0J250000D01*
G01*
X139875000Y-82225000D01*
G75*
G02*
X140125000Y-81975000I250000J0D01*
G01*
X141375000Y-81975000D01*
G75*
G02*
X141625000Y-82225000I0J-250000D01*
G01*
X141625000Y-82975000D01*
G75*
G02*
X141375000Y-83225000I-250000J0D01*
G01*
G37*
%TD.AperFunction*%
%TO.P,C3,1*%
%TO.N,/VI+*%
%TA.AperFunction,SMDPad,CuDef*%
G36*
G01*
X141375000Y-86025000D02*
X140125000Y-86025000D01*
G75*
G02*
X139875000Y-85775000I0J250000D01*
G01*
X139875000Y-85025000D01*
G75*
G02*
X140125000Y-84775000I250000J0D01*
G01*
X141375000Y-84775000D01*
G75*
G02*
X141625000Y-85025000I0J-250000D01*
G01*
X141625000Y-85775000D01*
G75*
G02*
X141375000Y-86025000I-250000J0D01*
G01*
G37*
%TD.AperFunction*%
%TD*%
D12*
%TO.P,U2,2*%
%TO.N,/VI-*%
X140100000Y-116250000D03*
D13*
%TO.P,U2,3*%
%TO.N,/VO-*%
X133800000Y-118530000D03*
%TO.P,U2,1*%
%TO.N,/ADJ-*%
X133800000Y-113970000D03*
%TD*%
D12*
%TO.P,U1,2*%
%TO.N,/VO+*%
X130400000Y-87500000D03*
D13*
%TO.P,U1,3*%
%TO.N,/VI+*%
X136700000Y-85220000D03*
%TO.P,U1,1*%
%TO.N,/ADJ+*%
X136700000Y-89780000D03*
%TD*%
D14*
%TO.P,J2,3*%
%TO.N,/VO-*%
X109000000Y-106000000D03*
%TO.P,J2,2*%
%TO.N,GND*%
X109000000Y-102500000D03*
%TO.P,J2,1*%
%TO.N,/VO+*%
X109000000Y-99000000D03*
%TD*%
%TO.P,J1,3*%
%TO.N,/VI+*%
X156000000Y-99000000D03*
%TO.P,J1,2*%
%TO.N,GND*%
X156000000Y-102500000D03*
%TO.P,J1,1*%
%TO.N,/VI-*%
X156000000Y-106000000D03*
%TD*%
D15*
%TO.P,D4,2*%
%TO.N,/VO-*%
X126250000Y-117750000D03*
%TO.P,D4,1*%
%TO.N,/ADJ-*%
X126250000Y-113750000D03*
%TD*%
D16*
%TO.P,D3,2*%
%TO.N,/ADJ+*%
X136500000Y-94000000D03*
%TO.P,D3,1*%
%TO.N,/VO+*%
X132500000Y-94000000D03*
%TD*%
%TO.P,D2,2*%
%TO.N,/VI-*%
X138000000Y-122500000D03*
%TO.P,D2,1*%
%TO.N,/VO-*%
X134000000Y-122500000D03*
%TD*%
%TO.P,D1,2*%
%TO.N,/VO+*%
X132500000Y-81000000D03*
%TO.P,D1,1*%
%TO.N,/VI+*%
X136500000Y-81000000D03*
%TD*%
%TO.P,C8,2*%
%TO.N,/VO-*%
%TA.AperFunction,SMDPad,CuDef*%
G36*
G01*
X118550000Y-111400000D02*
X119950000Y-111400000D01*
G75*
G02*
X120200000Y-111650000I0J-250000D01*
G01*
X120200000Y-115300000D01*
G75*
G02*
X119950000Y-115550000I-250000J0D01*
G01*
X118550000Y-115550000D01*
G75*
G02*
X118300000Y-115300000I0J250000D01*
G01*
X118300000Y-111650000D01*
G75*
G02*
X118550000Y-111400000I250000J0D01*
G01*
G37*
%TD.AperFunction*%
%TO.P,C8,1*%
%TO.N,GND*%
%TA.AperFunction,SMDPad,CuDef*%
G36*
G01*
X118550000Y-104450000D02*
X119950000Y-104450000D01*
G75*
G02*
X120200000Y-104700000I0J-250000D01*
G01*
X120200000Y-108350000D01*
G75*
G02*
X119950000Y-108600000I-250000J0D01*
G01*
X118550000Y-108600000D01*
G75*
G02*
X118300000Y-108350000I0J250000D01*
G01*
X118300000Y-104700000D01*
G75*
G02*
X118550000Y-104450000I250000J0D01*
G01*
G37*
%TD.AperFunction*%
%TD*%
%TO.P,C7,2*%
%TO.N,GND*%
%TA.AperFunction,SMDPad,CuDef*%
G36*
G01*
X118550000Y-96400000D02*
X119950000Y-96400000D01*
G75*
G02*
X120200000Y-96650000I0J-250000D01*
G01*
X120200000Y-100300000D01*
G75*
G02*
X119950000Y-100550000I-250000J0D01*
G01*
X118550000Y-100550000D01*
G75*
G02*
X118300000Y-100300000I0J250000D01*
G01*
X118300000Y-96650000D01*
G75*
G02*
X118550000Y-96400000I250000J0D01*
G01*
G37*
%TD.AperFunction*%
%TO.P,C7,1*%
%TO.N,/VO+*%
%TA.AperFunction,SMDPad,CuDef*%
G36*
G01*
X118550000Y-89450000D02*
X119950000Y-89450000D01*
G75*
G02*
X120200000Y-89700000I0J-250000D01*
G01*
X120200000Y-93350000D01*
G75*
G02*
X119950000Y-93600000I-250000J0D01*
G01*
X118550000Y-93600000D01*
G75*
G02*
X118300000Y-93350000I0J250000D01*
G01*
X118300000Y-89700000D01*
G75*
G02*
X118550000Y-89450000I250000J0D01*
G01*
G37*
%TD.AperFunction*%
%TD*%
%TO.P,C6,2*%
%TO.N,/ADJ-*%
%TA.AperFunction,SMDPad,CuDef*%
G36*
G01*
X131700000Y-107800000D02*
X132800000Y-107800000D01*
G75*
G02*
X133050000Y-108050000I0J-250000D01*
G01*
X133050000Y-111050000D01*
G75*
G02*
X132800000Y-111300000I-250000J0D01*
G01*
X131700000Y-111300000D01*
G75*
G02*
X131450000Y-111050000I0J250000D01*
G01*
X131450000Y-108050000D01*
G75*
G02*
X131700000Y-107800000I250000J0D01*
G01*
G37*
%TD.AperFunction*%
%TO.P,C6,1*%
%TO.N,GND*%
%TA.AperFunction,SMDPad,CuDef*%
G36*
G01*
X131700000Y-102200000D02*
X132800000Y-102200000D01*
G75*
G02*
X133050000Y-102450000I0J-250000D01*
G01*
X133050000Y-105450000D01*
G75*
G02*
X132800000Y-105700000I-250000J0D01*
G01*
X131700000Y-105700000D01*
G75*
G02*
X131450000Y-105450000I0J250000D01*
G01*
X131450000Y-102450000D01*
G75*
G02*
X131700000Y-102200000I250000J0D01*
G01*
G37*
%TD.AperFunction*%
%TD*%
%TO.P,C5,2*%
%TO.N,GND*%
%TA.AperFunction,SMDPad,CuDef*%
G36*
G01*
X145300000Y-96300000D02*
X145300000Y-95200000D01*
G75*
G02*
X145550000Y-94950000I250000J0D01*
G01*
X148550000Y-94950000D01*
G75*
G02*
X148800000Y-95200000I0J-250000D01*
G01*
X148800000Y-96300000D01*
G75*
G02*
X148550000Y-96550000I-250000J0D01*
G01*
X145550000Y-96550000D01*
G75*
G02*
X145300000Y-96300000I0J250000D01*
G01*
G37*
%TD.AperFunction*%
%TO.P,C5,1*%
%TO.N,/ADJ+*%
%TA.AperFunction,SMDPad,CuDef*%
G36*
G01*
X139700000Y-96300000D02*
X139700000Y-95200000D01*
G75*
G02*
X139950000Y-94950000I250000J0D01*
G01*
X142950000Y-94950000D01*
G75*
G02*
X143200000Y-95200000I0J-250000D01*
G01*
X143200000Y-96300000D01*
G75*
G02*
X142950000Y-96550000I-250000J0D01*
G01*
X139950000Y-96550000D01*
G75*
G02*
X139700000Y-96300000I0J250000D01*
G01*
G37*
%TD.AperFunction*%
%TD*%
D17*
%TO.N,GND*%
X119250000Y-103500000D03*
X119250000Y-101250000D03*
X126250000Y-105500000D03*
X132250000Y-101500000D03*
X138000000Y-106250000D03*
X143000000Y-103250000D03*
X149500000Y-95750000D03*
X145000000Y-89750000D03*
X140750000Y-81250000D03*
X146500000Y-78750000D03*
D18*
X106401191Y-85042500D03*
X106401191Y-102042500D03*
X106401191Y-108042500D03*
X106401191Y-114042500D03*
X107401191Y-119042500D03*
X109401191Y-111042500D03*
X110401191Y-104042500D03*
X110401191Y-116042500D03*
X112401191Y-84042500D03*
X112401191Y-120042500D03*
X116000000Y-106750000D03*
X113401191Y-113042500D03*
X113401191Y-125042500D03*
X115500000Y-101250000D03*
X115401191Y-117042500D03*
X116401191Y-110042500D03*
X116401191Y-122042500D03*
X117401191Y-98042500D03*
X117401191Y-104042500D03*
X118401191Y-126042500D03*
X119401191Y-119042500D03*
X121401191Y-100042500D03*
X121401191Y-106042500D03*
X121401191Y-112042500D03*
X121401191Y-123042500D03*
X123401191Y-116042500D03*
X124401191Y-103042500D03*
X124401191Y-126042500D03*
X125401191Y-120042500D03*
X128401191Y-101042500D03*
X128401191Y-107042500D03*
X128401191Y-123042500D03*
X130401191Y-119042500D03*
X131401191Y-126042500D03*
X134401191Y-101042500D03*
X136250000Y-79000000D03*
X135401191Y-87042500D03*
X135401191Y-106042500D03*
X138500000Y-82750000D03*
X138401191Y-103042500D03*
X140401191Y-106500000D03*
X141401191Y-79042500D03*
X141401191Y-87042500D03*
X141250000Y-100250000D03*
X143401191Y-83042500D03*
X144401191Y-92042500D03*
X145401191Y-98042500D03*
X145401191Y-104042500D03*
X146401191Y-88042500D03*
X148401191Y-79042500D03*
X148250000Y-93500000D03*
X148401191Y-101042500D03*
X149500000Y-83500000D03*
X152500000Y-95500000D03*
X152401191Y-87042500D03*
X152401191Y-122042500D03*
X155401191Y-90042500D03*
X157401191Y-86042500D03*
X157401191Y-94042500D03*
%TD*%
D19*
%TO.N,GND*%
X119250000Y-106525000D02*
X119250000Y-103500000D01*
X119250000Y-98475000D02*
X119250000Y-101250000D01*
X126250000Y-106850000D02*
X126250000Y-105500000D01*
X132250000Y-103950000D02*
X132250000Y-101500000D01*
X138000000Y-107600000D02*
X138000000Y-106250000D01*
X143000000Y-105550000D02*
X143000000Y-103250000D01*
X147050000Y-95750000D02*
X149500000Y-95750000D01*
X143650000Y-89750000D02*
X145000000Y-89750000D01*
X140750000Y-82600000D02*
X140750000Y-81250000D01*
X146500000Y-81050000D02*
X146500000Y-78750000D01*
%TO.N,/VI+*%
X156000000Y-99000000D02*
X156000000Y-94500000D01*
X156000000Y-94500000D02*
X150750000Y-89250000D01*
X150750000Y-89250000D02*
X150750000Y-86750000D01*
X149450000Y-85450000D02*
X146500000Y-85450000D01*
X150750000Y-86750000D02*
X149450000Y-85450000D01*
X136500000Y-85020000D02*
X136700000Y-85220000D01*
X136500000Y-81000000D02*
X136500000Y-85020000D01*
X140800000Y-85450000D02*
X140750000Y-85400000D01*
X146500000Y-85450000D02*
X140800000Y-85450000D01*
X140570000Y-85220000D02*
X140750000Y-85400000D01*
X136700000Y-85220000D02*
X140570000Y-85220000D01*
%TO.N,/VO-*%
X133800000Y-122050000D02*
X134250000Y-122500000D01*
X133800000Y-118530000D02*
X133800000Y-122050000D01*
X132420000Y-117150000D02*
X133800000Y-118530000D01*
X130250000Y-117150000D02*
X132420000Y-117150000D01*
X126850000Y-117150000D02*
X126250000Y-117750000D01*
X130250000Y-117150000D02*
X126850000Y-117150000D01*
X119250000Y-113475000D02*
X119250000Y-116500000D01*
X120500000Y-117750000D02*
X126250000Y-117750000D01*
X119250000Y-116500000D02*
X120500000Y-117750000D01*
X116475000Y-113475000D02*
X109000000Y-106000000D01*
X119250000Y-113475000D02*
X116475000Y-113475000D01*
%TD*%
D20*
%TO.N,/ADJ+*%
G36*
X142123000Y-88552606D02*
G01*
X142123000Y-91750000D01*
X142125440Y-91774776D01*
X142132667Y-91798601D01*
X142144403Y-91820557D01*
X142160197Y-91839803D01*
X143623000Y-93302606D01*
X143623000Y-97447394D01*
X142197394Y-98873000D01*
X135552606Y-98873000D01*
X135127000Y-98447394D01*
X135127000Y-88552606D01*
X135552606Y-88127000D01*
X141697394Y-88127000D01*
X142123000Y-88552606D01*
G37*
X142123000Y-88552606D02*
X142123000Y-91750000D01*
X142125440Y-91774776D01*
X142132667Y-91798601D01*
X142144403Y-91820557D01*
X142160197Y-91839803D01*
X143623000Y-93302606D01*
X143623000Y-97447394D01*
X142197394Y-98873000D01*
X135552606Y-98873000D01*
X135127000Y-98447394D01*
X135127000Y-88552606D01*
X135552606Y-88127000D01*
X141697394Y-88127000D01*
X142123000Y-88552606D01*
%TO.N,/ADJ-*%
G36*
X135123000Y-108552606D02*
G01*
X135123000Y-115197394D01*
X134697394Y-115623000D01*
X125302606Y-115623000D01*
X124877000Y-115197394D01*
X124877000Y-109052606D01*
X125302606Y-108627000D01*
X129250000Y-108627000D01*
X129274776Y-108624560D01*
X129298601Y-108617333D01*
X129320557Y-108605597D01*
X129339803Y-108589803D01*
X130552606Y-107377000D01*
X133947394Y-107377000D01*
X135123000Y-108552606D01*
G37*
X135123000Y-108552606D02*
X135123000Y-115197394D01*
X134697394Y-115623000D01*
X125302606Y-115623000D01*
X124877000Y-115197394D01*
X124877000Y-109052606D01*
X125302606Y-108627000D01*
X129250000Y-108627000D01*
X129274776Y-108624560D01*
X129298601Y-108617333D01*
X129320557Y-108605597D01*
X129339803Y-108589803D01*
X130552606Y-107377000D01*
X133947394Y-107377000D01*
X135123000Y-108552606D01*
D21*
%TO.N,/VI-*%
G36*
X158350000Y-104812132D02*
G01*
X158350000Y-118187868D01*
X157937868Y-118600000D01*
X153750000Y-118600000D01*
X153720736Y-118602882D01*
X153692597Y-118611418D01*
X153666664Y-118625280D01*
X153643934Y-118643934D01*
X151143934Y-121143934D01*
X151125280Y-121166664D01*
X151111418Y-121192597D01*
X151102882Y-121220736D01*
X151100000Y-121250000D01*
X151100000Y-125187868D01*
X150687868Y-125600000D01*
X136562132Y-125600000D01*
X136150000Y-125187868D01*
X136150000Y-123400000D01*
X136297823Y-123400000D01*
X136306511Y-123488215D01*
X136332243Y-123573041D01*
X136374029Y-123651216D01*
X136430263Y-123719737D01*
X136498784Y-123775971D01*
X136576959Y-123817757D01*
X136661785Y-123843489D01*
X136750000Y-123852177D01*
X137787500Y-123850000D01*
X137900000Y-123737500D01*
X137900000Y-122600000D01*
X138100000Y-122600000D01*
X138100000Y-123737500D01*
X138212500Y-123850000D01*
X139250000Y-123852177D01*
X139338215Y-123843489D01*
X139423041Y-123817757D01*
X139501216Y-123775971D01*
X139569737Y-123719737D01*
X139625971Y-123651216D01*
X139667757Y-123573041D01*
X139693489Y-123488215D01*
X139702177Y-123400000D01*
X139700000Y-122712500D01*
X139587500Y-122600000D01*
X138100000Y-122600000D01*
X137900000Y-122600000D01*
X136412500Y-122600000D01*
X136300000Y-122712500D01*
X136297823Y-123400000D01*
X136150000Y-123400000D01*
X136150000Y-121600000D01*
X136297823Y-121600000D01*
X136300000Y-122287500D01*
X136412500Y-122400000D01*
X137900000Y-122400000D01*
X137900000Y-121262500D01*
X138100000Y-121262500D01*
X138100000Y-122400000D01*
X139587500Y-122400000D01*
X139700000Y-122287500D01*
X139702177Y-121600000D01*
X139693489Y-121511785D01*
X139667757Y-121426959D01*
X139625971Y-121348784D01*
X139569737Y-121280263D01*
X139501216Y-121224029D01*
X139423041Y-121182243D01*
X139338215Y-121156511D01*
X139250000Y-121147823D01*
X138212500Y-121150000D01*
X138100000Y-121262500D01*
X137900000Y-121262500D01*
X137787500Y-121150000D01*
X136750000Y-121147823D01*
X136661785Y-121156511D01*
X136576959Y-121182243D01*
X136498784Y-121224029D01*
X136430263Y-121280263D01*
X136374029Y-121348784D01*
X136332243Y-121426959D01*
X136306511Y-121511785D01*
X136297823Y-121600000D01*
X136150000Y-121600000D01*
X136150000Y-119150000D01*
X136447823Y-119150000D01*
X136456511Y-119238215D01*
X136482243Y-119323041D01*
X136524029Y-119401216D01*
X136580263Y-119469737D01*
X136648784Y-119525971D01*
X136726959Y-119567757D01*
X136811785Y-119593489D01*
X136900000Y-119602177D01*
X139887500Y-119600000D01*
X140000000Y-119487500D01*
X140000000Y-116350000D01*
X140200000Y-116350000D01*
X140200000Y-119487500D01*
X140312500Y-119600000D01*
X143300000Y-119602177D01*
X143388215Y-119593489D01*
X143473041Y-119567757D01*
X143551216Y-119525971D01*
X143619737Y-119469737D01*
X143675971Y-119401216D01*
X143717757Y-119323041D01*
X143743489Y-119238215D01*
X143752177Y-119150000D01*
X143750000Y-116462500D01*
X143637500Y-116350000D01*
X140200000Y-116350000D01*
X140000000Y-116350000D01*
X136562500Y-116350000D01*
X136450000Y-116462500D01*
X136447823Y-119150000D01*
X136150000Y-119150000D01*
X136150000Y-113350000D01*
X136447823Y-113350000D01*
X136450000Y-116037500D01*
X136562500Y-116150000D01*
X140000000Y-116150000D01*
X140000000Y-113012500D01*
X140200000Y-113012500D01*
X140200000Y-116150000D01*
X143637500Y-116150000D01*
X143750000Y-116037500D01*
X143752177Y-113350000D01*
X143743489Y-113261785D01*
X143717757Y-113176959D01*
X143675971Y-113098784D01*
X143619737Y-113030263D01*
X143551216Y-112974029D01*
X143473041Y-112932243D01*
X143388215Y-112906511D01*
X143300000Y-112897823D01*
X140312500Y-112900000D01*
X140200000Y-113012500D01*
X140000000Y-113012500D01*
X139887500Y-112900000D01*
X136900000Y-112897823D01*
X136811785Y-112906511D01*
X136726959Y-112932243D01*
X136648784Y-112974029D01*
X136580263Y-113030263D01*
X136524029Y-113098784D01*
X136482243Y-113176959D01*
X136456511Y-113261785D01*
X136447823Y-113350000D01*
X136150000Y-113350000D01*
X136150000Y-111025000D01*
X136672823Y-111025000D01*
X136681511Y-111113215D01*
X136707243Y-111198041D01*
X136749029Y-111276216D01*
X136805263Y-111344737D01*
X136873784Y-111400971D01*
X136951959Y-111442757D01*
X137036785Y-111468489D01*
X137125000Y-111477177D01*
X137787500Y-111475000D01*
X137900000Y-111362500D01*
X137900000Y-110500000D01*
X138100000Y-110500000D01*
X138100000Y-111362500D01*
X138212500Y-111475000D01*
X138875000Y-111477177D01*
X138963215Y-111468489D01*
X139024164Y-111450000D01*
X141747823Y-111450000D01*
X141756511Y-111538215D01*
X141782243Y-111623041D01*
X141824029Y-111701216D01*
X141880263Y-111769737D01*
X141948784Y-111825971D01*
X142026959Y-111867757D01*
X142111785Y-111893489D01*
X142200000Y-111902177D01*
X142787500Y-111900000D01*
X142900000Y-111787500D01*
X142900000Y-110050000D01*
X143100000Y-110050000D01*
X143100000Y-111787500D01*
X143212500Y-111900000D01*
X143800000Y-111902177D01*
X143888215Y-111893489D01*
X143973041Y-111867757D01*
X144051216Y-111825971D01*
X144119737Y-111769737D01*
X144175971Y-111701216D01*
X144217757Y-111623041D01*
X144243489Y-111538215D01*
X144252177Y-111450000D01*
X144250000Y-110162500D01*
X144137500Y-110050000D01*
X143100000Y-110050000D01*
X142900000Y-110050000D01*
X141862500Y-110050000D01*
X141750000Y-110162500D01*
X141747823Y-111450000D01*
X139024164Y-111450000D01*
X139048041Y-111442757D01*
X139126216Y-111400971D01*
X139194737Y-111344737D01*
X139250971Y-111276216D01*
X139292757Y-111198041D01*
X139318489Y-111113215D01*
X139327177Y-111025000D01*
X139325000Y-110612500D01*
X139212500Y-110500000D01*
X138100000Y-110500000D01*
X137900000Y-110500000D01*
X136787500Y-110500000D01*
X136675000Y-110612500D01*
X136672823Y-111025000D01*
X136150000Y-111025000D01*
X136150000Y-109775000D01*
X136672823Y-109775000D01*
X136675000Y-110187500D01*
X136787500Y-110300000D01*
X137900000Y-110300000D01*
X137900000Y-109437500D01*
X138100000Y-109437500D01*
X138100000Y-110300000D01*
X139212500Y-110300000D01*
X139325000Y-110187500D01*
X139327177Y-109775000D01*
X139318489Y-109686785D01*
X139292757Y-109601959D01*
X139250971Y-109523784D01*
X139194737Y-109455263D01*
X139126216Y-109399029D01*
X139048041Y-109357243D01*
X138963215Y-109331511D01*
X138875000Y-109322823D01*
X138212500Y-109325000D01*
X138100000Y-109437500D01*
X137900000Y-109437500D01*
X137787500Y-109325000D01*
X137125000Y-109322823D01*
X137036785Y-109331511D01*
X136951959Y-109357243D01*
X136873784Y-109399029D01*
X136805263Y-109455263D01*
X136749029Y-109523784D01*
X136707243Y-109601959D01*
X136681511Y-109686785D01*
X136672823Y-109775000D01*
X136150000Y-109775000D01*
X136150000Y-109562132D01*
X136562132Y-109150000D01*
X139250000Y-109150000D01*
X139279264Y-109147118D01*
X139307403Y-109138582D01*
X139333336Y-109124720D01*
X139356066Y-109106066D01*
X140012132Y-108450000D01*
X141747823Y-108450000D01*
X141750000Y-109737500D01*
X141862500Y-109850000D01*
X142900000Y-109850000D01*
X142900000Y-108112500D01*
X143100000Y-108112500D01*
X143100000Y-109850000D01*
X144137500Y-109850000D01*
X144250000Y-109737500D01*
X144252177Y-108450000D01*
X144243489Y-108361785D01*
X144217757Y-108276959D01*
X144175971Y-108198784D01*
X144119737Y-108130263D01*
X144051216Y-108074029D01*
X143973041Y-108032243D01*
X143888215Y-108006511D01*
X143800000Y-107997823D01*
X143212500Y-108000000D01*
X143100000Y-108112500D01*
X142900000Y-108112500D01*
X142787500Y-108000000D01*
X142200000Y-107997823D01*
X142111785Y-108006511D01*
X142026959Y-108032243D01*
X141948784Y-108074029D01*
X141880263Y-108130263D01*
X141824029Y-108198784D01*
X141782243Y-108276959D01*
X141756511Y-108361785D01*
X141747823Y-108450000D01*
X140012132Y-108450000D01*
X140562132Y-107900000D01*
X144250000Y-107900000D01*
X144279264Y-107897118D01*
X144307403Y-107888582D01*
X144333336Y-107874720D01*
X144356066Y-107856066D01*
X145193338Y-107018794D01*
X155122628Y-107018794D01*
X155226509Y-107234750D01*
X155482259Y-107361925D01*
X155757906Y-107436762D01*
X156042856Y-107456386D01*
X156326159Y-107420042D01*
X156596928Y-107329125D01*
X156773491Y-107234750D01*
X156877372Y-107018794D01*
X156000000Y-106141421D01*
X155122628Y-107018794D01*
X145193338Y-107018794D01*
X146169276Y-106042856D01*
X154543614Y-106042856D01*
X154579958Y-106326159D01*
X154670875Y-106596928D01*
X154765250Y-106773491D01*
X154981206Y-106877372D01*
X155858579Y-106000000D01*
X156141421Y-106000000D01*
X157018794Y-106877372D01*
X157234750Y-106773491D01*
X157361925Y-106517741D01*
X157436762Y-106242094D01*
X157456386Y-105957144D01*
X157420042Y-105673841D01*
X157329125Y-105403072D01*
X157234750Y-105226509D01*
X157018794Y-105122628D01*
X156141421Y-106000000D01*
X155858579Y-106000000D01*
X154981206Y-105122628D01*
X154765250Y-105226509D01*
X154638075Y-105482259D01*
X154563238Y-105757906D01*
X154543614Y-106042856D01*
X146169276Y-106042856D01*
X147230926Y-104981206D01*
X155122628Y-104981206D01*
X156000000Y-105858579D01*
X156877372Y-104981206D01*
X156773491Y-104765250D01*
X156517741Y-104638075D01*
X156242094Y-104563238D01*
X155957144Y-104543614D01*
X155673841Y-104579958D01*
X155403072Y-104670875D01*
X155226509Y-104765250D01*
X155122628Y-104981206D01*
X147230926Y-104981206D01*
X147812132Y-104400000D01*
X157937868Y-104400000D01*
X158350000Y-104812132D01*
G37*
X158350000Y-104812132D02*
X158350000Y-118187868D01*
X157937868Y-118600000D01*
X153750000Y-118600000D01*
X153720736Y-118602882D01*
X153692597Y-118611418D01*
X153666664Y-118625280D01*
X153643934Y-118643934D01*
X151143934Y-121143934D01*
X151125280Y-121166664D01*
X151111418Y-121192597D01*
X151102882Y-121220736D01*
X151100000Y-121250000D01*
X151100000Y-125187868D01*
X150687868Y-125600000D01*
X136562132Y-125600000D01*
X136150000Y-125187868D01*
X136150000Y-123400000D01*
X136297823Y-123400000D01*
X136306511Y-123488215D01*
X136332243Y-123573041D01*
X136374029Y-123651216D01*
X136430263Y-123719737D01*
X136498784Y-123775971D01*
X136576959Y-123817757D01*
X136661785Y-123843489D01*
X136750000Y-123852177D01*
X137787500Y-123850000D01*
X137900000Y-123737500D01*
X137900000Y-122600000D01*
X138100000Y-122600000D01*
X138100000Y-123737500D01*
X138212500Y-123850000D01*
X139250000Y-123852177D01*
X139338215Y-123843489D01*
X139423041Y-123817757D01*
X139501216Y-123775971D01*
X139569737Y-123719737D01*
X139625971Y-123651216D01*
X139667757Y-123573041D01*
X139693489Y-123488215D01*
X139702177Y-123400000D01*
X139700000Y-122712500D01*
X139587500Y-122600000D01*
X138100000Y-122600000D01*
X137900000Y-122600000D01*
X136412500Y-122600000D01*
X136300000Y-122712500D01*
X136297823Y-123400000D01*
X136150000Y-123400000D01*
X136150000Y-121600000D01*
X136297823Y-121600000D01*
X136300000Y-122287500D01*
X136412500Y-122400000D01*
X137900000Y-122400000D01*
X137900000Y-121262500D01*
X138100000Y-121262500D01*
X138100000Y-122400000D01*
X139587500Y-122400000D01*
X139700000Y-122287500D01*
X139702177Y-121600000D01*
X139693489Y-121511785D01*
X139667757Y-121426959D01*
X139625971Y-121348784D01*
X139569737Y-121280263D01*
X139501216Y-121224029D01*
X139423041Y-121182243D01*
X139338215Y-121156511D01*
X139250000Y-121147823D01*
X138212500Y-121150000D01*
X138100000Y-121262500D01*
X137900000Y-121262500D01*
X137787500Y-121150000D01*
X136750000Y-121147823D01*
X136661785Y-121156511D01*
X136576959Y-121182243D01*
X136498784Y-121224029D01*
X136430263Y-121280263D01*
X136374029Y-121348784D01*
X136332243Y-121426959D01*
X136306511Y-121511785D01*
X136297823Y-121600000D01*
X136150000Y-121600000D01*
X136150000Y-119150000D01*
X136447823Y-119150000D01*
X136456511Y-119238215D01*
X136482243Y-119323041D01*
X136524029Y-119401216D01*
X136580263Y-119469737D01*
X136648784Y-119525971D01*
X136726959Y-119567757D01*
X136811785Y-119593489D01*
X136900000Y-119602177D01*
X139887500Y-119600000D01*
X140000000Y-119487500D01*
X140000000Y-116350000D01*
X140200000Y-116350000D01*
X140200000Y-119487500D01*
X140312500Y-119600000D01*
X143300000Y-119602177D01*
X143388215Y-119593489D01*
X143473041Y-119567757D01*
X143551216Y-119525971D01*
X143619737Y-119469737D01*
X143675971Y-119401216D01*
X143717757Y-119323041D01*
X143743489Y-119238215D01*
X143752177Y-119150000D01*
X143750000Y-116462500D01*
X143637500Y-116350000D01*
X140200000Y-116350000D01*
X140000000Y-116350000D01*
X136562500Y-116350000D01*
X136450000Y-116462500D01*
X136447823Y-119150000D01*
X136150000Y-119150000D01*
X136150000Y-113350000D01*
X136447823Y-113350000D01*
X136450000Y-116037500D01*
X136562500Y-116150000D01*
X140000000Y-116150000D01*
X140000000Y-113012500D01*
X140200000Y-113012500D01*
X140200000Y-116150000D01*
X143637500Y-116150000D01*
X143750000Y-116037500D01*
X143752177Y-113350000D01*
X143743489Y-113261785D01*
X143717757Y-113176959D01*
X143675971Y-113098784D01*
X143619737Y-113030263D01*
X143551216Y-112974029D01*
X143473041Y-112932243D01*
X143388215Y-112906511D01*
X143300000Y-112897823D01*
X140312500Y-112900000D01*
X140200000Y-113012500D01*
X140000000Y-113012500D01*
X139887500Y-112900000D01*
X136900000Y-112897823D01*
X136811785Y-112906511D01*
X136726959Y-112932243D01*
X136648784Y-112974029D01*
X136580263Y-113030263D01*
X136524029Y-113098784D01*
X136482243Y-113176959D01*
X136456511Y-113261785D01*
X136447823Y-113350000D01*
X136150000Y-113350000D01*
X136150000Y-111025000D01*
X136672823Y-111025000D01*
X136681511Y-111113215D01*
X136707243Y-111198041D01*
X136749029Y-111276216D01*
X136805263Y-111344737D01*
X136873784Y-111400971D01*
X136951959Y-111442757D01*
X137036785Y-111468489D01*
X137125000Y-111477177D01*
X137787500Y-111475000D01*
X137900000Y-111362500D01*
X137900000Y-110500000D01*
X138100000Y-110500000D01*
X138100000Y-111362500D01*
X138212500Y-111475000D01*
X138875000Y-111477177D01*
X138963215Y-111468489D01*
X139024164Y-111450000D01*
X141747823Y-111450000D01*
X141756511Y-111538215D01*
X141782243Y-111623041D01*
X141824029Y-111701216D01*
X141880263Y-111769737D01*
X141948784Y-111825971D01*
X142026959Y-111867757D01*
X142111785Y-111893489D01*
X142200000Y-111902177D01*
X142787500Y-111900000D01*
X142900000Y-111787500D01*
X142900000Y-110050000D01*
X143100000Y-110050000D01*
X143100000Y-111787500D01*
X143212500Y-111900000D01*
X143800000Y-111902177D01*
X143888215Y-111893489D01*
X143973041Y-111867757D01*
X144051216Y-111825971D01*
X144119737Y-111769737D01*
X144175971Y-111701216D01*
X144217757Y-111623041D01*
X144243489Y-111538215D01*
X144252177Y-111450000D01*
X144250000Y-110162500D01*
X144137500Y-110050000D01*
X143100000Y-110050000D01*
X142900000Y-110050000D01*
X141862500Y-110050000D01*
X141750000Y-110162500D01*
X141747823Y-111450000D01*
X139024164Y-111450000D01*
X139048041Y-111442757D01*
X139126216Y-111400971D01*
X139194737Y-111344737D01*
X139250971Y-111276216D01*
X139292757Y-111198041D01*
X139318489Y-111113215D01*
X139327177Y-111025000D01*
X139325000Y-110612500D01*
X139212500Y-110500000D01*
X138100000Y-110500000D01*
X137900000Y-110500000D01*
X136787500Y-110500000D01*
X136675000Y-110612500D01*
X136672823Y-111025000D01*
X136150000Y-111025000D01*
X136150000Y-109775000D01*
X136672823Y-109775000D01*
X136675000Y-110187500D01*
X136787500Y-110300000D01*
X137900000Y-110300000D01*
X137900000Y-109437500D01*
X138100000Y-109437500D01*
X138100000Y-110300000D01*
X139212500Y-110300000D01*
X139325000Y-110187500D01*
X139327177Y-109775000D01*
X139318489Y-109686785D01*
X139292757Y-109601959D01*
X139250971Y-109523784D01*
X139194737Y-109455263D01*
X139126216Y-109399029D01*
X139048041Y-109357243D01*
X138963215Y-109331511D01*
X138875000Y-109322823D01*
X138212500Y-109325000D01*
X138100000Y-109437500D01*
X137900000Y-109437500D01*
X137787500Y-109325000D01*
X137125000Y-109322823D01*
X137036785Y-109331511D01*
X136951959Y-109357243D01*
X136873784Y-109399029D01*
X136805263Y-109455263D01*
X136749029Y-109523784D01*
X136707243Y-109601959D01*
X136681511Y-109686785D01*
X136672823Y-109775000D01*
X136150000Y-109775000D01*
X136150000Y-109562132D01*
X136562132Y-109150000D01*
X139250000Y-109150000D01*
X139279264Y-109147118D01*
X139307403Y-109138582D01*
X139333336Y-109124720D01*
X139356066Y-109106066D01*
X140012132Y-108450000D01*
X141747823Y-108450000D01*
X141750000Y-109737500D01*
X141862500Y-109850000D01*
X142900000Y-109850000D01*
X142900000Y-108112500D01*
X143100000Y-108112500D01*
X143100000Y-109850000D01*
X144137500Y-109850000D01*
X144250000Y-109737500D01*
X144252177Y-108450000D01*
X144243489Y-108361785D01*
X144217757Y-108276959D01*
X144175971Y-108198784D01*
X144119737Y-108130263D01*
X144051216Y-108074029D01*
X143973041Y-108032243D01*
X143888215Y-108006511D01*
X143800000Y-107997823D01*
X143212500Y-108000000D01*
X143100000Y-108112500D01*
X142900000Y-108112500D01*
X142787500Y-108000000D01*
X142200000Y-107997823D01*
X142111785Y-108006511D01*
X142026959Y-108032243D01*
X141948784Y-108074029D01*
X141880263Y-108130263D01*
X141824029Y-108198784D01*
X141782243Y-108276959D01*
X141756511Y-108361785D01*
X141747823Y-108450000D01*
X140012132Y-108450000D01*
X140562132Y-107900000D01*
X144250000Y-107900000D01*
X144279264Y-107897118D01*
X144307403Y-107888582D01*
X144333336Y-107874720D01*
X144356066Y-107856066D01*
X145193338Y-107018794D01*
X155122628Y-107018794D01*
X155226509Y-107234750D01*
X155482259Y-107361925D01*
X155757906Y-107436762D01*
X156042856Y-107456386D01*
X156326159Y-107420042D01*
X156596928Y-107329125D01*
X156773491Y-107234750D01*
X156877372Y-107018794D01*
X156000000Y-106141421D01*
X155122628Y-107018794D01*
X145193338Y-107018794D01*
X146169276Y-106042856D01*
X154543614Y-106042856D01*
X154579958Y-106326159D01*
X154670875Y-106596928D01*
X154765250Y-106773491D01*
X154981206Y-106877372D01*
X155858579Y-106000000D01*
X156141421Y-106000000D01*
X157018794Y-106877372D01*
X157234750Y-106773491D01*
X157361925Y-106517741D01*
X157436762Y-106242094D01*
X157456386Y-105957144D01*
X157420042Y-105673841D01*
X157329125Y-105403072D01*
X157234750Y-105226509D01*
X157018794Y-105122628D01*
X156141421Y-106000000D01*
X155858579Y-106000000D01*
X154981206Y-105122628D01*
X154765250Y-105226509D01*
X154638075Y-105482259D01*
X154563238Y-105757906D01*
X154543614Y-106042856D01*
X146169276Y-106042856D01*
X147230926Y-104981206D01*
X155122628Y-104981206D01*
X156000000Y-105858579D01*
X156877372Y-104981206D01*
X156773491Y-104765250D01*
X156517741Y-104638075D01*
X156242094Y-104563238D01*
X155957144Y-104543614D01*
X155673841Y-104579958D01*
X155403072Y-104670875D01*
X155226509Y-104765250D01*
X155122628Y-104981206D01*
X147230926Y-104981206D01*
X147812132Y-104400000D01*
X157937868Y-104400000D01*
X158350000Y-104812132D01*
G36*
X144100000Y-119850000D02*
G01*
X136150000Y-119850000D01*
X136150000Y-112400000D01*
X144100000Y-112400000D01*
X144100000Y-119850000D01*
G37*
X144100000Y-119850000D02*
X136150000Y-119850000D01*
X136150000Y-112400000D01*
X144100000Y-112400000D01*
X144100000Y-119850000D01*
%TO.N,/VO+*%
G36*
X134350000Y-79062132D02*
G01*
X134350000Y-96442670D01*
X134313215Y-96431511D01*
X134225000Y-96422823D01*
X133812500Y-96425000D01*
X133700000Y-96537500D01*
X133700000Y-97650000D01*
X133720000Y-97650000D01*
X133720000Y-97850000D01*
X133700000Y-97850000D01*
X133700000Y-98962500D01*
X133812500Y-99075000D01*
X134210766Y-99077102D01*
X133937868Y-99350000D01*
X124312132Y-99350000D01*
X123587132Y-98625000D01*
X132522823Y-98625000D01*
X132531511Y-98713215D01*
X132557243Y-98798041D01*
X132599029Y-98876216D01*
X132655263Y-98944737D01*
X132723784Y-99000971D01*
X132801959Y-99042757D01*
X132886785Y-99068489D01*
X132975000Y-99077177D01*
X133387500Y-99075000D01*
X133500000Y-98962500D01*
X133500000Y-97850000D01*
X132637500Y-97850000D01*
X132525000Y-97962500D01*
X132522823Y-98625000D01*
X123587132Y-98625000D01*
X121837132Y-96875000D01*
X132522823Y-96875000D01*
X132525000Y-97537500D01*
X132637500Y-97650000D01*
X133500000Y-97650000D01*
X133500000Y-96537500D01*
X133387500Y-96425000D01*
X132975000Y-96422823D01*
X132886785Y-96431511D01*
X132801959Y-96457243D01*
X132723784Y-96499029D01*
X132655263Y-96555263D01*
X132599029Y-96623784D01*
X132557243Y-96701959D01*
X132531511Y-96786785D01*
X132522823Y-96875000D01*
X121837132Y-96875000D01*
X121106066Y-96143934D01*
X121083336Y-96125280D01*
X121057403Y-96111418D01*
X121029264Y-96102882D01*
X121000000Y-96100000D01*
X120381342Y-96100000D01*
X120340109Y-96066161D01*
X120218712Y-96001273D01*
X120086988Y-95961315D01*
X119950000Y-95947823D01*
X118550000Y-95947823D01*
X118413012Y-95961315D01*
X118281288Y-96001273D01*
X118159891Y-96066161D01*
X118118658Y-96100000D01*
X117250000Y-96100000D01*
X117220736Y-96102882D01*
X117192597Y-96111418D01*
X117166664Y-96125280D01*
X117143934Y-96143934D01*
X112687868Y-100600000D01*
X107062132Y-100600000D01*
X106650000Y-100187868D01*
X106650000Y-100018794D01*
X108122628Y-100018794D01*
X108226509Y-100234750D01*
X108482259Y-100361925D01*
X108757906Y-100436762D01*
X109042856Y-100456386D01*
X109326159Y-100420042D01*
X109596928Y-100329125D01*
X109773491Y-100234750D01*
X109877372Y-100018794D01*
X109000000Y-99141421D01*
X108122628Y-100018794D01*
X106650000Y-100018794D01*
X106650000Y-99042856D01*
X107543614Y-99042856D01*
X107579958Y-99326159D01*
X107670875Y-99596928D01*
X107765250Y-99773491D01*
X107981206Y-99877372D01*
X108858579Y-99000000D01*
X109141421Y-99000000D01*
X110018794Y-99877372D01*
X110234750Y-99773491D01*
X110361925Y-99517741D01*
X110436762Y-99242094D01*
X110456386Y-98957144D01*
X110420042Y-98673841D01*
X110329125Y-98403072D01*
X110234750Y-98226509D01*
X110018794Y-98122628D01*
X109141421Y-99000000D01*
X108858579Y-99000000D01*
X107981206Y-98122628D01*
X107765250Y-98226509D01*
X107638075Y-98482259D01*
X107563238Y-98757906D01*
X107543614Y-99042856D01*
X106650000Y-99042856D01*
X106650000Y-97981206D01*
X108122628Y-97981206D01*
X109000000Y-98858579D01*
X109877372Y-97981206D01*
X109773491Y-97765250D01*
X109517741Y-97638075D01*
X109242094Y-97563238D01*
X108957144Y-97543614D01*
X108673841Y-97579958D01*
X108403072Y-97670875D01*
X108226509Y-97765250D01*
X108122628Y-97981206D01*
X106650000Y-97981206D01*
X106650000Y-94900000D01*
X130797823Y-94900000D01*
X130806511Y-94988215D01*
X130832243Y-95073041D01*
X130874029Y-95151216D01*
X130930263Y-95219737D01*
X130998784Y-95275971D01*
X131076959Y-95317757D01*
X131161785Y-95343489D01*
X131250000Y-95352177D01*
X132287500Y-95350000D01*
X132400000Y-95237500D01*
X132400000Y-94100000D01*
X132600000Y-94100000D01*
X132600000Y-95237500D01*
X132712500Y-95350000D01*
X133750000Y-95352177D01*
X133838215Y-95343489D01*
X133923041Y-95317757D01*
X134001216Y-95275971D01*
X134069737Y-95219737D01*
X134125971Y-95151216D01*
X134167757Y-95073041D01*
X134193489Y-94988215D01*
X134202177Y-94900000D01*
X134200000Y-94212500D01*
X134087500Y-94100000D01*
X132600000Y-94100000D01*
X132400000Y-94100000D01*
X130912500Y-94100000D01*
X130800000Y-94212500D01*
X130797823Y-94900000D01*
X106650000Y-94900000D01*
X106650000Y-93600000D01*
X117847823Y-93600000D01*
X117856511Y-93688215D01*
X117882243Y-93773041D01*
X117924029Y-93851216D01*
X117980263Y-93919737D01*
X118048784Y-93975971D01*
X118126959Y-94017757D01*
X118211785Y-94043489D01*
X118300000Y-94052177D01*
X119037500Y-94050000D01*
X119150000Y-93937500D01*
X119150000Y-91625000D01*
X119350000Y-91625000D01*
X119350000Y-93937500D01*
X119462500Y-94050000D01*
X120200000Y-94052177D01*
X120288215Y-94043489D01*
X120373041Y-94017757D01*
X120451216Y-93975971D01*
X120519737Y-93919737D01*
X120575971Y-93851216D01*
X120617757Y-93773041D01*
X120643489Y-93688215D01*
X120652177Y-93600000D01*
X120651593Y-93100000D01*
X130797823Y-93100000D01*
X130800000Y-93787500D01*
X130912500Y-93900000D01*
X132400000Y-93900000D01*
X132400000Y-92762500D01*
X132600000Y-92762500D01*
X132600000Y-93900000D01*
X134087500Y-93900000D01*
X134200000Y-93787500D01*
X134202177Y-93100000D01*
X134193489Y-93011785D01*
X134167757Y-92926959D01*
X134125971Y-92848784D01*
X134069737Y-92780263D01*
X134001216Y-92724029D01*
X133923041Y-92682243D01*
X133838215Y-92656511D01*
X133750000Y-92647823D01*
X132712500Y-92650000D01*
X132600000Y-92762500D01*
X132400000Y-92762500D01*
X132287500Y-92650000D01*
X131250000Y-92647823D01*
X131161785Y-92656511D01*
X131076959Y-92682243D01*
X130998784Y-92724029D01*
X130930263Y-92780263D01*
X130874029Y-92848784D01*
X130832243Y-92926959D01*
X130806511Y-93011785D01*
X130797823Y-93100000D01*
X120651593Y-93100000D01*
X120650000Y-91737500D01*
X120537500Y-91625000D01*
X119350000Y-91625000D01*
X119150000Y-91625000D01*
X117962500Y-91625000D01*
X117850000Y-91737500D01*
X117847823Y-93600000D01*
X106650000Y-93600000D01*
X106650000Y-89450000D01*
X117847823Y-89450000D01*
X117850000Y-91312500D01*
X117962500Y-91425000D01*
X119150000Y-91425000D01*
X119150000Y-89112500D01*
X119350000Y-89112500D01*
X119350000Y-91425000D01*
X120537500Y-91425000D01*
X120650000Y-91312500D01*
X120651066Y-90400000D01*
X126747823Y-90400000D01*
X126756511Y-90488215D01*
X126782243Y-90573041D01*
X126824029Y-90651216D01*
X126880263Y-90719737D01*
X126948784Y-90775971D01*
X127026959Y-90817757D01*
X127111785Y-90843489D01*
X127200000Y-90852177D01*
X130187500Y-90850000D01*
X130300000Y-90737500D01*
X130300000Y-87600000D01*
X130500000Y-87600000D01*
X130500000Y-90737500D01*
X130612500Y-90850000D01*
X133600000Y-90852177D01*
X133688215Y-90843489D01*
X133773041Y-90817757D01*
X133851216Y-90775971D01*
X133919737Y-90719737D01*
X133975971Y-90651216D01*
X134017757Y-90573041D01*
X134043489Y-90488215D01*
X134052177Y-90400000D01*
X134050000Y-87712500D01*
X133937500Y-87600000D01*
X130500000Y-87600000D01*
X130300000Y-87600000D01*
X126862500Y-87600000D01*
X126750000Y-87712500D01*
X126747823Y-90400000D01*
X120651066Y-90400000D01*
X120652177Y-89450000D01*
X120643489Y-89361785D01*
X120617757Y-89276959D01*
X120575971Y-89198784D01*
X120519737Y-89130263D01*
X120451216Y-89074029D01*
X120373041Y-89032243D01*
X120288215Y-89006511D01*
X120200000Y-88997823D01*
X119462500Y-89000000D01*
X119350000Y-89112500D01*
X119150000Y-89112500D01*
X119037500Y-89000000D01*
X118300000Y-88997823D01*
X118211785Y-89006511D01*
X118126959Y-89032243D01*
X118048784Y-89074029D01*
X117980263Y-89130263D01*
X117924029Y-89198784D01*
X117882243Y-89276959D01*
X117856511Y-89361785D01*
X117847823Y-89450000D01*
X106650000Y-89450000D01*
X106650000Y-86812132D01*
X107062132Y-86400000D01*
X112500000Y-86400000D01*
X112529264Y-86397118D01*
X112557403Y-86388582D01*
X112583336Y-86374720D01*
X112606066Y-86356066D01*
X113856066Y-85106066D01*
X113874720Y-85083336D01*
X113888582Y-85057403D01*
X113897118Y-85029264D01*
X113900000Y-85000000D01*
X113900000Y-84600000D01*
X126747823Y-84600000D01*
X126750000Y-87287500D01*
X126862500Y-87400000D01*
X130300000Y-87400000D01*
X130300000Y-84262500D01*
X130500000Y-84262500D01*
X130500000Y-87400000D01*
X133937500Y-87400000D01*
X134050000Y-87287500D01*
X134052177Y-84600000D01*
X134043489Y-84511785D01*
X134017757Y-84426959D01*
X133975971Y-84348784D01*
X133919737Y-84280263D01*
X133851216Y-84224029D01*
X133773041Y-84182243D01*
X133688215Y-84156511D01*
X133600000Y-84147823D01*
X130612500Y-84150000D01*
X130500000Y-84262500D01*
X130300000Y-84262500D01*
X130187500Y-84150000D01*
X127200000Y-84147823D01*
X127111785Y-84156511D01*
X127026959Y-84182243D01*
X126948784Y-84224029D01*
X126880263Y-84280263D01*
X126824029Y-84348784D01*
X126782243Y-84426959D01*
X126756511Y-84511785D01*
X126747823Y-84600000D01*
X113900000Y-84600000D01*
X113900000Y-81900000D01*
X130797823Y-81900000D01*
X130806511Y-81988215D01*
X130832243Y-82073041D01*
X130874029Y-82151216D01*
X130930263Y-82219737D01*
X130998784Y-82275971D01*
X131076959Y-82317757D01*
X131161785Y-82343489D01*
X131250000Y-82352177D01*
X132287500Y-82350000D01*
X132400000Y-82237500D01*
X132400000Y-81100000D01*
X132600000Y-81100000D01*
X132600000Y-82237500D01*
X132712500Y-82350000D01*
X133750000Y-82352177D01*
X133838215Y-82343489D01*
X133923041Y-82317757D01*
X134001216Y-82275971D01*
X134069737Y-82219737D01*
X134125971Y-82151216D01*
X134167757Y-82073041D01*
X134193489Y-81988215D01*
X134202177Y-81900000D01*
X134200000Y-81212500D01*
X134087500Y-81100000D01*
X132600000Y-81100000D01*
X132400000Y-81100000D01*
X130912500Y-81100000D01*
X130800000Y-81212500D01*
X130797823Y-81900000D01*
X113900000Y-81900000D01*
X113900000Y-80100000D01*
X130797823Y-80100000D01*
X130800000Y-80787500D01*
X130912500Y-80900000D01*
X132400000Y-80900000D01*
X132400000Y-79762500D01*
X132600000Y-79762500D01*
X132600000Y-80900000D01*
X134087500Y-80900000D01*
X134200000Y-80787500D01*
X134202177Y-80100000D01*
X134193489Y-80011785D01*
X134167757Y-79926959D01*
X134125971Y-79848784D01*
X134069737Y-79780263D01*
X134001216Y-79724029D01*
X133923041Y-79682243D01*
X133838215Y-79656511D01*
X133750000Y-79647823D01*
X132712500Y-79650000D01*
X132600000Y-79762500D01*
X132400000Y-79762500D01*
X132287500Y-79650000D01*
X131250000Y-79647823D01*
X131161785Y-79656511D01*
X131076959Y-79682243D01*
X130998784Y-79724029D01*
X130930263Y-79780263D01*
X130874029Y-79848784D01*
X130832243Y-79926959D01*
X130806511Y-80011785D01*
X130797823Y-80100000D01*
X113900000Y-80100000D01*
X113900000Y-79062132D01*
X114312132Y-78650000D01*
X133937868Y-78650000D01*
X134350000Y-79062132D01*
G37*
X134350000Y-79062132D02*
X134350000Y-96442670D01*
X134313215Y-96431511D01*
X134225000Y-96422823D01*
X133812500Y-96425000D01*
X133700000Y-96537500D01*
X133700000Y-97650000D01*
X133720000Y-97650000D01*
X133720000Y-97850000D01*
X133700000Y-97850000D01*
X133700000Y-98962500D01*
X133812500Y-99075000D01*
X134210766Y-99077102D01*
X133937868Y-99350000D01*
X124312132Y-99350000D01*
X123587132Y-98625000D01*
X132522823Y-98625000D01*
X132531511Y-98713215D01*
X132557243Y-98798041D01*
X132599029Y-98876216D01*
X132655263Y-98944737D01*
X132723784Y-99000971D01*
X132801959Y-99042757D01*
X132886785Y-99068489D01*
X132975000Y-99077177D01*
X133387500Y-99075000D01*
X133500000Y-98962500D01*
X133500000Y-97850000D01*
X132637500Y-97850000D01*
X132525000Y-97962500D01*
X132522823Y-98625000D01*
X123587132Y-98625000D01*
X121837132Y-96875000D01*
X132522823Y-96875000D01*
X132525000Y-97537500D01*
X132637500Y-97650000D01*
X133500000Y-97650000D01*
X133500000Y-96537500D01*
X133387500Y-96425000D01*
X132975000Y-96422823D01*
X132886785Y-96431511D01*
X132801959Y-96457243D01*
X132723784Y-96499029D01*
X132655263Y-96555263D01*
X132599029Y-96623784D01*
X132557243Y-96701959D01*
X132531511Y-96786785D01*
X132522823Y-96875000D01*
X121837132Y-96875000D01*
X121106066Y-96143934D01*
X121083336Y-96125280D01*
X121057403Y-96111418D01*
X121029264Y-96102882D01*
X121000000Y-96100000D01*
X120381342Y-96100000D01*
X120340109Y-96066161D01*
X120218712Y-96001273D01*
X120086988Y-95961315D01*
X119950000Y-95947823D01*
X118550000Y-95947823D01*
X118413012Y-95961315D01*
X118281288Y-96001273D01*
X118159891Y-96066161D01*
X118118658Y-96100000D01*
X117250000Y-96100000D01*
X117220736Y-96102882D01*
X117192597Y-96111418D01*
X117166664Y-96125280D01*
X117143934Y-96143934D01*
X112687868Y-100600000D01*
X107062132Y-100600000D01*
X106650000Y-100187868D01*
X106650000Y-100018794D01*
X108122628Y-100018794D01*
X108226509Y-100234750D01*
X108482259Y-100361925D01*
X108757906Y-100436762D01*
X109042856Y-100456386D01*
X109326159Y-100420042D01*
X109596928Y-100329125D01*
X109773491Y-100234750D01*
X109877372Y-100018794D01*
X109000000Y-99141421D01*
X108122628Y-100018794D01*
X106650000Y-100018794D01*
X106650000Y-99042856D01*
X107543614Y-99042856D01*
X107579958Y-99326159D01*
X107670875Y-99596928D01*
X107765250Y-99773491D01*
X107981206Y-99877372D01*
X108858579Y-99000000D01*
X109141421Y-99000000D01*
X110018794Y-99877372D01*
X110234750Y-99773491D01*
X110361925Y-99517741D01*
X110436762Y-99242094D01*
X110456386Y-98957144D01*
X110420042Y-98673841D01*
X110329125Y-98403072D01*
X110234750Y-98226509D01*
X110018794Y-98122628D01*
X109141421Y-99000000D01*
X108858579Y-99000000D01*
X107981206Y-98122628D01*
X107765250Y-98226509D01*
X107638075Y-98482259D01*
X107563238Y-98757906D01*
X107543614Y-99042856D01*
X106650000Y-99042856D01*
X106650000Y-97981206D01*
X108122628Y-97981206D01*
X109000000Y-98858579D01*
X109877372Y-97981206D01*
X109773491Y-97765250D01*
X109517741Y-97638075D01*
X109242094Y-97563238D01*
X108957144Y-97543614D01*
X108673841Y-97579958D01*
X108403072Y-97670875D01*
X108226509Y-97765250D01*
X108122628Y-97981206D01*
X106650000Y-97981206D01*
X106650000Y-94900000D01*
X130797823Y-94900000D01*
X130806511Y-94988215D01*
X130832243Y-95073041D01*
X130874029Y-95151216D01*
X130930263Y-95219737D01*
X130998784Y-95275971D01*
X131076959Y-95317757D01*
X131161785Y-95343489D01*
X131250000Y-95352177D01*
X132287500Y-95350000D01*
X132400000Y-95237500D01*
X132400000Y-94100000D01*
X132600000Y-94100000D01*
X132600000Y-95237500D01*
X132712500Y-95350000D01*
X133750000Y-95352177D01*
X133838215Y-95343489D01*
X133923041Y-95317757D01*
X134001216Y-95275971D01*
X134069737Y-95219737D01*
X134125971Y-95151216D01*
X134167757Y-95073041D01*
X134193489Y-94988215D01*
X134202177Y-94900000D01*
X134200000Y-94212500D01*
X134087500Y-94100000D01*
X132600000Y-94100000D01*
X132400000Y-94100000D01*
X130912500Y-94100000D01*
X130800000Y-94212500D01*
X130797823Y-94900000D01*
X106650000Y-94900000D01*
X106650000Y-93600000D01*
X117847823Y-93600000D01*
X117856511Y-93688215D01*
X117882243Y-93773041D01*
X117924029Y-93851216D01*
X117980263Y-93919737D01*
X118048784Y-93975971D01*
X118126959Y-94017757D01*
X118211785Y-94043489D01*
X118300000Y-94052177D01*
X119037500Y-94050000D01*
X119150000Y-93937500D01*
X119150000Y-91625000D01*
X119350000Y-91625000D01*
X119350000Y-93937500D01*
X119462500Y-94050000D01*
X120200000Y-94052177D01*
X120288215Y-94043489D01*
X120373041Y-94017757D01*
X120451216Y-93975971D01*
X120519737Y-93919737D01*
X120575971Y-93851216D01*
X120617757Y-93773041D01*
X120643489Y-93688215D01*
X120652177Y-93600000D01*
X120651593Y-93100000D01*
X130797823Y-93100000D01*
X130800000Y-93787500D01*
X130912500Y-93900000D01*
X132400000Y-93900000D01*
X132400000Y-92762500D01*
X132600000Y-92762500D01*
X132600000Y-93900000D01*
X134087500Y-93900000D01*
X134200000Y-93787500D01*
X134202177Y-93100000D01*
X134193489Y-93011785D01*
X134167757Y-92926959D01*
X134125971Y-92848784D01*
X134069737Y-92780263D01*
X134001216Y-92724029D01*
X133923041Y-92682243D01*
X133838215Y-92656511D01*
X133750000Y-92647823D01*
X132712500Y-92650000D01*
X132600000Y-92762500D01*
X132400000Y-92762500D01*
X132287500Y-92650000D01*
X131250000Y-92647823D01*
X131161785Y-92656511D01*
X131076959Y-92682243D01*
X130998784Y-92724029D01*
X130930263Y-92780263D01*
X130874029Y-92848784D01*
X130832243Y-92926959D01*
X130806511Y-93011785D01*
X130797823Y-93100000D01*
X120651593Y-93100000D01*
X120650000Y-91737500D01*
X120537500Y-91625000D01*
X119350000Y-91625000D01*
X119150000Y-91625000D01*
X117962500Y-91625000D01*
X117850000Y-91737500D01*
X117847823Y-93600000D01*
X106650000Y-93600000D01*
X106650000Y-89450000D01*
X117847823Y-89450000D01*
X117850000Y-91312500D01*
X117962500Y-91425000D01*
X119150000Y-91425000D01*
X119150000Y-89112500D01*
X119350000Y-89112500D01*
X119350000Y-91425000D01*
X120537500Y-91425000D01*
X120650000Y-91312500D01*
X120651066Y-90400000D01*
X126747823Y-90400000D01*
X126756511Y-90488215D01*
X126782243Y-90573041D01*
X126824029Y-90651216D01*
X126880263Y-90719737D01*
X126948784Y-90775971D01*
X127026959Y-90817757D01*
X127111785Y-90843489D01*
X127200000Y-90852177D01*
X130187500Y-90850000D01*
X130300000Y-90737500D01*
X130300000Y-87600000D01*
X130500000Y-87600000D01*
X130500000Y-90737500D01*
X130612500Y-90850000D01*
X133600000Y-90852177D01*
X133688215Y-90843489D01*
X133773041Y-90817757D01*
X133851216Y-90775971D01*
X133919737Y-90719737D01*
X133975971Y-90651216D01*
X134017757Y-90573041D01*
X134043489Y-90488215D01*
X134052177Y-90400000D01*
X134050000Y-87712500D01*
X133937500Y-87600000D01*
X130500000Y-87600000D01*
X130300000Y-87600000D01*
X126862500Y-87600000D01*
X126750000Y-87712500D01*
X126747823Y-90400000D01*
X120651066Y-90400000D01*
X120652177Y-89450000D01*
X120643489Y-89361785D01*
X120617757Y-89276959D01*
X120575971Y-89198784D01*
X120519737Y-89130263D01*
X120451216Y-89074029D01*
X120373041Y-89032243D01*
X120288215Y-89006511D01*
X120200000Y-88997823D01*
X119462500Y-89000000D01*
X119350000Y-89112500D01*
X119150000Y-89112500D01*
X119037500Y-89000000D01*
X118300000Y-88997823D01*
X118211785Y-89006511D01*
X118126959Y-89032243D01*
X118048784Y-89074029D01*
X117980263Y-89130263D01*
X117924029Y-89198784D01*
X117882243Y-89276959D01*
X117856511Y-89361785D01*
X117847823Y-89450000D01*
X106650000Y-89450000D01*
X106650000Y-86812132D01*
X107062132Y-86400000D01*
X112500000Y-86400000D01*
X112529264Y-86397118D01*
X112557403Y-86388582D01*
X112583336Y-86374720D01*
X112606066Y-86356066D01*
X113856066Y-85106066D01*
X113874720Y-85083336D01*
X113888582Y-85057403D01*
X113897118Y-85029264D01*
X113900000Y-85000000D01*
X113900000Y-84600000D01*
X126747823Y-84600000D01*
X126750000Y-87287500D01*
X126862500Y-87400000D01*
X130300000Y-87400000D01*
X130300000Y-84262500D01*
X130500000Y-84262500D01*
X130500000Y-87400000D01*
X133937500Y-87400000D01*
X134050000Y-87287500D01*
X134052177Y-84600000D01*
X134043489Y-84511785D01*
X134017757Y-84426959D01*
X133975971Y-84348784D01*
X133919737Y-84280263D01*
X133851216Y-84224029D01*
X133773041Y-84182243D01*
X133688215Y-84156511D01*
X133600000Y-84147823D01*
X130612500Y-84150000D01*
X130500000Y-84262500D01*
X130300000Y-84262500D01*
X130187500Y-84150000D01*
X127200000Y-84147823D01*
X127111785Y-84156511D01*
X127026959Y-84182243D01*
X126948784Y-84224029D01*
X126880263Y-84280263D01*
X126824029Y-84348784D01*
X126782243Y-84426959D01*
X126756511Y-84511785D01*
X126747823Y-84600000D01*
X113900000Y-84600000D01*
X113900000Y-81900000D01*
X130797823Y-81900000D01*
X130806511Y-81988215D01*
X130832243Y-82073041D01*
X130874029Y-82151216D01*
X130930263Y-82219737D01*
X130998784Y-82275971D01*
X131076959Y-82317757D01*
X131161785Y-82343489D01*
X131250000Y-82352177D01*
X132287500Y-82350000D01*
X132400000Y-82237500D01*
X132400000Y-81100000D01*
X132600000Y-81100000D01*
X132600000Y-82237500D01*
X132712500Y-82350000D01*
X133750000Y-82352177D01*
X133838215Y-82343489D01*
X133923041Y-82317757D01*
X134001216Y-82275971D01*
X134069737Y-82219737D01*
X134125971Y-82151216D01*
X134167757Y-82073041D01*
X134193489Y-81988215D01*
X134202177Y-81900000D01*
X134200000Y-81212500D01*
X134087500Y-81100000D01*
X132600000Y-81100000D01*
X132400000Y-81100000D01*
X130912500Y-81100000D01*
X130800000Y-81212500D01*
X130797823Y-81900000D01*
X113900000Y-81900000D01*
X113900000Y-80100000D01*
X130797823Y-80100000D01*
X130800000Y-80787500D01*
X130912500Y-80900000D01*
X132400000Y-80900000D01*
X132400000Y-79762500D01*
X132600000Y-79762500D01*
X132600000Y-80900000D01*
X134087500Y-80900000D01*
X134200000Y-80787500D01*
X134202177Y-80100000D01*
X134193489Y-80011785D01*
X134167757Y-79926959D01*
X134125971Y-79848784D01*
X134069737Y-79780263D01*
X134001216Y-79724029D01*
X133923041Y-79682243D01*
X133838215Y-79656511D01*
X133750000Y-79647823D01*
X132712500Y-79650000D01*
X132600000Y-79762500D01*
X132400000Y-79762500D01*
X132287500Y-79650000D01*
X131250000Y-79647823D01*
X131161785Y-79656511D01*
X131076959Y-79682243D01*
X130998784Y-79724029D01*
X130930263Y-79780263D01*
X130874029Y-79848784D01*
X130832243Y-79926959D01*
X130806511Y-80011785D01*
X130797823Y-80100000D01*
X113900000Y-80100000D01*
X113900000Y-79062132D01*
X114312132Y-78650000D01*
X133937868Y-78650000D01*
X134350000Y-79062132D01*
G36*
X134350000Y-91350000D02*
G01*
X126400000Y-91350000D01*
X126400000Y-83900000D01*
X134350000Y-83900000D01*
X134350000Y-91350000D01*
G37*
X134350000Y-91350000D02*
X126400000Y-91350000D01*
X126400000Y-83900000D01*
X134350000Y-83900000D01*
X134350000Y-91350000D01*
%TO.N,GND*%
G36*
X154173260Y-78164860D02*
G01*
X153664860Y-78673260D01*
X153265412Y-79271077D01*
X152990267Y-79935334D01*
X152850000Y-80640506D01*
X152850000Y-81359494D01*
X152990267Y-82064666D01*
X153265412Y-82728923D01*
X153664860Y-83326740D01*
X154173260Y-83835140D01*
X154771077Y-84234588D01*
X155435334Y-84509733D01*
X156140506Y-84650000D01*
X156859494Y-84650000D01*
X157564666Y-84509733D01*
X158228923Y-84234588D01*
X158826740Y-83835140D01*
X159335140Y-83326740D01*
X159525000Y-83042594D01*
X159525001Y-121957407D01*
X159335140Y-121673260D01*
X158826740Y-121164860D01*
X158228923Y-120765412D01*
X157564666Y-120490267D01*
X156859494Y-120350000D01*
X156140506Y-120350000D01*
X155435334Y-120490267D01*
X154771077Y-120765412D01*
X154173260Y-121164860D01*
X153664860Y-121673260D01*
X153265412Y-122271077D01*
X152990267Y-122935334D01*
X152850000Y-123640506D01*
X152850000Y-124359494D01*
X152990267Y-125064666D01*
X153265412Y-125728923D01*
X153664860Y-126326740D01*
X154173260Y-126835140D01*
X154457406Y-127025000D01*
X110542594Y-127025000D01*
X110826740Y-126835140D01*
X111335140Y-126326740D01*
X111734588Y-125728923D01*
X112009733Y-125064666D01*
X112150000Y-124359494D01*
X112150000Y-123640506D01*
X112009733Y-122935334D01*
X111734588Y-122271077D01*
X111335140Y-121673260D01*
X110826740Y-121164860D01*
X110228923Y-120765412D01*
X109564666Y-120490267D01*
X108859494Y-120350000D01*
X108140506Y-120350000D01*
X107435334Y-120490267D01*
X106771077Y-120765412D01*
X106173260Y-121164860D01*
X105664860Y-121673260D01*
X105475000Y-121957406D01*
X105475000Y-105857187D01*
X107550000Y-105857187D01*
X107550000Y-106142813D01*
X107605723Y-106422949D01*
X107715027Y-106686833D01*
X107873711Y-106924321D01*
X108075679Y-107126289D01*
X108313167Y-107284973D01*
X108577051Y-107394277D01*
X108857187Y-107450000D01*
X109106498Y-107450000D01*
X115770254Y-114113757D01*
X115799999Y-114150001D01*
X115836242Y-114179745D01*
X115836245Y-114179748D01*
X115913951Y-114243520D01*
X115944655Y-114268718D01*
X116109692Y-114356932D01*
X116288768Y-114411254D01*
X116428335Y-114425000D01*
X116428344Y-114425000D01*
X116474999Y-114429595D01*
X116521654Y-114425000D01*
X117847823Y-114425000D01*
X117847823Y-115300000D01*
X117861315Y-115436988D01*
X117901273Y-115568712D01*
X117966161Y-115690109D01*
X118053486Y-115796514D01*
X118159891Y-115883839D01*
X118281288Y-115948727D01*
X118300001Y-115954403D01*
X118300001Y-116453336D01*
X118295405Y-116500000D01*
X118313747Y-116686232D01*
X118368069Y-116865308D01*
X118456283Y-117030345D01*
X118545252Y-117138754D01*
X118545256Y-117138758D01*
X118575000Y-117175001D01*
X118611243Y-117204745D01*
X119795254Y-118388757D01*
X119824999Y-118425001D01*
X119861242Y-118454745D01*
X119861245Y-118454748D01*
X119896080Y-118483336D01*
X119969655Y-118543718D01*
X120134692Y-118631932D01*
X120313768Y-118686254D01*
X120453335Y-118700000D01*
X120453345Y-118700000D01*
X120500000Y-118704595D01*
X120546654Y-118700000D01*
X124897823Y-118700000D01*
X124897823Y-119000000D01*
X124906511Y-119088215D01*
X124932243Y-119173041D01*
X124974029Y-119251216D01*
X125030263Y-119319737D01*
X125098784Y-119375971D01*
X125176959Y-119417757D01*
X125261785Y-119443489D01*
X125350000Y-119452177D01*
X127150000Y-119452177D01*
X127238215Y-119443489D01*
X127323041Y-119417757D01*
X127401216Y-119375971D01*
X127469737Y-119319737D01*
X127525971Y-119251216D01*
X127567757Y-119173041D01*
X127593489Y-119088215D01*
X127602177Y-119000000D01*
X127602177Y-118100000D01*
X129224121Y-118100000D01*
X129234891Y-118108839D01*
X129356288Y-118173727D01*
X129488012Y-118213685D01*
X129625000Y-118227177D01*
X130875000Y-118227177D01*
X131011988Y-118213685D01*
X131143712Y-118173727D01*
X131265109Y-118108839D01*
X131275879Y-118100000D01*
X132026498Y-118100000D01*
X132247823Y-118321325D01*
X132247823Y-119130000D01*
X132256511Y-119218215D01*
X132282243Y-119303041D01*
X132324029Y-119381216D01*
X132380263Y-119449737D01*
X132448784Y-119505971D01*
X132526959Y-119547757D01*
X132611785Y-119573489D01*
X132700000Y-119582177D01*
X132850000Y-119582177D01*
X132850001Y-121147823D01*
X132750000Y-121147823D01*
X132661785Y-121156511D01*
X132576959Y-121182243D01*
X132498784Y-121224029D01*
X132430263Y-121280263D01*
X132374029Y-121348784D01*
X132332243Y-121426959D01*
X132306511Y-121511785D01*
X132297823Y-121600000D01*
X132297823Y-123400000D01*
X132306511Y-123488215D01*
X132332243Y-123573041D01*
X132374029Y-123651216D01*
X132430263Y-123719737D01*
X132498784Y-123775971D01*
X132576959Y-123817757D01*
X132661785Y-123843489D01*
X132750000Y-123852177D01*
X135250000Y-123852177D01*
X135338215Y-123843489D01*
X135423041Y-123817757D01*
X135501216Y-123775971D01*
X135550000Y-123735935D01*
X135550000Y-125250000D01*
X135558647Y-125337791D01*
X135584254Y-125422208D01*
X135625839Y-125500007D01*
X135681802Y-125568198D01*
X136181802Y-126068198D01*
X136249993Y-126124161D01*
X136327792Y-126165746D01*
X136412209Y-126191353D01*
X136500000Y-126200000D01*
X150750000Y-126200000D01*
X150837791Y-126191353D01*
X150922208Y-126165746D01*
X151000007Y-126124161D01*
X151068198Y-126068198D01*
X151568198Y-125568198D01*
X151624161Y-125500007D01*
X151665746Y-125422208D01*
X151691353Y-125337791D01*
X151700000Y-125250000D01*
X151700000Y-121436396D01*
X153936396Y-119200000D01*
X158000000Y-119200000D01*
X158087791Y-119191353D01*
X158172208Y-119165746D01*
X158250007Y-119124161D01*
X158318198Y-119068198D01*
X158818198Y-118568198D01*
X158874161Y-118500007D01*
X158915746Y-118422208D01*
X158941353Y-118337791D01*
X158950000Y-118250000D01*
X158950000Y-104750000D01*
X158941353Y-104662209D01*
X158915746Y-104577792D01*
X158874161Y-104499993D01*
X158818198Y-104431802D01*
X158318198Y-103931802D01*
X158250007Y-103875839D01*
X158172208Y-103834254D01*
X158087791Y-103808647D01*
X158000000Y-103800000D01*
X156651417Y-103800000D01*
X156773491Y-103734750D01*
X156877372Y-103518794D01*
X156000000Y-102641421D01*
X155122628Y-103518794D01*
X155226509Y-103734750D01*
X155357727Y-103800000D01*
X147750000Y-103800000D01*
X147662209Y-103808647D01*
X147577792Y-103834254D01*
X147499993Y-103875839D01*
X147431802Y-103931802D01*
X144245466Y-107118138D01*
X144252177Y-107050000D01*
X144250000Y-105762500D01*
X144137500Y-105650000D01*
X143100000Y-105650000D01*
X143100000Y-105670000D01*
X142900000Y-105670000D01*
X142900000Y-105650000D01*
X141862500Y-105650000D01*
X141750000Y-105762500D01*
X141747823Y-107050000D01*
X141756511Y-107138215D01*
X141782243Y-107223041D01*
X141823379Y-107300000D01*
X140500000Y-107300000D01*
X140412209Y-107308647D01*
X140327792Y-107334254D01*
X140249993Y-107375839D01*
X140181802Y-107431802D01*
X139320466Y-108293138D01*
X139327177Y-108225000D01*
X139325000Y-107812500D01*
X139212500Y-107700000D01*
X138100000Y-107700000D01*
X138100000Y-107720000D01*
X137900000Y-107720000D01*
X137900000Y-107700000D01*
X136787500Y-107700000D01*
X136675000Y-107812500D01*
X136672823Y-108225000D01*
X136681511Y-108313215D01*
X136707243Y-108398041D01*
X136749029Y-108476216D01*
X136805263Y-108544737D01*
X136811676Y-108550000D01*
X136500000Y-108550000D01*
X136412209Y-108558647D01*
X136327792Y-108584254D01*
X136249993Y-108625839D01*
X136181802Y-108681802D01*
X135908000Y-108955604D01*
X135908000Y-108500000D01*
X135895357Y-108371631D01*
X135857913Y-108248194D01*
X135797107Y-108134435D01*
X135715276Y-108034724D01*
X134655552Y-106975000D01*
X136672823Y-106975000D01*
X136675000Y-107387500D01*
X136787500Y-107500000D01*
X137900000Y-107500000D01*
X137900000Y-106637500D01*
X138100000Y-106637500D01*
X138100000Y-107500000D01*
X139212500Y-107500000D01*
X139325000Y-107387500D01*
X139327177Y-106975000D01*
X139318489Y-106886785D01*
X139292757Y-106801959D01*
X139250971Y-106723784D01*
X139194737Y-106655263D01*
X139126216Y-106599029D01*
X139048041Y-106557243D01*
X138963215Y-106531511D01*
X138875000Y-106522823D01*
X138212500Y-106525000D01*
X138100000Y-106637500D01*
X137900000Y-106637500D01*
X137787500Y-106525000D01*
X137125000Y-106522823D01*
X137036785Y-106531511D01*
X136951959Y-106557243D01*
X136873784Y-106599029D01*
X136805263Y-106655263D01*
X136749029Y-106723784D01*
X136707243Y-106801959D01*
X136681511Y-106886785D01*
X136672823Y-106975000D01*
X134655552Y-106975000D01*
X134465276Y-106784724D01*
X134365565Y-106702893D01*
X134251806Y-106642087D01*
X134128369Y-106604643D01*
X134000000Y-106592000D01*
X130500000Y-106592000D01*
X130371631Y-106604643D01*
X130248194Y-106642087D01*
X130134435Y-106702893D01*
X130034724Y-106784724D01*
X128977448Y-107842000D01*
X127387147Y-107842000D01*
X127444737Y-107794737D01*
X127500971Y-107726216D01*
X127542757Y-107648041D01*
X127568489Y-107563215D01*
X127577177Y-107475000D01*
X127575000Y-107062500D01*
X127462500Y-106950000D01*
X126350000Y-106950000D01*
X126350000Y-106970000D01*
X126150000Y-106970000D01*
X126150000Y-106950000D01*
X125037500Y-106950000D01*
X124925000Y-107062500D01*
X124922823Y-107475000D01*
X124931511Y-107563215D01*
X124957243Y-107648041D01*
X124999029Y-107726216D01*
X125055263Y-107794737D01*
X125123784Y-107850971D01*
X125129250Y-107853893D01*
X125121631Y-107854643D01*
X124998194Y-107892087D01*
X124884435Y-107952893D01*
X124784724Y-108034724D01*
X124284724Y-108534724D01*
X124202893Y-108634435D01*
X124142087Y-108748194D01*
X124104643Y-108871631D01*
X124092000Y-109000000D01*
X124092000Y-115250000D01*
X124104643Y-115378369D01*
X124142087Y-115501806D01*
X124202893Y-115615565D01*
X124284724Y-115715276D01*
X124784724Y-116215276D01*
X124884435Y-116297107D01*
X124934030Y-116323616D01*
X124932243Y-116326959D01*
X124906511Y-116411785D01*
X124897823Y-116500000D01*
X124897823Y-116800000D01*
X120893503Y-116800000D01*
X120200000Y-116106498D01*
X120200000Y-115954403D01*
X120218712Y-115948727D01*
X120340109Y-115883839D01*
X120446514Y-115796514D01*
X120533839Y-115690109D01*
X120598727Y-115568712D01*
X120638685Y-115436988D01*
X120652177Y-115300000D01*
X120652177Y-111650000D01*
X120638685Y-111513012D01*
X120598727Y-111381288D01*
X120533839Y-111259891D01*
X120446514Y-111153486D01*
X120340109Y-111066161D01*
X120218712Y-111001273D01*
X120086988Y-110961315D01*
X119950000Y-110947823D01*
X118550000Y-110947823D01*
X118413012Y-110961315D01*
X118281288Y-111001273D01*
X118159891Y-111066161D01*
X118053486Y-111153486D01*
X117966161Y-111259891D01*
X117901273Y-111381288D01*
X117861315Y-111513012D01*
X117847823Y-111650000D01*
X117847823Y-112525000D01*
X116868503Y-112525000D01*
X112943503Y-108600000D01*
X117847823Y-108600000D01*
X117856511Y-108688215D01*
X117882243Y-108773041D01*
X117924029Y-108851216D01*
X117980263Y-108919737D01*
X118048784Y-108975971D01*
X118126959Y-109017757D01*
X118211785Y-109043489D01*
X118300000Y-109052177D01*
X119037500Y-109050000D01*
X119150000Y-108937500D01*
X119150000Y-106625000D01*
X119350000Y-106625000D01*
X119350000Y-108937500D01*
X119462500Y-109050000D01*
X120200000Y-109052177D01*
X120288215Y-109043489D01*
X120373041Y-109017757D01*
X120451216Y-108975971D01*
X120519737Y-108919737D01*
X120575971Y-108851216D01*
X120617757Y-108773041D01*
X120643489Y-108688215D01*
X120652177Y-108600000D01*
X120650000Y-106737500D01*
X120537500Y-106625000D01*
X119350000Y-106625000D01*
X119150000Y-106625000D01*
X117962500Y-106625000D01*
X117850000Y-106737500D01*
X117847823Y-108600000D01*
X112943503Y-108600000D01*
X110450000Y-106106498D01*
X110450000Y-105857187D01*
X110394277Y-105577051D01*
X110284973Y-105313167D01*
X110126289Y-105075679D01*
X109924321Y-104873711D01*
X109686833Y-104715027D01*
X109422949Y-104605723D01*
X109142813Y-104550000D01*
X108857187Y-104550000D01*
X108577051Y-104605723D01*
X108313167Y-104715027D01*
X108075679Y-104873711D01*
X107873711Y-105075679D01*
X107715027Y-105313167D01*
X107605723Y-105577051D01*
X107550000Y-105857187D01*
X105475000Y-105857187D01*
X105475000Y-104450000D01*
X117847823Y-104450000D01*
X117850000Y-106312500D01*
X117962500Y-106425000D01*
X119150000Y-106425000D01*
X119150000Y-104112500D01*
X119350000Y-104112500D01*
X119350000Y-106425000D01*
X120537500Y-106425000D01*
X120650000Y-106312500D01*
X120650102Y-106225000D01*
X124922823Y-106225000D01*
X124925000Y-106637500D01*
X125037500Y-106750000D01*
X126150000Y-106750000D01*
X126150000Y-105887500D01*
X126350000Y-105887500D01*
X126350000Y-106750000D01*
X127462500Y-106750000D01*
X127575000Y-106637500D01*
X127577177Y-106225000D01*
X127568489Y-106136785D01*
X127542757Y-106051959D01*
X127500971Y-105973784D01*
X127444737Y-105905263D01*
X127376216Y-105849029D01*
X127298041Y-105807243D01*
X127213215Y-105781511D01*
X127125000Y-105772823D01*
X126462500Y-105775000D01*
X126350000Y-105887500D01*
X126150000Y-105887500D01*
X126037500Y-105775000D01*
X125375000Y-105772823D01*
X125286785Y-105781511D01*
X125201959Y-105807243D01*
X125123784Y-105849029D01*
X125055263Y-105905263D01*
X124999029Y-105973784D01*
X124957243Y-106051959D01*
X124931511Y-106136785D01*
X124922823Y-106225000D01*
X120650102Y-106225000D01*
X120650715Y-105700000D01*
X130997823Y-105700000D01*
X131006511Y-105788215D01*
X131032243Y-105873041D01*
X131074029Y-105951216D01*
X131130263Y-106019737D01*
X131198784Y-106075971D01*
X131276959Y-106117757D01*
X131361785Y-106143489D01*
X131450000Y-106152177D01*
X132037500Y-106150000D01*
X132150000Y-106037500D01*
X132150000Y-104050000D01*
X132350000Y-104050000D01*
X132350000Y-106037500D01*
X132462500Y-106150000D01*
X133050000Y-106152177D01*
X133138215Y-106143489D01*
X133223041Y-106117757D01*
X133301216Y-106075971D01*
X133369737Y-106019737D01*
X133425971Y-105951216D01*
X133467757Y-105873041D01*
X133493489Y-105788215D01*
X133502177Y-105700000D01*
X133500000Y-104162500D01*
X133387500Y-104050000D01*
X141747823Y-104050000D01*
X141750000Y-105337500D01*
X141862500Y-105450000D01*
X142900000Y-105450000D01*
X142900000Y-103712500D01*
X143100000Y-103712500D01*
X143100000Y-105450000D01*
X144137500Y-105450000D01*
X144250000Y-105337500D01*
X144252177Y-104050000D01*
X144243489Y-103961785D01*
X144217757Y-103876959D01*
X144175971Y-103798784D01*
X144119737Y-103730263D01*
X144051216Y-103674029D01*
X143973041Y-103632243D01*
X143888215Y-103606511D01*
X143800000Y-103597823D01*
X143212500Y-103600000D01*
X143100000Y-103712500D01*
X142900000Y-103712500D01*
X142787500Y-103600000D01*
X142200000Y-103597823D01*
X142111785Y-103606511D01*
X142026959Y-103632243D01*
X141948784Y-103674029D01*
X141880263Y-103730263D01*
X141824029Y-103798784D01*
X141782243Y-103876959D01*
X141756511Y-103961785D01*
X141747823Y-104050000D01*
X133387500Y-104050000D01*
X132350000Y-104050000D01*
X132150000Y-104050000D01*
X131112500Y-104050000D01*
X131000000Y-104162500D01*
X130997823Y-105700000D01*
X120650715Y-105700000D01*
X120652177Y-104450000D01*
X120643489Y-104361785D01*
X120617757Y-104276959D01*
X120575971Y-104198784D01*
X120519737Y-104130263D01*
X120451216Y-104074029D01*
X120373041Y-104032243D01*
X120288215Y-104006511D01*
X120200000Y-103997823D01*
X119462500Y-104000000D01*
X119350000Y-104112500D01*
X119150000Y-104112500D01*
X119037500Y-104000000D01*
X118300000Y-103997823D01*
X118211785Y-104006511D01*
X118126959Y-104032243D01*
X118048784Y-104074029D01*
X117980263Y-104130263D01*
X117924029Y-104198784D01*
X117882243Y-104276959D01*
X117856511Y-104361785D01*
X117847823Y-104450000D01*
X105475000Y-104450000D01*
X105475000Y-103518794D01*
X108122628Y-103518794D01*
X108226509Y-103734750D01*
X108482259Y-103861925D01*
X108757906Y-103936762D01*
X109042856Y-103956386D01*
X109326159Y-103920042D01*
X109596928Y-103829125D01*
X109773491Y-103734750D01*
X109877372Y-103518794D01*
X109000000Y-102641421D01*
X108122628Y-103518794D01*
X105475000Y-103518794D01*
X105475000Y-102542856D01*
X107543614Y-102542856D01*
X107579958Y-102826159D01*
X107670875Y-103096928D01*
X107765250Y-103273491D01*
X107981206Y-103377372D01*
X108858579Y-102500000D01*
X109141421Y-102500000D01*
X110018794Y-103377372D01*
X110234750Y-103273491D01*
X110361925Y-103017741D01*
X110436762Y-102742094D01*
X110456386Y-102457144D01*
X110423398Y-102200000D01*
X130997823Y-102200000D01*
X131000000Y-103737500D01*
X131112500Y-103850000D01*
X132150000Y-103850000D01*
X132150000Y-101862500D01*
X132350000Y-101862500D01*
X132350000Y-103850000D01*
X133387500Y-103850000D01*
X133500000Y-103737500D01*
X133501691Y-102542856D01*
X154543614Y-102542856D01*
X154579958Y-102826159D01*
X154670875Y-103096928D01*
X154765250Y-103273491D01*
X154981206Y-103377372D01*
X155858579Y-102500000D01*
X156141421Y-102500000D01*
X157018794Y-103377372D01*
X157234750Y-103273491D01*
X157361925Y-103017741D01*
X157436762Y-102742094D01*
X157456386Y-102457144D01*
X157420042Y-102173841D01*
X157329125Y-101903072D01*
X157234750Y-101726509D01*
X157018794Y-101622628D01*
X156141421Y-102500000D01*
X155858579Y-102500000D01*
X154981206Y-101622628D01*
X154765250Y-101726509D01*
X154638075Y-101982259D01*
X154563238Y-102257906D01*
X154543614Y-102542856D01*
X133501691Y-102542856D01*
X133502177Y-102200000D01*
X133493489Y-102111785D01*
X133467757Y-102026959D01*
X133425971Y-101948784D01*
X133369737Y-101880263D01*
X133301216Y-101824029D01*
X133223041Y-101782243D01*
X133138215Y-101756511D01*
X133050000Y-101747823D01*
X132462500Y-101750000D01*
X132350000Y-101862500D01*
X132150000Y-101862500D01*
X132037500Y-101750000D01*
X131450000Y-101747823D01*
X131361785Y-101756511D01*
X131276959Y-101782243D01*
X131198784Y-101824029D01*
X131130263Y-101880263D01*
X131074029Y-101948784D01*
X131032243Y-102026959D01*
X131006511Y-102111785D01*
X130997823Y-102200000D01*
X110423398Y-102200000D01*
X110420042Y-102173841D01*
X110329125Y-101903072D01*
X110234750Y-101726509D01*
X110018794Y-101622628D01*
X109141421Y-102500000D01*
X108858579Y-102500000D01*
X107981206Y-101622628D01*
X107765250Y-101726509D01*
X107638075Y-101982259D01*
X107563238Y-102257906D01*
X107543614Y-102542856D01*
X105475000Y-102542856D01*
X105475000Y-86750000D01*
X106050000Y-86750000D01*
X106050000Y-100250000D01*
X106058647Y-100337791D01*
X106084254Y-100422208D01*
X106125839Y-100500007D01*
X106181802Y-100568198D01*
X106681802Y-101068198D01*
X106749993Y-101124161D01*
X106827792Y-101165746D01*
X106912209Y-101191353D01*
X107000000Y-101200000D01*
X108348583Y-101200000D01*
X108226509Y-101265250D01*
X108122628Y-101481206D01*
X109000000Y-102358579D01*
X109877372Y-101481206D01*
X155122628Y-101481206D01*
X156000000Y-102358579D01*
X156877372Y-101481206D01*
X156773491Y-101265250D01*
X156517741Y-101138075D01*
X156242094Y-101063238D01*
X155957144Y-101043614D01*
X155673841Y-101079958D01*
X155403072Y-101170875D01*
X155226509Y-101265250D01*
X155122628Y-101481206D01*
X109877372Y-101481206D01*
X109773491Y-101265250D01*
X109642273Y-101200000D01*
X112750000Y-101200000D01*
X112837791Y-101191353D01*
X112922208Y-101165746D01*
X113000007Y-101124161D01*
X113068198Y-101068198D01*
X113586396Y-100550000D01*
X117847823Y-100550000D01*
X117856511Y-100638215D01*
X117882243Y-100723041D01*
X117924029Y-100801216D01*
X117980263Y-100869737D01*
X118048784Y-100925971D01*
X118126959Y-100967757D01*
X118211785Y-100993489D01*
X118300000Y-101002177D01*
X119037500Y-101000000D01*
X119150000Y-100887500D01*
X119150000Y-98575000D01*
X119350000Y-98575000D01*
X119350000Y-100887500D01*
X119462500Y-101000000D01*
X120200000Y-101002177D01*
X120288215Y-100993489D01*
X120373041Y-100967757D01*
X120451216Y-100925971D01*
X120519737Y-100869737D01*
X120575971Y-100801216D01*
X120617757Y-100723041D01*
X120643489Y-100638215D01*
X120652177Y-100550000D01*
X120650000Y-98687500D01*
X120537500Y-98575000D01*
X119350000Y-98575000D01*
X119150000Y-98575000D01*
X117962500Y-98575000D01*
X117850000Y-98687500D01*
X117847823Y-100550000D01*
X113586396Y-100550000D01*
X117436396Y-96700000D01*
X117848174Y-96700000D01*
X117850000Y-98262500D01*
X117962500Y-98375000D01*
X119150000Y-98375000D01*
X119150000Y-98355000D01*
X119350000Y-98355000D01*
X119350000Y-98375000D01*
X120537500Y-98375000D01*
X120650000Y-98262500D01*
X120651826Y-96700000D01*
X120813604Y-96700000D01*
X123931802Y-99818198D01*
X123999993Y-99874161D01*
X124077792Y-99915746D01*
X124162209Y-99941353D01*
X124250000Y-99950000D01*
X134000000Y-99950000D01*
X134087791Y-99941353D01*
X134172208Y-99915746D01*
X134250007Y-99874161D01*
X134318198Y-99818198D01*
X134818198Y-99318198D01*
X134849502Y-99280054D01*
X135034724Y-99465276D01*
X135134435Y-99547107D01*
X135248194Y-99607913D01*
X135371631Y-99645357D01*
X135500000Y-99658000D01*
X142250000Y-99658000D01*
X142378369Y-99645357D01*
X142501806Y-99607913D01*
X142615565Y-99547107D01*
X142715276Y-99465276D01*
X144215276Y-97965276D01*
X144297107Y-97865565D01*
X144357913Y-97751806D01*
X144395357Y-97628369D01*
X144408000Y-97500000D01*
X144408000Y-96550000D01*
X144847823Y-96550000D01*
X144856511Y-96638215D01*
X144882243Y-96723041D01*
X144924029Y-96801216D01*
X144980263Y-96869737D01*
X145048784Y-96925971D01*
X145126959Y-96967757D01*
X145211785Y-96993489D01*
X145300000Y-97002177D01*
X146837500Y-97000000D01*
X146950000Y-96887500D01*
X146950000Y-95850000D01*
X147150000Y-95850000D01*
X147150000Y-96887500D01*
X147262500Y-97000000D01*
X148800000Y-97002177D01*
X148888215Y-96993489D01*
X148973041Y-96967757D01*
X149051216Y-96925971D01*
X149119737Y-96869737D01*
X149175971Y-96801216D01*
X149217757Y-96723041D01*
X149243489Y-96638215D01*
X149252177Y-96550000D01*
X149250000Y-95962500D01*
X149137500Y-95850000D01*
X147150000Y-95850000D01*
X146950000Y-95850000D01*
X144962500Y-95850000D01*
X144850000Y-95962500D01*
X144847823Y-96550000D01*
X144408000Y-96550000D01*
X144408000Y-94950000D01*
X144847823Y-94950000D01*
X144850000Y-95537500D01*
X144962500Y-95650000D01*
X146950000Y-95650000D01*
X146950000Y-94612500D01*
X147150000Y-94612500D01*
X147150000Y-95650000D01*
X149137500Y-95650000D01*
X149250000Y-95537500D01*
X149252177Y-94950000D01*
X149243489Y-94861785D01*
X149217757Y-94776959D01*
X149175971Y-94698784D01*
X149119737Y-94630263D01*
X149051216Y-94574029D01*
X148973041Y-94532243D01*
X148888215Y-94506511D01*
X148800000Y-94497823D01*
X147262500Y-94500000D01*
X147150000Y-94612500D01*
X146950000Y-94612500D01*
X146837500Y-94500000D01*
X145300000Y-94497823D01*
X145211785Y-94506511D01*
X145126959Y-94532243D01*
X145048784Y-94574029D01*
X144980263Y-94630263D01*
X144924029Y-94698784D01*
X144882243Y-94776959D01*
X144856511Y-94861785D01*
X144847823Y-94950000D01*
X144408000Y-94950000D01*
X144408000Y-93250000D01*
X144395357Y-93121631D01*
X144357913Y-92998194D01*
X144297107Y-92884435D01*
X144215276Y-92784724D01*
X142908000Y-91477448D01*
X142908000Y-91059757D01*
X142936785Y-91068489D01*
X143025000Y-91077177D01*
X143437500Y-91075000D01*
X143550000Y-90962500D01*
X143550000Y-89850000D01*
X143750000Y-89850000D01*
X143750000Y-90962500D01*
X143862500Y-91075000D01*
X144275000Y-91077177D01*
X144363215Y-91068489D01*
X144448041Y-91042757D01*
X144526216Y-91000971D01*
X144594737Y-90944737D01*
X144650971Y-90876216D01*
X144692757Y-90798041D01*
X144718489Y-90713215D01*
X144727177Y-90625000D01*
X144725000Y-89962500D01*
X144612500Y-89850000D01*
X143750000Y-89850000D01*
X143550000Y-89850000D01*
X143530000Y-89850000D01*
X143530000Y-89650000D01*
X143550000Y-89650000D01*
X143550000Y-88537500D01*
X143750000Y-88537500D01*
X143750000Y-89650000D01*
X144612500Y-89650000D01*
X144725000Y-89537500D01*
X144727177Y-88875000D01*
X144718489Y-88786785D01*
X144692757Y-88701959D01*
X144650971Y-88623784D01*
X144594737Y-88555263D01*
X144526216Y-88499029D01*
X144448041Y-88457243D01*
X144363215Y-88431511D01*
X144275000Y-88422823D01*
X143862500Y-88425000D01*
X143750000Y-88537500D01*
X143550000Y-88537500D01*
X143437500Y-88425000D01*
X143025000Y-88422823D01*
X142936785Y-88431511D01*
X142902285Y-88441976D01*
X142895357Y-88371631D01*
X142857913Y-88248194D01*
X142797107Y-88134435D01*
X142715276Y-88034724D01*
X142215276Y-87534724D01*
X142115565Y-87452893D01*
X142001806Y-87392087D01*
X141878369Y-87354643D01*
X141750000Y-87342000D01*
X135500000Y-87342000D01*
X135371631Y-87354643D01*
X135248194Y-87392087D01*
X135134435Y-87452893D01*
X135034724Y-87534724D01*
X134950000Y-87619448D01*
X134950000Y-82235935D01*
X134998784Y-82275971D01*
X135076959Y-82317757D01*
X135161785Y-82343489D01*
X135250000Y-82352177D01*
X135550000Y-82352177D01*
X135550001Y-84172747D01*
X135511785Y-84176511D01*
X135426959Y-84202243D01*
X135348784Y-84244029D01*
X135280263Y-84300263D01*
X135224029Y-84368784D01*
X135182243Y-84446959D01*
X135156511Y-84531785D01*
X135147823Y-84620000D01*
X135147823Y-85820000D01*
X135156511Y-85908215D01*
X135182243Y-85993041D01*
X135224029Y-86071216D01*
X135280263Y-86139737D01*
X135348784Y-86195971D01*
X135426959Y-86237757D01*
X135511785Y-86263489D01*
X135600000Y-86272177D01*
X137800000Y-86272177D01*
X137888215Y-86263489D01*
X137973041Y-86237757D01*
X138051216Y-86195971D01*
X138082862Y-86170000D01*
X139545175Y-86170000D01*
X139628486Y-86271514D01*
X139734891Y-86358839D01*
X139856288Y-86423727D01*
X139988012Y-86463685D01*
X140125000Y-86477177D01*
X141375000Y-86477177D01*
X141511988Y-86463685D01*
X141643712Y-86423727D01*
X141688102Y-86400000D01*
X145247823Y-86400000D01*
X145247823Y-86700000D01*
X145261315Y-86836988D01*
X145301273Y-86968712D01*
X145366161Y-87090109D01*
X145453486Y-87196514D01*
X145559891Y-87283839D01*
X145681288Y-87348727D01*
X145813012Y-87388685D01*
X145950000Y-87402177D01*
X147050000Y-87402177D01*
X147186988Y-87388685D01*
X147318712Y-87348727D01*
X147440109Y-87283839D01*
X147546514Y-87196514D01*
X147633839Y-87090109D01*
X147698727Y-86968712D01*
X147738685Y-86836988D01*
X147752177Y-86700000D01*
X147752177Y-86400000D01*
X149056498Y-86400000D01*
X149800001Y-87143504D01*
X149800000Y-89203345D01*
X149795405Y-89250000D01*
X149800000Y-89296654D01*
X149800000Y-89296664D01*
X149813746Y-89436231D01*
X149868068Y-89615307D01*
X149956282Y-89780345D01*
X150074999Y-89925001D01*
X150111248Y-89954750D01*
X155050001Y-94893504D01*
X155050000Y-97899390D01*
X154873711Y-98075679D01*
X154715027Y-98313167D01*
X154605723Y-98577051D01*
X154550000Y-98857187D01*
X154550000Y-99142813D01*
X154605723Y-99422949D01*
X154715027Y-99686833D01*
X154873711Y-99924321D01*
X155075679Y-100126289D01*
X155313167Y-100284973D01*
X155577051Y-100394277D01*
X155857187Y-100450000D01*
X156142813Y-100450000D01*
X156422949Y-100394277D01*
X156686833Y-100284973D01*
X156924321Y-100126289D01*
X157126289Y-99924321D01*
X157284973Y-99686833D01*
X157394277Y-99422949D01*
X157450000Y-99142813D01*
X157450000Y-98857187D01*
X157394277Y-98577051D01*
X157284973Y-98313167D01*
X157126289Y-98075679D01*
X156950000Y-97899390D01*
X156950000Y-94546654D01*
X156954595Y-94499999D01*
X156950000Y-94453345D01*
X156950000Y-94453335D01*
X156936254Y-94313768D01*
X156881932Y-94134692D01*
X156793718Y-93969655D01*
X156675001Y-93824999D01*
X156638757Y-93795254D01*
X151700000Y-88856498D01*
X151700000Y-86796657D01*
X151704595Y-86750000D01*
X151700000Y-86703343D01*
X151700000Y-86703335D01*
X151686254Y-86563768D01*
X151659987Y-86477177D01*
X151631932Y-86384691D01*
X151577005Y-86281931D01*
X151543718Y-86219655D01*
X151425001Y-86074999D01*
X151388757Y-86045254D01*
X150154748Y-84811246D01*
X150125001Y-84774999D01*
X149980345Y-84656282D01*
X149815308Y-84568068D01*
X149636232Y-84513746D01*
X149496665Y-84500000D01*
X149496654Y-84500000D01*
X149450000Y-84495405D01*
X149403346Y-84500000D01*
X147752177Y-84500000D01*
X147752177Y-84200000D01*
X147738685Y-84063012D01*
X147698727Y-83931288D01*
X147633839Y-83809891D01*
X147546514Y-83703486D01*
X147440109Y-83616161D01*
X147318712Y-83551273D01*
X147186988Y-83511315D01*
X147050000Y-83497823D01*
X145950000Y-83497823D01*
X145813012Y-83511315D01*
X145681288Y-83551273D01*
X145559891Y-83616161D01*
X145453486Y-83703486D01*
X145366161Y-83809891D01*
X145301273Y-83931288D01*
X145261315Y-84063012D01*
X145247823Y-84200000D01*
X145247823Y-84500000D01*
X141836804Y-84500000D01*
X141765109Y-84441161D01*
X141643712Y-84376273D01*
X141511988Y-84336315D01*
X141375000Y-84322823D01*
X140885052Y-84322823D01*
X140756232Y-84283746D01*
X140616665Y-84270000D01*
X140616654Y-84270000D01*
X140570000Y-84265405D01*
X140523346Y-84270000D01*
X138082862Y-84270000D01*
X138051216Y-84244029D01*
X137973041Y-84202243D01*
X137888215Y-84176511D01*
X137800000Y-84167823D01*
X137450000Y-84167823D01*
X137450000Y-83225000D01*
X139422823Y-83225000D01*
X139431511Y-83313215D01*
X139457243Y-83398041D01*
X139499029Y-83476216D01*
X139555263Y-83544737D01*
X139623784Y-83600971D01*
X139701959Y-83642757D01*
X139786785Y-83668489D01*
X139875000Y-83677177D01*
X140537500Y-83675000D01*
X140650000Y-83562500D01*
X140650000Y-82700000D01*
X140850000Y-82700000D01*
X140850000Y-83562500D01*
X140962500Y-83675000D01*
X141625000Y-83677177D01*
X141713215Y-83668489D01*
X141798041Y-83642757D01*
X141876216Y-83600971D01*
X141944737Y-83544737D01*
X142000971Y-83476216D01*
X142042757Y-83398041D01*
X142068489Y-83313215D01*
X142077177Y-83225000D01*
X142075000Y-82812500D01*
X141962500Y-82700000D01*
X140850000Y-82700000D01*
X140650000Y-82700000D01*
X139537500Y-82700000D01*
X139425000Y-82812500D01*
X139422823Y-83225000D01*
X137450000Y-83225000D01*
X137450000Y-82550000D01*
X145247823Y-82550000D01*
X145256511Y-82638215D01*
X145282243Y-82723041D01*
X145324029Y-82801216D01*
X145380263Y-82869737D01*
X145448784Y-82925971D01*
X145526959Y-82967757D01*
X145611785Y-82993489D01*
X145700000Y-83002177D01*
X146287500Y-83000000D01*
X146400000Y-82887500D01*
X146400000Y-81150000D01*
X146600000Y-81150000D01*
X146600000Y-82887500D01*
X146712500Y-83000000D01*
X147300000Y-83002177D01*
X147388215Y-82993489D01*
X147473041Y-82967757D01*
X147551216Y-82925971D01*
X147619737Y-82869737D01*
X147675971Y-82801216D01*
X147717757Y-82723041D01*
X147743489Y-82638215D01*
X147752177Y-82550000D01*
X147750000Y-81262500D01*
X147637500Y-81150000D01*
X146600000Y-81150000D01*
X146400000Y-81150000D01*
X145362500Y-81150000D01*
X145250000Y-81262500D01*
X145247823Y-82550000D01*
X137450000Y-82550000D01*
X137450000Y-82352177D01*
X137750000Y-82352177D01*
X137838215Y-82343489D01*
X137923041Y-82317757D01*
X138001216Y-82275971D01*
X138069737Y-82219737D01*
X138125971Y-82151216D01*
X138167757Y-82073041D01*
X138193489Y-81988215D01*
X138194790Y-81975000D01*
X139422823Y-81975000D01*
X139425000Y-82387500D01*
X139537500Y-82500000D01*
X140650000Y-82500000D01*
X140650000Y-81637500D01*
X140850000Y-81637500D01*
X140850000Y-82500000D01*
X141962500Y-82500000D01*
X142075000Y-82387500D01*
X142077177Y-81975000D01*
X142068489Y-81886785D01*
X142042757Y-81801959D01*
X142000971Y-81723784D01*
X141944737Y-81655263D01*
X141876216Y-81599029D01*
X141798041Y-81557243D01*
X141713215Y-81531511D01*
X141625000Y-81522823D01*
X140962500Y-81525000D01*
X140850000Y-81637500D01*
X140650000Y-81637500D01*
X140537500Y-81525000D01*
X139875000Y-81522823D01*
X139786785Y-81531511D01*
X139701959Y-81557243D01*
X139623784Y-81599029D01*
X139555263Y-81655263D01*
X139499029Y-81723784D01*
X139457243Y-81801959D01*
X139431511Y-81886785D01*
X139422823Y-81975000D01*
X138194790Y-81975000D01*
X138202177Y-81900000D01*
X138202177Y-80100000D01*
X138193489Y-80011785D01*
X138167757Y-79926959D01*
X138125971Y-79848784D01*
X138069737Y-79780263D01*
X138001216Y-79724029D01*
X137923041Y-79682243D01*
X137838215Y-79656511D01*
X137750000Y-79647823D01*
X135250000Y-79647823D01*
X135161785Y-79656511D01*
X135076959Y-79682243D01*
X134998784Y-79724029D01*
X134950000Y-79764065D01*
X134950000Y-79550000D01*
X145247823Y-79550000D01*
X145250000Y-80837500D01*
X145362500Y-80950000D01*
X146400000Y-80950000D01*
X146400000Y-79212500D01*
X146600000Y-79212500D01*
X146600000Y-80950000D01*
X147637500Y-80950000D01*
X147750000Y-80837500D01*
X147752177Y-79550000D01*
X147743489Y-79461785D01*
X147717757Y-79376959D01*
X147675971Y-79298784D01*
X147619737Y-79230263D01*
X147551216Y-79174029D01*
X147473041Y-79132243D01*
X147388215Y-79106511D01*
X147300000Y-79097823D01*
X146712500Y-79100000D01*
X146600000Y-79212500D01*
X146400000Y-79212500D01*
X146287500Y-79100000D01*
X145700000Y-79097823D01*
X145611785Y-79106511D01*
X145526959Y-79132243D01*
X145448784Y-79174029D01*
X145380263Y-79230263D01*
X145324029Y-79298784D01*
X145282243Y-79376959D01*
X145256511Y-79461785D01*
X145247823Y-79550000D01*
X134950000Y-79550000D01*
X134950000Y-79000000D01*
X134941353Y-78912209D01*
X134915746Y-78827792D01*
X134874161Y-78749993D01*
X134818198Y-78681802D01*
X134318198Y-78181802D01*
X134250007Y-78125839D01*
X134172208Y-78084254D01*
X134087791Y-78058647D01*
X134000000Y-78050000D01*
X114250000Y-78050000D01*
X114162209Y-78058647D01*
X114077792Y-78084254D01*
X113999993Y-78125839D01*
X113931802Y-78181802D01*
X113431802Y-78681802D01*
X113375839Y-78749993D01*
X113334254Y-78827792D01*
X113308647Y-78912209D01*
X113300000Y-79000000D01*
X113300000Y-84813604D01*
X112313604Y-85800000D01*
X107000000Y-85800000D01*
X106912209Y-85808647D01*
X106827792Y-85834254D01*
X106749993Y-85875839D01*
X106681802Y-85931802D01*
X106181802Y-86431802D01*
X106125839Y-86499993D01*
X106084254Y-86577792D01*
X106058647Y-86662209D01*
X106050000Y-86750000D01*
X105475000Y-86750000D01*
X105475000Y-83042594D01*
X105664860Y-83326740D01*
X106173260Y-83835140D01*
X106771077Y-84234588D01*
X107435334Y-84509733D01*
X108140506Y-84650000D01*
X108859494Y-84650000D01*
X109564666Y-84509733D01*
X110228923Y-84234588D01*
X110826740Y-83835140D01*
X111335140Y-83326740D01*
X111734588Y-82728923D01*
X112009733Y-82064666D01*
X112150000Y-81359494D01*
X112150000Y-80640506D01*
X112009733Y-79935334D01*
X111734588Y-79271077D01*
X111335140Y-78673260D01*
X110826740Y-78164860D01*
X110542594Y-77975000D01*
X154457406Y-77975000D01*
X154173260Y-78164860D01*
G37*
X154173260Y-78164860D02*
X153664860Y-78673260D01*
X153265412Y-79271077D01*
X152990267Y-79935334D01*
X152850000Y-80640506D01*
X152850000Y-81359494D01*
X152990267Y-82064666D01*
X153265412Y-82728923D01*
X153664860Y-83326740D01*
X154173260Y-83835140D01*
X154771077Y-84234588D01*
X155435334Y-84509733D01*
X156140506Y-84650000D01*
X156859494Y-84650000D01*
X157564666Y-84509733D01*
X158228923Y-84234588D01*
X158826740Y-83835140D01*
X159335140Y-83326740D01*
X159525000Y-83042594D01*
X159525001Y-121957407D01*
X159335140Y-121673260D01*
X158826740Y-121164860D01*
X158228923Y-120765412D01*
X157564666Y-120490267D01*
X156859494Y-120350000D01*
X156140506Y-120350000D01*
X155435334Y-120490267D01*
X154771077Y-120765412D01*
X154173260Y-121164860D01*
X153664860Y-121673260D01*
X153265412Y-122271077D01*
X152990267Y-122935334D01*
X152850000Y-123640506D01*
X152850000Y-124359494D01*
X152990267Y-125064666D01*
X153265412Y-125728923D01*
X153664860Y-126326740D01*
X154173260Y-126835140D01*
X154457406Y-127025000D01*
X110542594Y-127025000D01*
X110826740Y-126835140D01*
X111335140Y-126326740D01*
X111734588Y-125728923D01*
X112009733Y-125064666D01*
X112150000Y-124359494D01*
X112150000Y-123640506D01*
X112009733Y-122935334D01*
X111734588Y-122271077D01*
X111335140Y-121673260D01*
X110826740Y-121164860D01*
X110228923Y-120765412D01*
X109564666Y-120490267D01*
X108859494Y-120350000D01*
X108140506Y-120350000D01*
X107435334Y-120490267D01*
X106771077Y-120765412D01*
X106173260Y-121164860D01*
X105664860Y-121673260D01*
X105475000Y-121957406D01*
X105475000Y-105857187D01*
X107550000Y-105857187D01*
X107550000Y-106142813D01*
X107605723Y-106422949D01*
X107715027Y-106686833D01*
X107873711Y-106924321D01*
X108075679Y-107126289D01*
X108313167Y-107284973D01*
X108577051Y-107394277D01*
X108857187Y-107450000D01*
X109106498Y-107450000D01*
X115770254Y-114113757D01*
X115799999Y-114150001D01*
X115836242Y-114179745D01*
X115836245Y-114179748D01*
X115913951Y-114243520D01*
X115944655Y-114268718D01*
X116109692Y-114356932D01*
X116288768Y-114411254D01*
X116428335Y-114425000D01*
X116428344Y-114425000D01*
X116474999Y-114429595D01*
X116521654Y-114425000D01*
X117847823Y-114425000D01*
X117847823Y-115300000D01*
X117861315Y-115436988D01*
X117901273Y-115568712D01*
X117966161Y-115690109D01*
X118053486Y-115796514D01*
X118159891Y-115883839D01*
X118281288Y-115948727D01*
X118300001Y-115954403D01*
X118300001Y-116453336D01*
X118295405Y-116500000D01*
X118313747Y-116686232D01*
X118368069Y-116865308D01*
X118456283Y-117030345D01*
X118545252Y-117138754D01*
X118545256Y-117138758D01*
X118575000Y-117175001D01*
X118611243Y-117204745D01*
X119795254Y-118388757D01*
X119824999Y-118425001D01*
X119861242Y-118454745D01*
X119861245Y-118454748D01*
X119896080Y-118483336D01*
X119969655Y-118543718D01*
X120134692Y-118631932D01*
X120313768Y-118686254D01*
X120453335Y-118700000D01*
X120453345Y-118700000D01*
X120500000Y-118704595D01*
X120546654Y-118700000D01*
X124897823Y-118700000D01*
X124897823Y-119000000D01*
X124906511Y-119088215D01*
X124932243Y-119173041D01*
X124974029Y-119251216D01*
X125030263Y-119319737D01*
X125098784Y-119375971D01*
X125176959Y-119417757D01*
X125261785Y-119443489D01*
X125350000Y-119452177D01*
X127150000Y-119452177D01*
X127238215Y-119443489D01*
X127323041Y-119417757D01*
X127401216Y-119375971D01*
X127469737Y-119319737D01*
X127525971Y-119251216D01*
X127567757Y-119173041D01*
X127593489Y-119088215D01*
X127602177Y-119000000D01*
X127602177Y-118100000D01*
X129224121Y-118100000D01*
X129234891Y-118108839D01*
X129356288Y-118173727D01*
X129488012Y-118213685D01*
X129625000Y-118227177D01*
X130875000Y-118227177D01*
X131011988Y-118213685D01*
X131143712Y-118173727D01*
X131265109Y-118108839D01*
X131275879Y-118100000D01*
X132026498Y-118100000D01*
X132247823Y-118321325D01*
X132247823Y-119130000D01*
X132256511Y-119218215D01*
X132282243Y-119303041D01*
X132324029Y-119381216D01*
X132380263Y-119449737D01*
X132448784Y-119505971D01*
X132526959Y-119547757D01*
X132611785Y-119573489D01*
X132700000Y-119582177D01*
X132850000Y-119582177D01*
X132850001Y-121147823D01*
X132750000Y-121147823D01*
X132661785Y-121156511D01*
X132576959Y-121182243D01*
X132498784Y-121224029D01*
X132430263Y-121280263D01*
X132374029Y-121348784D01*
X132332243Y-121426959D01*
X132306511Y-121511785D01*
X132297823Y-121600000D01*
X132297823Y-123400000D01*
X132306511Y-123488215D01*
X132332243Y-123573041D01*
X132374029Y-123651216D01*
X132430263Y-123719737D01*
X132498784Y-123775971D01*
X132576959Y-123817757D01*
X132661785Y-123843489D01*
X132750000Y-123852177D01*
X135250000Y-123852177D01*
X135338215Y-123843489D01*
X135423041Y-123817757D01*
X135501216Y-123775971D01*
X135550000Y-123735935D01*
X135550000Y-125250000D01*
X135558647Y-125337791D01*
X135584254Y-125422208D01*
X135625839Y-125500007D01*
X135681802Y-125568198D01*
X136181802Y-126068198D01*
X136249993Y-126124161D01*
X136327792Y-126165746D01*
X136412209Y-126191353D01*
X136500000Y-126200000D01*
X150750000Y-126200000D01*
X150837791Y-126191353D01*
X150922208Y-126165746D01*
X151000007Y-126124161D01*
X151068198Y-126068198D01*
X151568198Y-125568198D01*
X151624161Y-125500007D01*
X151665746Y-125422208D01*
X151691353Y-125337791D01*
X151700000Y-125250000D01*
X151700000Y-121436396D01*
X153936396Y-119200000D01*
X158000000Y-119200000D01*
X158087791Y-119191353D01*
X158172208Y-119165746D01*
X158250007Y-119124161D01*
X158318198Y-119068198D01*
X158818198Y-118568198D01*
X158874161Y-118500007D01*
X158915746Y-118422208D01*
X158941353Y-118337791D01*
X158950000Y-118250000D01*
X158950000Y-104750000D01*
X158941353Y-104662209D01*
X158915746Y-104577792D01*
X158874161Y-104499993D01*
X158818198Y-104431802D01*
X158318198Y-103931802D01*
X158250007Y-103875839D01*
X158172208Y-103834254D01*
X158087791Y-103808647D01*
X158000000Y-103800000D01*
X156651417Y-103800000D01*
X156773491Y-103734750D01*
X156877372Y-103518794D01*
X156000000Y-102641421D01*
X155122628Y-103518794D01*
X155226509Y-103734750D01*
X155357727Y-103800000D01*
X147750000Y-103800000D01*
X147662209Y-103808647D01*
X147577792Y-103834254D01*
X147499993Y-103875839D01*
X147431802Y-103931802D01*
X144245466Y-107118138D01*
X144252177Y-107050000D01*
X144250000Y-105762500D01*
X144137500Y-105650000D01*
X143100000Y-105650000D01*
X143100000Y-105670000D01*
X142900000Y-105670000D01*
X142900000Y-105650000D01*
X141862500Y-105650000D01*
X141750000Y-105762500D01*
X141747823Y-107050000D01*
X141756511Y-107138215D01*
X141782243Y-107223041D01*
X141823379Y-107300000D01*
X140500000Y-107300000D01*
X140412209Y-107308647D01*
X140327792Y-107334254D01*
X140249993Y-107375839D01*
X140181802Y-107431802D01*
X139320466Y-108293138D01*
X139327177Y-108225000D01*
X139325000Y-107812500D01*
X139212500Y-107700000D01*
X138100000Y-107700000D01*
X138100000Y-107720000D01*
X137900000Y-107720000D01*
X137900000Y-107700000D01*
X136787500Y-107700000D01*
X136675000Y-107812500D01*
X136672823Y-108225000D01*
X136681511Y-108313215D01*
X136707243Y-108398041D01*
X136749029Y-108476216D01*
X136805263Y-108544737D01*
X136811676Y-108550000D01*
X136500000Y-108550000D01*
X136412209Y-108558647D01*
X136327792Y-108584254D01*
X136249993Y-108625839D01*
X136181802Y-108681802D01*
X135908000Y-108955604D01*
X135908000Y-108500000D01*
X135895357Y-108371631D01*
X135857913Y-108248194D01*
X135797107Y-108134435D01*
X135715276Y-108034724D01*
X134655552Y-106975000D01*
X136672823Y-106975000D01*
X136675000Y-107387500D01*
X136787500Y-107500000D01*
X137900000Y-107500000D01*
X137900000Y-106637500D01*
X138100000Y-106637500D01*
X138100000Y-107500000D01*
X139212500Y-107500000D01*
X139325000Y-107387500D01*
X139327177Y-106975000D01*
X139318489Y-106886785D01*
X139292757Y-106801959D01*
X139250971Y-106723784D01*
X139194737Y-106655263D01*
X139126216Y-106599029D01*
X139048041Y-106557243D01*
X138963215Y-106531511D01*
X138875000Y-106522823D01*
X138212500Y-106525000D01*
X138100000Y-106637500D01*
X137900000Y-106637500D01*
X137787500Y-106525000D01*
X137125000Y-106522823D01*
X137036785Y-106531511D01*
X136951959Y-106557243D01*
X136873784Y-106599029D01*
X136805263Y-106655263D01*
X136749029Y-106723784D01*
X136707243Y-106801959D01*
X136681511Y-106886785D01*
X136672823Y-106975000D01*
X134655552Y-106975000D01*
X134465276Y-106784724D01*
X134365565Y-106702893D01*
X134251806Y-106642087D01*
X134128369Y-106604643D01*
X134000000Y-106592000D01*
X130500000Y-106592000D01*
X130371631Y-106604643D01*
X130248194Y-106642087D01*
X130134435Y-106702893D01*
X130034724Y-106784724D01*
X128977448Y-107842000D01*
X127387147Y-107842000D01*
X127444737Y-107794737D01*
X127500971Y-107726216D01*
X127542757Y-107648041D01*
X127568489Y-107563215D01*
X127577177Y-107475000D01*
X127575000Y-107062500D01*
X127462500Y-106950000D01*
X126350000Y-106950000D01*
X126350000Y-106970000D01*
X126150000Y-106970000D01*
X126150000Y-106950000D01*
X125037500Y-106950000D01*
X124925000Y-107062500D01*
X124922823Y-107475000D01*
X124931511Y-107563215D01*
X124957243Y-107648041D01*
X124999029Y-107726216D01*
X125055263Y-107794737D01*
X125123784Y-107850971D01*
X125129250Y-107853893D01*
X125121631Y-107854643D01*
X124998194Y-107892087D01*
X124884435Y-107952893D01*
X124784724Y-108034724D01*
X124284724Y-108534724D01*
X124202893Y-108634435D01*
X124142087Y-108748194D01*
X124104643Y-108871631D01*
X124092000Y-109000000D01*
X124092000Y-115250000D01*
X124104643Y-115378369D01*
X124142087Y-115501806D01*
X124202893Y-115615565D01*
X124284724Y-115715276D01*
X124784724Y-116215276D01*
X124884435Y-116297107D01*
X124934030Y-116323616D01*
X124932243Y-116326959D01*
X124906511Y-116411785D01*
X124897823Y-116500000D01*
X124897823Y-116800000D01*
X120893503Y-116800000D01*
X120200000Y-116106498D01*
X120200000Y-115954403D01*
X120218712Y-115948727D01*
X120340109Y-115883839D01*
X120446514Y-115796514D01*
X120533839Y-115690109D01*
X120598727Y-115568712D01*
X120638685Y-115436988D01*
X120652177Y-115300000D01*
X120652177Y-111650000D01*
X120638685Y-111513012D01*
X120598727Y-111381288D01*
X120533839Y-111259891D01*
X120446514Y-111153486D01*
X120340109Y-111066161D01*
X120218712Y-111001273D01*
X120086988Y-110961315D01*
X119950000Y-110947823D01*
X118550000Y-110947823D01*
X118413012Y-110961315D01*
X118281288Y-111001273D01*
X118159891Y-111066161D01*
X118053486Y-111153486D01*
X117966161Y-111259891D01*
X117901273Y-111381288D01*
X117861315Y-111513012D01*
X117847823Y-111650000D01*
X117847823Y-112525000D01*
X116868503Y-112525000D01*
X112943503Y-108600000D01*
X117847823Y-108600000D01*
X117856511Y-108688215D01*
X117882243Y-108773041D01*
X117924029Y-108851216D01*
X117980263Y-108919737D01*
X118048784Y-108975971D01*
X118126959Y-109017757D01*
X118211785Y-109043489D01*
X118300000Y-109052177D01*
X119037500Y-109050000D01*
X119150000Y-108937500D01*
X119150000Y-106625000D01*
X119350000Y-106625000D01*
X119350000Y-108937500D01*
X119462500Y-109050000D01*
X120200000Y-109052177D01*
X120288215Y-109043489D01*
X120373041Y-109017757D01*
X120451216Y-108975971D01*
X120519737Y-108919737D01*
X120575971Y-108851216D01*
X120617757Y-108773041D01*
X120643489Y-108688215D01*
X120652177Y-108600000D01*
X120650000Y-106737500D01*
X120537500Y-106625000D01*
X119350000Y-106625000D01*
X119150000Y-106625000D01*
X117962500Y-106625000D01*
X117850000Y-106737500D01*
X117847823Y-108600000D01*
X112943503Y-108600000D01*
X110450000Y-106106498D01*
X110450000Y-105857187D01*
X110394277Y-105577051D01*
X110284973Y-105313167D01*
X110126289Y-105075679D01*
X109924321Y-104873711D01*
X109686833Y-104715027D01*
X109422949Y-104605723D01*
X109142813Y-104550000D01*
X108857187Y-104550000D01*
X108577051Y-104605723D01*
X108313167Y-104715027D01*
X108075679Y-104873711D01*
X107873711Y-105075679D01*
X107715027Y-105313167D01*
X107605723Y-105577051D01*
X107550000Y-105857187D01*
X105475000Y-105857187D01*
X105475000Y-104450000D01*
X117847823Y-104450000D01*
X117850000Y-106312500D01*
X117962500Y-106425000D01*
X119150000Y-106425000D01*
X119150000Y-104112500D01*
X119350000Y-104112500D01*
X119350000Y-106425000D01*
X120537500Y-106425000D01*
X120650000Y-106312500D01*
X120650102Y-106225000D01*
X124922823Y-106225000D01*
X124925000Y-106637500D01*
X125037500Y-106750000D01*
X126150000Y-106750000D01*
X126150000Y-105887500D01*
X126350000Y-105887500D01*
X126350000Y-106750000D01*
X127462500Y-106750000D01*
X127575000Y-106637500D01*
X127577177Y-106225000D01*
X127568489Y-106136785D01*
X127542757Y-106051959D01*
X127500971Y-105973784D01*
X127444737Y-105905263D01*
X127376216Y-105849029D01*
X127298041Y-105807243D01*
X127213215Y-105781511D01*
X127125000Y-105772823D01*
X126462500Y-105775000D01*
X126350000Y-105887500D01*
X126150000Y-105887500D01*
X126037500Y-105775000D01*
X125375000Y-105772823D01*
X125286785Y-105781511D01*
X125201959Y-105807243D01*
X125123784Y-105849029D01*
X125055263Y-105905263D01*
X124999029Y-105973784D01*
X124957243Y-106051959D01*
X124931511Y-106136785D01*
X124922823Y-106225000D01*
X120650102Y-106225000D01*
X120650715Y-105700000D01*
X130997823Y-105700000D01*
X131006511Y-105788215D01*
X131032243Y-105873041D01*
X131074029Y-105951216D01*
X131130263Y-106019737D01*
X131198784Y-106075971D01*
X131276959Y-106117757D01*
X131361785Y-106143489D01*
X131450000Y-106152177D01*
X132037500Y-106150000D01*
X132150000Y-106037500D01*
X132150000Y-104050000D01*
X132350000Y-104050000D01*
X132350000Y-106037500D01*
X132462500Y-106150000D01*
X133050000Y-106152177D01*
X133138215Y-106143489D01*
X133223041Y-106117757D01*
X133301216Y-106075971D01*
X133369737Y-106019737D01*
X133425971Y-105951216D01*
X133467757Y-105873041D01*
X133493489Y-105788215D01*
X133502177Y-105700000D01*
X133500000Y-104162500D01*
X133387500Y-104050000D01*
X141747823Y-104050000D01*
X141750000Y-105337500D01*
X141862500Y-105450000D01*
X142900000Y-105450000D01*
X142900000Y-103712500D01*
X143100000Y-103712500D01*
X143100000Y-105450000D01*
X144137500Y-105450000D01*
X144250000Y-105337500D01*
X144252177Y-104050000D01*
X144243489Y-103961785D01*
X144217757Y-103876959D01*
X144175971Y-103798784D01*
X144119737Y-103730263D01*
X144051216Y-103674029D01*
X143973041Y-103632243D01*
X143888215Y-103606511D01*
X143800000Y-103597823D01*
X143212500Y-103600000D01*
X143100000Y-103712500D01*
X142900000Y-103712500D01*
X142787500Y-103600000D01*
X142200000Y-103597823D01*
X142111785Y-103606511D01*
X142026959Y-103632243D01*
X141948784Y-103674029D01*
X141880263Y-103730263D01*
X141824029Y-103798784D01*
X141782243Y-103876959D01*
X141756511Y-103961785D01*
X141747823Y-104050000D01*
X133387500Y-104050000D01*
X132350000Y-104050000D01*
X132150000Y-104050000D01*
X131112500Y-104050000D01*
X131000000Y-104162500D01*
X130997823Y-105700000D01*
X120650715Y-105700000D01*
X120652177Y-104450000D01*
X120643489Y-104361785D01*
X120617757Y-104276959D01*
X120575971Y-104198784D01*
X120519737Y-104130263D01*
X120451216Y-104074029D01*
X120373041Y-104032243D01*
X120288215Y-104006511D01*
X120200000Y-103997823D01*
X119462500Y-104000000D01*
X119350000Y-104112500D01*
X119150000Y-104112500D01*
X119037500Y-104000000D01*
X118300000Y-103997823D01*
X118211785Y-104006511D01*
X118126959Y-104032243D01*
X118048784Y-104074029D01*
X117980263Y-104130263D01*
X117924029Y-104198784D01*
X117882243Y-104276959D01*
X117856511Y-104361785D01*
X117847823Y-104450000D01*
X105475000Y-104450000D01*
X105475000Y-103518794D01*
X108122628Y-103518794D01*
X108226509Y-103734750D01*
X108482259Y-103861925D01*
X108757906Y-103936762D01*
X109042856Y-103956386D01*
X109326159Y-103920042D01*
X109596928Y-103829125D01*
X109773491Y-103734750D01*
X109877372Y-103518794D01*
X109000000Y-102641421D01*
X108122628Y-103518794D01*
X105475000Y-103518794D01*
X105475000Y-102542856D01*
X107543614Y-102542856D01*
X107579958Y-102826159D01*
X107670875Y-103096928D01*
X107765250Y-103273491D01*
X107981206Y-103377372D01*
X108858579Y-102500000D01*
X109141421Y-102500000D01*
X110018794Y-103377372D01*
X110234750Y-103273491D01*
X110361925Y-103017741D01*
X110436762Y-102742094D01*
X110456386Y-102457144D01*
X110423398Y-102200000D01*
X130997823Y-102200000D01*
X131000000Y-103737500D01*
X131112500Y-103850000D01*
X132150000Y-103850000D01*
X132150000Y-101862500D01*
X132350000Y-101862500D01*
X132350000Y-103850000D01*
X133387500Y-103850000D01*
X133500000Y-103737500D01*
X133501691Y-102542856D01*
X154543614Y-102542856D01*
X154579958Y-102826159D01*
X154670875Y-103096928D01*
X154765250Y-103273491D01*
X154981206Y-103377372D01*
X155858579Y-102500000D01*
X156141421Y-102500000D01*
X157018794Y-103377372D01*
X157234750Y-103273491D01*
X157361925Y-103017741D01*
X157436762Y-102742094D01*
X157456386Y-102457144D01*
X157420042Y-102173841D01*
X157329125Y-101903072D01*
X157234750Y-101726509D01*
X157018794Y-101622628D01*
X156141421Y-102500000D01*
X155858579Y-102500000D01*
X154981206Y-101622628D01*
X154765250Y-101726509D01*
X154638075Y-101982259D01*
X154563238Y-102257906D01*
X154543614Y-102542856D01*
X133501691Y-102542856D01*
X133502177Y-102200000D01*
X133493489Y-102111785D01*
X133467757Y-102026959D01*
X133425971Y-101948784D01*
X133369737Y-101880263D01*
X133301216Y-101824029D01*
X133223041Y-101782243D01*
X133138215Y-101756511D01*
X133050000Y-101747823D01*
X132462500Y-101750000D01*
X132350000Y-101862500D01*
X132150000Y-101862500D01*
X132037500Y-101750000D01*
X131450000Y-101747823D01*
X131361785Y-101756511D01*
X131276959Y-101782243D01*
X131198784Y-101824029D01*
X131130263Y-101880263D01*
X131074029Y-101948784D01*
X131032243Y-102026959D01*
X131006511Y-102111785D01*
X130997823Y-102200000D01*
X110423398Y-102200000D01*
X110420042Y-102173841D01*
X110329125Y-101903072D01*
X110234750Y-101726509D01*
X110018794Y-101622628D01*
X109141421Y-102500000D01*
X108858579Y-102500000D01*
X107981206Y-101622628D01*
X107765250Y-101726509D01*
X107638075Y-101982259D01*
X107563238Y-102257906D01*
X107543614Y-102542856D01*
X105475000Y-102542856D01*
X105475000Y-86750000D01*
X106050000Y-86750000D01*
X106050000Y-100250000D01*
X106058647Y-100337791D01*
X106084254Y-100422208D01*
X106125839Y-100500007D01*
X106181802Y-100568198D01*
X106681802Y-101068198D01*
X106749993Y-101124161D01*
X106827792Y-101165746D01*
X106912209Y-101191353D01*
X107000000Y-101200000D01*
X108348583Y-101200000D01*
X108226509Y-101265250D01*
X108122628Y-101481206D01*
X109000000Y-102358579D01*
X109877372Y-101481206D01*
X155122628Y-101481206D01*
X156000000Y-102358579D01*
X156877372Y-101481206D01*
X156773491Y-101265250D01*
X156517741Y-101138075D01*
X156242094Y-101063238D01*
X155957144Y-101043614D01*
X155673841Y-101079958D01*
X155403072Y-101170875D01*
X155226509Y-101265250D01*
X155122628Y-101481206D01*
X109877372Y-101481206D01*
X109773491Y-101265250D01*
X109642273Y-101200000D01*
X112750000Y-101200000D01*
X112837791Y-101191353D01*
X112922208Y-101165746D01*
X113000007Y-101124161D01*
X113068198Y-101068198D01*
X113586396Y-100550000D01*
X117847823Y-100550000D01*
X117856511Y-100638215D01*
X117882243Y-100723041D01*
X117924029Y-100801216D01*
X117980263Y-100869737D01*
X118048784Y-100925971D01*
X118126959Y-100967757D01*
X118211785Y-100993489D01*
X118300000Y-101002177D01*
X119037500Y-101000000D01*
X119150000Y-100887500D01*
X119150000Y-98575000D01*
X119350000Y-98575000D01*
X119350000Y-100887500D01*
X119462500Y-101000000D01*
X120200000Y-101002177D01*
X120288215Y-100993489D01*
X120373041Y-100967757D01*
X120451216Y-100925971D01*
X120519737Y-100869737D01*
X120575971Y-100801216D01*
X120617757Y-100723041D01*
X120643489Y-100638215D01*
X120652177Y-100550000D01*
X120650000Y-98687500D01*
X120537500Y-98575000D01*
X119350000Y-98575000D01*
X119150000Y-98575000D01*
X117962500Y-98575000D01*
X117850000Y-98687500D01*
X117847823Y-100550000D01*
X113586396Y-100550000D01*
X117436396Y-96700000D01*
X117848174Y-96700000D01*
X117850000Y-98262500D01*
X117962500Y-98375000D01*
X119150000Y-98375000D01*
X119150000Y-98355000D01*
X119350000Y-98355000D01*
X119350000Y-98375000D01*
X120537500Y-98375000D01*
X120650000Y-98262500D01*
X120651826Y-96700000D01*
X120813604Y-96700000D01*
X123931802Y-99818198D01*
X123999993Y-99874161D01*
X124077792Y-99915746D01*
X124162209Y-99941353D01*
X124250000Y-99950000D01*
X134000000Y-99950000D01*
X134087791Y-99941353D01*
X134172208Y-99915746D01*
X134250007Y-99874161D01*
X134318198Y-99818198D01*
X134818198Y-99318198D01*
X134849502Y-99280054D01*
X135034724Y-99465276D01*
X135134435Y-99547107D01*
X135248194Y-99607913D01*
X135371631Y-99645357D01*
X135500000Y-99658000D01*
X142250000Y-99658000D01*
X142378369Y-99645357D01*
X142501806Y-99607913D01*
X142615565Y-99547107D01*
X142715276Y-99465276D01*
X144215276Y-97965276D01*
X144297107Y-97865565D01*
X144357913Y-97751806D01*
X144395357Y-97628369D01*
X144408000Y-97500000D01*
X144408000Y-96550000D01*
X144847823Y-96550000D01*
X144856511Y-96638215D01*
X144882243Y-96723041D01*
X144924029Y-96801216D01*
X144980263Y-96869737D01*
X145048784Y-96925971D01*
X145126959Y-96967757D01*
X145211785Y-96993489D01*
X145300000Y-97002177D01*
X146837500Y-97000000D01*
X146950000Y-96887500D01*
X146950000Y-95850000D01*
X147150000Y-95850000D01*
X147150000Y-96887500D01*
X147262500Y-97000000D01*
X148800000Y-97002177D01*
X148888215Y-96993489D01*
X148973041Y-96967757D01*
X149051216Y-96925971D01*
X149119737Y-96869737D01*
X149175971Y-96801216D01*
X149217757Y-96723041D01*
X149243489Y-96638215D01*
X149252177Y-96550000D01*
X149250000Y-95962500D01*
X149137500Y-95850000D01*
X147150000Y-95850000D01*
X146950000Y-95850000D01*
X144962500Y-95850000D01*
X144850000Y-95962500D01*
X144847823Y-96550000D01*
X144408000Y-96550000D01*
X144408000Y-94950000D01*
X144847823Y-94950000D01*
X144850000Y-95537500D01*
X144962500Y-95650000D01*
X146950000Y-95650000D01*
X146950000Y-94612500D01*
X147150000Y-94612500D01*
X147150000Y-95650000D01*
X149137500Y-95650000D01*
X149250000Y-95537500D01*
X149252177Y-94950000D01*
X149243489Y-94861785D01*
X149217757Y-94776959D01*
X149175971Y-94698784D01*
X149119737Y-94630263D01*
X149051216Y-94574029D01*
X148973041Y-94532243D01*
X148888215Y-94506511D01*
X148800000Y-94497823D01*
X147262500Y-94500000D01*
X147150000Y-94612500D01*
X146950000Y-94612500D01*
X146837500Y-94500000D01*
X145300000Y-94497823D01*
X145211785Y-94506511D01*
X145126959Y-94532243D01*
X145048784Y-94574029D01*
X144980263Y-94630263D01*
X144924029Y-94698784D01*
X144882243Y-94776959D01*
X144856511Y-94861785D01*
X144847823Y-94950000D01*
X144408000Y-94950000D01*
X144408000Y-93250000D01*
X144395357Y-93121631D01*
X144357913Y-92998194D01*
X144297107Y-92884435D01*
X144215276Y-92784724D01*
X142908000Y-91477448D01*
X142908000Y-91059757D01*
X142936785Y-91068489D01*
X143025000Y-91077177D01*
X143437500Y-91075000D01*
X143550000Y-90962500D01*
X143550000Y-89850000D01*
X143750000Y-89850000D01*
X143750000Y-90962500D01*
X143862500Y-91075000D01*
X144275000Y-91077177D01*
X144363215Y-91068489D01*
X144448041Y-91042757D01*
X144526216Y-91000971D01*
X144594737Y-90944737D01*
X144650971Y-90876216D01*
X144692757Y-90798041D01*
X144718489Y-90713215D01*
X144727177Y-90625000D01*
X144725000Y-89962500D01*
X144612500Y-89850000D01*
X143750000Y-89850000D01*
X143550000Y-89850000D01*
X143530000Y-89850000D01*
X143530000Y-89650000D01*
X143550000Y-89650000D01*
X143550000Y-88537500D01*
X143750000Y-88537500D01*
X143750000Y-89650000D01*
X144612500Y-89650000D01*
X144725000Y-89537500D01*
X144727177Y-88875000D01*
X144718489Y-88786785D01*
X144692757Y-88701959D01*
X144650971Y-88623784D01*
X144594737Y-88555263D01*
X144526216Y-88499029D01*
X144448041Y-88457243D01*
X144363215Y-88431511D01*
X144275000Y-88422823D01*
X143862500Y-88425000D01*
X143750000Y-88537500D01*
X143550000Y-88537500D01*
X143437500Y-88425000D01*
X143025000Y-88422823D01*
X142936785Y-88431511D01*
X142902285Y-88441976D01*
X142895357Y-88371631D01*
X142857913Y-88248194D01*
X142797107Y-88134435D01*
X142715276Y-88034724D01*
X142215276Y-87534724D01*
X142115565Y-87452893D01*
X142001806Y-87392087D01*
X141878369Y-87354643D01*
X141750000Y-87342000D01*
X135500000Y-87342000D01*
X135371631Y-87354643D01*
X135248194Y-87392087D01*
X135134435Y-87452893D01*
X135034724Y-87534724D01*
X134950000Y-87619448D01*
X134950000Y-82235935D01*
X134998784Y-82275971D01*
X135076959Y-82317757D01*
X135161785Y-82343489D01*
X135250000Y-82352177D01*
X135550000Y-82352177D01*
X135550001Y-84172747D01*
X135511785Y-84176511D01*
X135426959Y-84202243D01*
X135348784Y-84244029D01*
X135280263Y-84300263D01*
X135224029Y-84368784D01*
X135182243Y-84446959D01*
X135156511Y-84531785D01*
X135147823Y-84620000D01*
X135147823Y-85820000D01*
X135156511Y-85908215D01*
X135182243Y-85993041D01*
X135224029Y-86071216D01*
X135280263Y-86139737D01*
X135348784Y-86195971D01*
X135426959Y-86237757D01*
X135511785Y-86263489D01*
X135600000Y-86272177D01*
X137800000Y-86272177D01*
X137888215Y-86263489D01*
X137973041Y-86237757D01*
X138051216Y-86195971D01*
X138082862Y-86170000D01*
X139545175Y-86170000D01*
X139628486Y-86271514D01*
X139734891Y-86358839D01*
X139856288Y-86423727D01*
X139988012Y-86463685D01*
X140125000Y-86477177D01*
X141375000Y-86477177D01*
X141511988Y-86463685D01*
X141643712Y-86423727D01*
X141688102Y-86400000D01*
X145247823Y-86400000D01*
X145247823Y-86700000D01*
X145261315Y-86836988D01*
X145301273Y-86968712D01*
X145366161Y-87090109D01*
X145453486Y-87196514D01*
X145559891Y-87283839D01*
X145681288Y-87348727D01*
X145813012Y-87388685D01*
X145950000Y-87402177D01*
X147050000Y-87402177D01*
X147186988Y-87388685D01*
X147318712Y-87348727D01*
X147440109Y-87283839D01*
X147546514Y-87196514D01*
X147633839Y-87090109D01*
X147698727Y-86968712D01*
X147738685Y-86836988D01*
X147752177Y-86700000D01*
X147752177Y-86400000D01*
X149056498Y-86400000D01*
X149800001Y-87143504D01*
X149800000Y-89203345D01*
X149795405Y-89250000D01*
X149800000Y-89296654D01*
X149800000Y-89296664D01*
X149813746Y-89436231D01*
X149868068Y-89615307D01*
X149956282Y-89780345D01*
X150074999Y-89925001D01*
X150111248Y-89954750D01*
X155050001Y-94893504D01*
X155050000Y-97899390D01*
X154873711Y-98075679D01*
X154715027Y-98313167D01*
X154605723Y-98577051D01*
X154550000Y-98857187D01*
X154550000Y-99142813D01*
X154605723Y-99422949D01*
X154715027Y-99686833D01*
X154873711Y-99924321D01*
X155075679Y-100126289D01*
X155313167Y-100284973D01*
X155577051Y-100394277D01*
X155857187Y-100450000D01*
X156142813Y-100450000D01*
X156422949Y-100394277D01*
X156686833Y-100284973D01*
X156924321Y-100126289D01*
X157126289Y-99924321D01*
X157284973Y-99686833D01*
X157394277Y-99422949D01*
X157450000Y-99142813D01*
X157450000Y-98857187D01*
X157394277Y-98577051D01*
X157284973Y-98313167D01*
X157126289Y-98075679D01*
X156950000Y-97899390D01*
X156950000Y-94546654D01*
X156954595Y-94499999D01*
X156950000Y-94453345D01*
X156950000Y-94453335D01*
X156936254Y-94313768D01*
X156881932Y-94134692D01*
X156793718Y-93969655D01*
X156675001Y-93824999D01*
X156638757Y-93795254D01*
X151700000Y-88856498D01*
X151700000Y-86796657D01*
X151704595Y-86750000D01*
X151700000Y-86703343D01*
X151700000Y-86703335D01*
X151686254Y-86563768D01*
X151659987Y-86477177D01*
X151631932Y-86384691D01*
X151577005Y-86281931D01*
X151543718Y-86219655D01*
X151425001Y-86074999D01*
X151388757Y-86045254D01*
X150154748Y-84811246D01*
X150125001Y-84774999D01*
X149980345Y-84656282D01*
X149815308Y-84568068D01*
X149636232Y-84513746D01*
X149496665Y-84500000D01*
X149496654Y-84500000D01*
X149450000Y-84495405D01*
X149403346Y-84500000D01*
X147752177Y-84500000D01*
X147752177Y-84200000D01*
X147738685Y-84063012D01*
X147698727Y-83931288D01*
X147633839Y-83809891D01*
X147546514Y-83703486D01*
X147440109Y-83616161D01*
X147318712Y-83551273D01*
X147186988Y-83511315D01*
X147050000Y-83497823D01*
X145950000Y-83497823D01*
X145813012Y-83511315D01*
X145681288Y-83551273D01*
X145559891Y-83616161D01*
X145453486Y-83703486D01*
X145366161Y-83809891D01*
X145301273Y-83931288D01*
X145261315Y-84063012D01*
X145247823Y-84200000D01*
X145247823Y-84500000D01*
X141836804Y-84500000D01*
X141765109Y-84441161D01*
X141643712Y-84376273D01*
X141511988Y-84336315D01*
X141375000Y-84322823D01*
X140885052Y-84322823D01*
X140756232Y-84283746D01*
X140616665Y-84270000D01*
X140616654Y-84270000D01*
X140570000Y-84265405D01*
X140523346Y-84270000D01*
X138082862Y-84270000D01*
X138051216Y-84244029D01*
X137973041Y-84202243D01*
X137888215Y-84176511D01*
X137800000Y-84167823D01*
X137450000Y-84167823D01*
X137450000Y-83225000D01*
X139422823Y-83225000D01*
X139431511Y-83313215D01*
X139457243Y-83398041D01*
X139499029Y-83476216D01*
X139555263Y-83544737D01*
X139623784Y-83600971D01*
X139701959Y-83642757D01*
X139786785Y-83668489D01*
X139875000Y-83677177D01*
X140537500Y-83675000D01*
X140650000Y-83562500D01*
X140650000Y-82700000D01*
X140850000Y-82700000D01*
X140850000Y-83562500D01*
X140962500Y-83675000D01*
X141625000Y-83677177D01*
X141713215Y-83668489D01*
X141798041Y-83642757D01*
X141876216Y-83600971D01*
X141944737Y-83544737D01*
X142000971Y-83476216D01*
X142042757Y-83398041D01*
X142068489Y-83313215D01*
X142077177Y-83225000D01*
X142075000Y-82812500D01*
X141962500Y-82700000D01*
X140850000Y-82700000D01*
X140650000Y-82700000D01*
X139537500Y-82700000D01*
X139425000Y-82812500D01*
X139422823Y-83225000D01*
X137450000Y-83225000D01*
X137450000Y-82550000D01*
X145247823Y-82550000D01*
X145256511Y-82638215D01*
X145282243Y-82723041D01*
X145324029Y-82801216D01*
X145380263Y-82869737D01*
X145448784Y-82925971D01*
X145526959Y-82967757D01*
X145611785Y-82993489D01*
X145700000Y-83002177D01*
X146287500Y-83000000D01*
X146400000Y-82887500D01*
X146400000Y-81150000D01*
X146600000Y-81150000D01*
X146600000Y-82887500D01*
X146712500Y-83000000D01*
X147300000Y-83002177D01*
X147388215Y-82993489D01*
X147473041Y-82967757D01*
X147551216Y-82925971D01*
X147619737Y-82869737D01*
X147675971Y-82801216D01*
X147717757Y-82723041D01*
X147743489Y-82638215D01*
X147752177Y-82550000D01*
X147750000Y-81262500D01*
X147637500Y-81150000D01*
X146600000Y-81150000D01*
X146400000Y-81150000D01*
X145362500Y-81150000D01*
X145250000Y-81262500D01*
X145247823Y-82550000D01*
X137450000Y-82550000D01*
X137450000Y-82352177D01*
X137750000Y-82352177D01*
X137838215Y-82343489D01*
X137923041Y-82317757D01*
X138001216Y-82275971D01*
X138069737Y-82219737D01*
X138125971Y-82151216D01*
X138167757Y-82073041D01*
X138193489Y-81988215D01*
X138194790Y-81975000D01*
X139422823Y-81975000D01*
X139425000Y-82387500D01*
X139537500Y-82500000D01*
X140650000Y-82500000D01*
X140650000Y-81637500D01*
X140850000Y-81637500D01*
X140850000Y-82500000D01*
X141962500Y-82500000D01*
X142075000Y-82387500D01*
X142077177Y-81975000D01*
X142068489Y-81886785D01*
X142042757Y-81801959D01*
X142000971Y-81723784D01*
X141944737Y-81655263D01*
X141876216Y-81599029D01*
X141798041Y-81557243D01*
X141713215Y-81531511D01*
X141625000Y-81522823D01*
X140962500Y-81525000D01*
X140850000Y-81637500D01*
X140650000Y-81637500D01*
X140537500Y-81525000D01*
X139875000Y-81522823D01*
X139786785Y-81531511D01*
X139701959Y-81557243D01*
X139623784Y-81599029D01*
X139555263Y-81655263D01*
X139499029Y-81723784D01*
X139457243Y-81801959D01*
X139431511Y-81886785D01*
X139422823Y-81975000D01*
X138194790Y-81975000D01*
X138202177Y-81900000D01*
X138202177Y-80100000D01*
X138193489Y-80011785D01*
X138167757Y-79926959D01*
X138125971Y-79848784D01*
X138069737Y-79780263D01*
X138001216Y-79724029D01*
X137923041Y-79682243D01*
X137838215Y-79656511D01*
X137750000Y-79647823D01*
X135250000Y-79647823D01*
X135161785Y-79656511D01*
X135076959Y-79682243D01*
X134998784Y-79724029D01*
X134950000Y-79764065D01*
X134950000Y-79550000D01*
X145247823Y-79550000D01*
X145250000Y-80837500D01*
X145362500Y-80950000D01*
X146400000Y-80950000D01*
X146400000Y-79212500D01*
X146600000Y-79212500D01*
X146600000Y-80950000D01*
X147637500Y-80950000D01*
X147750000Y-80837500D01*
X147752177Y-79550000D01*
X147743489Y-79461785D01*
X147717757Y-79376959D01*
X147675971Y-79298784D01*
X147619737Y-79230263D01*
X147551216Y-79174029D01*
X147473041Y-79132243D01*
X147388215Y-79106511D01*
X147300000Y-79097823D01*
X146712500Y-79100000D01*
X146600000Y-79212500D01*
X146400000Y-79212500D01*
X146287500Y-79100000D01*
X145700000Y-79097823D01*
X145611785Y-79106511D01*
X145526959Y-79132243D01*
X145448784Y-79174029D01*
X145380263Y-79230263D01*
X145324029Y-79298784D01*
X145282243Y-79376959D01*
X145256511Y-79461785D01*
X145247823Y-79550000D01*
X134950000Y-79550000D01*
X134950000Y-79000000D01*
X134941353Y-78912209D01*
X134915746Y-78827792D01*
X134874161Y-78749993D01*
X134818198Y-78681802D01*
X134318198Y-78181802D01*
X134250007Y-78125839D01*
X134172208Y-78084254D01*
X134087791Y-78058647D01*
X134000000Y-78050000D01*
X114250000Y-78050000D01*
X114162209Y-78058647D01*
X114077792Y-78084254D01*
X113999993Y-78125839D01*
X113931802Y-78181802D01*
X113431802Y-78681802D01*
X113375839Y-78749993D01*
X113334254Y-78827792D01*
X113308647Y-78912209D01*
X113300000Y-79000000D01*
X113300000Y-84813604D01*
X112313604Y-85800000D01*
X107000000Y-85800000D01*
X106912209Y-85808647D01*
X106827792Y-85834254D01*
X106749993Y-85875839D01*
X106681802Y-85931802D01*
X106181802Y-86431802D01*
X106125839Y-86499993D01*
X106084254Y-86577792D01*
X106058647Y-86662209D01*
X106050000Y-86750000D01*
X105475000Y-86750000D01*
X105475000Y-83042594D01*
X105664860Y-83326740D01*
X106173260Y-83835140D01*
X106771077Y-84234588D01*
X107435334Y-84509733D01*
X108140506Y-84650000D01*
X108859494Y-84650000D01*
X109564666Y-84509733D01*
X110228923Y-84234588D01*
X110826740Y-83835140D01*
X111335140Y-83326740D01*
X111734588Y-82728923D01*
X112009733Y-82064666D01*
X112150000Y-81359494D01*
X112150000Y-80640506D01*
X112009733Y-79935334D01*
X111734588Y-79271077D01*
X111335140Y-78673260D01*
X110826740Y-78164860D01*
X110542594Y-77975000D01*
X154457406Y-77975000D01*
X154173260Y-78164860D01*
%TD*%
M02*
