%TF.GenerationSoftware,KiCad,Pcbnew,(5.1.6-0)*%
%TF.CreationDate,2024-01-11T20:35:38-08:00*%
%TF.ProjectId,psu_15V_reg,7073755f-3135-4565-9f72-65672e6b6963,1.0*%
%TF.SameCoordinates,Original*%
%TF.FileFunction,Soldermask,Top*%
%TF.FilePolarity,Negative*%
%FSLAX46Y46*%
G04 Gerber Fmt 4.6, Leading zero omitted, Abs format (unit mm)*
G04 Created by KiCad (PCBNEW (5.1.6-0)) date 2024-01-11 20:35:38*
%MOMM*%
%LPD*%
G01*
G04 APERTURE LIST*
%ADD10C,0.900000*%
%ADD11C,6.500000*%
%ADD12R,6.500000X5.900000*%
%ADD13R,2.300000X1.300000*%
%ADD14C,2.100000*%
%ADD15R,1.900000X2.600000*%
%ADD16R,2.600000X1.900000*%
G04 APERTURE END LIST*
D10*
%TO.C,H4*%
X110197056Y-79302944D03*
X108500000Y-78600000D03*
X106802944Y-79302944D03*
X106100000Y-81000000D03*
X106802944Y-82697056D03*
X108500000Y-83400000D03*
X110197056Y-82697056D03*
X110900000Y-81000000D03*
D11*
X108500000Y-81000000D03*
%TD*%
D10*
%TO.C,H3*%
X158197056Y-79302944D03*
X156500000Y-78600000D03*
X154802944Y-79302944D03*
X154100000Y-81000000D03*
X154802944Y-82697056D03*
X156500000Y-83400000D03*
X158197056Y-82697056D03*
X158900000Y-81000000D03*
D11*
X156500000Y-81000000D03*
%TD*%
D10*
%TO.C,H2*%
X158197056Y-122302944D03*
X156500000Y-121600000D03*
X154802944Y-122302944D03*
X154100000Y-124000000D03*
X154802944Y-125697056D03*
X156500000Y-126400000D03*
X158197056Y-125697056D03*
X158900000Y-124000000D03*
D11*
X156500000Y-124000000D03*
%TD*%
D10*
%TO.C,H1*%
X110197056Y-122302944D03*
X108500000Y-121600000D03*
X106802944Y-122302944D03*
X106100000Y-124000000D03*
X106802944Y-125697056D03*
X108500000Y-126400000D03*
X110197056Y-125697056D03*
X110900000Y-124000000D03*
D11*
X108500000Y-124000000D03*
%TD*%
%TO.C,C2*%
G36*
G01*
X142415625Y-108400000D02*
X143584375Y-108400000D01*
G75*
G02*
X143850000Y-108665625I0J-265625D01*
G01*
X143850000Y-111234375D01*
G75*
G02*
X143584375Y-111500000I-265625J0D01*
G01*
X142415625Y-111500000D01*
G75*
G02*
X142150000Y-111234375I0J265625D01*
G01*
X142150000Y-108665625D01*
G75*
G02*
X142415625Y-108400000I265625J0D01*
G01*
G37*
G36*
G01*
X142415625Y-104000000D02*
X143584375Y-104000000D01*
G75*
G02*
X143850000Y-104265625I0J-265625D01*
G01*
X143850000Y-106834375D01*
G75*
G02*
X143584375Y-107100000I-265625J0D01*
G01*
X142415625Y-107100000D01*
G75*
G02*
X142150000Y-106834375I0J265625D01*
G01*
X142150000Y-104265625D01*
G75*
G02*
X142415625Y-104000000I265625J0D01*
G01*
G37*
%TD*%
%TO.C,C1*%
G36*
G01*
X147084375Y-82600000D02*
X145915625Y-82600000D01*
G75*
G02*
X145650000Y-82334375I0J265625D01*
G01*
X145650000Y-79765625D01*
G75*
G02*
X145915625Y-79500000I265625J0D01*
G01*
X147084375Y-79500000D01*
G75*
G02*
X147350000Y-79765625I0J-265625D01*
G01*
X147350000Y-82334375D01*
G75*
G02*
X147084375Y-82600000I-265625J0D01*
G01*
G37*
G36*
G01*
X147084375Y-87000000D02*
X145915625Y-87000000D01*
G75*
G02*
X145650000Y-86734375I0J265625D01*
G01*
X145650000Y-84165625D01*
G75*
G02*
X145915625Y-83900000I265625J0D01*
G01*
X147084375Y-83900000D01*
G75*
G02*
X147350000Y-84165625I0J-265625D01*
G01*
X147350000Y-86734375D01*
G75*
G02*
X147084375Y-87000000I-265625J0D01*
G01*
G37*
%TD*%
%TO.C,R4*%
G36*
G01*
X129595000Y-116475000D02*
X130905000Y-116475000D01*
G75*
G02*
X131175000Y-116745000I0J-270000D01*
G01*
X131175000Y-117555000D01*
G75*
G02*
X130905000Y-117825000I-270000J0D01*
G01*
X129595000Y-117825000D01*
G75*
G02*
X129325000Y-117555000I0J270000D01*
G01*
X129325000Y-116745000D01*
G75*
G02*
X129595000Y-116475000I270000J0D01*
G01*
G37*
G36*
G01*
X129595000Y-113675000D02*
X130905000Y-113675000D01*
G75*
G02*
X131175000Y-113945000I0J-270000D01*
G01*
X131175000Y-114755000D01*
G75*
G02*
X130905000Y-115025000I-270000J0D01*
G01*
X129595000Y-115025000D01*
G75*
G02*
X129325000Y-114755000I0J270000D01*
G01*
X129325000Y-113945000D01*
G75*
G02*
X129595000Y-113675000I270000J0D01*
G01*
G37*
%TD*%
%TO.C,R3*%
G36*
G01*
X125595000Y-108975000D02*
X126905000Y-108975000D01*
G75*
G02*
X127175000Y-109245000I0J-270000D01*
G01*
X127175000Y-110055000D01*
G75*
G02*
X126905000Y-110325000I-270000J0D01*
G01*
X125595000Y-110325000D01*
G75*
G02*
X125325000Y-110055000I0J270000D01*
G01*
X125325000Y-109245000D01*
G75*
G02*
X125595000Y-108975000I270000J0D01*
G01*
G37*
G36*
G01*
X125595000Y-106175000D02*
X126905000Y-106175000D01*
G75*
G02*
X127175000Y-106445000I0J-270000D01*
G01*
X127175000Y-107255000D01*
G75*
G02*
X126905000Y-107525000I-270000J0D01*
G01*
X125595000Y-107525000D01*
G75*
G02*
X125325000Y-107255000I0J270000D01*
G01*
X125325000Y-106445000D01*
G75*
G02*
X125595000Y-106175000I270000J0D01*
G01*
G37*
%TD*%
%TO.C,R2*%
G36*
G01*
X142975000Y-90405000D02*
X142975000Y-89095000D01*
G75*
G02*
X143245000Y-88825000I270000J0D01*
G01*
X144055000Y-88825000D01*
G75*
G02*
X144325000Y-89095000I0J-270000D01*
G01*
X144325000Y-90405000D01*
G75*
G02*
X144055000Y-90675000I-270000J0D01*
G01*
X143245000Y-90675000D01*
G75*
G02*
X142975000Y-90405000I0J270000D01*
G01*
G37*
G36*
G01*
X140175000Y-90405000D02*
X140175000Y-89095000D01*
G75*
G02*
X140445000Y-88825000I270000J0D01*
G01*
X141255000Y-88825000D01*
G75*
G02*
X141525000Y-89095000I0J-270000D01*
G01*
X141525000Y-90405000D01*
G75*
G02*
X141255000Y-90675000I-270000J0D01*
G01*
X140445000Y-90675000D01*
G75*
G02*
X140175000Y-90405000I0J270000D01*
G01*
G37*
%TD*%
%TO.C,R1*%
G36*
G01*
X135725000Y-98405000D02*
X135725000Y-97095000D01*
G75*
G02*
X135995000Y-96825000I270000J0D01*
G01*
X136805000Y-96825000D01*
G75*
G02*
X137075000Y-97095000I0J-270000D01*
G01*
X137075000Y-98405000D01*
G75*
G02*
X136805000Y-98675000I-270000J0D01*
G01*
X135995000Y-98675000D01*
G75*
G02*
X135725000Y-98405000I0J270000D01*
G01*
G37*
G36*
G01*
X132925000Y-98405000D02*
X132925000Y-97095000D01*
G75*
G02*
X133195000Y-96825000I270000J0D01*
G01*
X134005000Y-96825000D01*
G75*
G02*
X134275000Y-97095000I0J-270000D01*
G01*
X134275000Y-98405000D01*
G75*
G02*
X134005000Y-98675000I-270000J0D01*
G01*
X133195000Y-98675000D01*
G75*
G02*
X132925000Y-98405000I0J270000D01*
G01*
G37*
%TD*%
%TO.C,C4*%
G36*
G01*
X137345000Y-109725000D02*
X138655000Y-109725000D01*
G75*
G02*
X138925000Y-109995000I0J-270000D01*
G01*
X138925000Y-110805000D01*
G75*
G02*
X138655000Y-111075000I-270000J0D01*
G01*
X137345000Y-111075000D01*
G75*
G02*
X137075000Y-110805000I0J270000D01*
G01*
X137075000Y-109995000D01*
G75*
G02*
X137345000Y-109725000I270000J0D01*
G01*
G37*
G36*
G01*
X137345000Y-106925000D02*
X138655000Y-106925000D01*
G75*
G02*
X138925000Y-107195000I0J-270000D01*
G01*
X138925000Y-108005000D01*
G75*
G02*
X138655000Y-108275000I-270000J0D01*
G01*
X137345000Y-108275000D01*
G75*
G02*
X137075000Y-108005000I0J270000D01*
G01*
X137075000Y-107195000D01*
G75*
G02*
X137345000Y-106925000I270000J0D01*
G01*
G37*
%TD*%
%TO.C,C3*%
G36*
G01*
X141405000Y-83275000D02*
X140095000Y-83275000D01*
G75*
G02*
X139825000Y-83005000I0J270000D01*
G01*
X139825000Y-82195000D01*
G75*
G02*
X140095000Y-81925000I270000J0D01*
G01*
X141405000Y-81925000D01*
G75*
G02*
X141675000Y-82195000I0J-270000D01*
G01*
X141675000Y-83005000D01*
G75*
G02*
X141405000Y-83275000I-270000J0D01*
G01*
G37*
G36*
G01*
X141405000Y-86075000D02*
X140095000Y-86075000D01*
G75*
G02*
X139825000Y-85805000I0J270000D01*
G01*
X139825000Y-84995000D01*
G75*
G02*
X140095000Y-84725000I270000J0D01*
G01*
X141405000Y-84725000D01*
G75*
G02*
X141675000Y-84995000I0J-270000D01*
G01*
X141675000Y-85805000D01*
G75*
G02*
X141405000Y-86075000I-270000J0D01*
G01*
G37*
%TD*%
D12*
%TO.C,U2*%
X140100000Y-116250000D03*
D13*
X133800000Y-118530000D03*
X133800000Y-113970000D03*
%TD*%
D12*
%TO.C,U1*%
X130400000Y-87500000D03*
D13*
X136700000Y-85220000D03*
X136700000Y-89780000D03*
%TD*%
D14*
%TO.C,J2*%
X109000000Y-106000000D03*
X109000000Y-102500000D03*
X109000000Y-99000000D03*
%TD*%
%TO.C,J1*%
X156000000Y-99000000D03*
X156000000Y-102500000D03*
X156000000Y-106000000D03*
%TD*%
D15*
%TO.C,D4*%
X126250000Y-117750000D03*
X126250000Y-113750000D03*
%TD*%
D16*
%TO.C,D3*%
X136500000Y-94000000D03*
X132500000Y-94000000D03*
%TD*%
%TO.C,D2*%
X138000000Y-122500000D03*
X134000000Y-122500000D03*
%TD*%
%TO.C,D1*%
X132500000Y-81000000D03*
X136500000Y-81000000D03*
%TD*%
%TO.C,C8*%
G36*
G01*
X118513158Y-111350000D02*
X119986842Y-111350000D01*
G75*
G02*
X120250000Y-111613158I0J-263158D01*
G01*
X120250000Y-115336842D01*
G75*
G02*
X119986842Y-115600000I-263158J0D01*
G01*
X118513158Y-115600000D01*
G75*
G02*
X118250000Y-115336842I0J263158D01*
G01*
X118250000Y-111613158D01*
G75*
G02*
X118513158Y-111350000I263158J0D01*
G01*
G37*
G36*
G01*
X118513158Y-104400000D02*
X119986842Y-104400000D01*
G75*
G02*
X120250000Y-104663158I0J-263158D01*
G01*
X120250000Y-108386842D01*
G75*
G02*
X119986842Y-108650000I-263158J0D01*
G01*
X118513158Y-108650000D01*
G75*
G02*
X118250000Y-108386842I0J263158D01*
G01*
X118250000Y-104663158D01*
G75*
G02*
X118513158Y-104400000I263158J0D01*
G01*
G37*
%TD*%
%TO.C,C7*%
G36*
G01*
X118513158Y-96350000D02*
X119986842Y-96350000D01*
G75*
G02*
X120250000Y-96613158I0J-263158D01*
G01*
X120250000Y-100336842D01*
G75*
G02*
X119986842Y-100600000I-263158J0D01*
G01*
X118513158Y-100600000D01*
G75*
G02*
X118250000Y-100336842I0J263158D01*
G01*
X118250000Y-96613158D01*
G75*
G02*
X118513158Y-96350000I263158J0D01*
G01*
G37*
G36*
G01*
X118513158Y-89400000D02*
X119986842Y-89400000D01*
G75*
G02*
X120250000Y-89663158I0J-263158D01*
G01*
X120250000Y-93386842D01*
G75*
G02*
X119986842Y-93650000I-263158J0D01*
G01*
X118513158Y-93650000D01*
G75*
G02*
X118250000Y-93386842I0J263158D01*
G01*
X118250000Y-89663158D01*
G75*
G02*
X118513158Y-89400000I263158J0D01*
G01*
G37*
%TD*%
%TO.C,C6*%
G36*
G01*
X131665625Y-107750000D02*
X132834375Y-107750000D01*
G75*
G02*
X133100000Y-108015625I0J-265625D01*
G01*
X133100000Y-111084375D01*
G75*
G02*
X132834375Y-111350000I-265625J0D01*
G01*
X131665625Y-111350000D01*
G75*
G02*
X131400000Y-111084375I0J265625D01*
G01*
X131400000Y-108015625D01*
G75*
G02*
X131665625Y-107750000I265625J0D01*
G01*
G37*
G36*
G01*
X131665625Y-102150000D02*
X132834375Y-102150000D01*
G75*
G02*
X133100000Y-102415625I0J-265625D01*
G01*
X133100000Y-105484375D01*
G75*
G02*
X132834375Y-105750000I-265625J0D01*
G01*
X131665625Y-105750000D01*
G75*
G02*
X131400000Y-105484375I0J265625D01*
G01*
X131400000Y-102415625D01*
G75*
G02*
X131665625Y-102150000I265625J0D01*
G01*
G37*
%TD*%
%TO.C,C5*%
G36*
G01*
X145250000Y-96334375D02*
X145250000Y-95165625D01*
G75*
G02*
X145515625Y-94900000I265625J0D01*
G01*
X148584375Y-94900000D01*
G75*
G02*
X148850000Y-95165625I0J-265625D01*
G01*
X148850000Y-96334375D01*
G75*
G02*
X148584375Y-96600000I-265625J0D01*
G01*
X145515625Y-96600000D01*
G75*
G02*
X145250000Y-96334375I0J265625D01*
G01*
G37*
G36*
G01*
X139650000Y-96334375D02*
X139650000Y-95165625D01*
G75*
G02*
X139915625Y-94900000I265625J0D01*
G01*
X142984375Y-94900000D01*
G75*
G02*
X143250000Y-95165625I0J-265625D01*
G01*
X143250000Y-96334375D01*
G75*
G02*
X142984375Y-96600000I-265625J0D01*
G01*
X139915625Y-96600000D01*
G75*
G02*
X139650000Y-96334375I0J265625D01*
G01*
G37*
%TD*%
M02*
