%TF.GenerationSoftware,KiCad,Pcbnew,(5.1.6-0)*%
%TF.CreationDate,2024-01-11T20:35:38-08:00*%
%TF.ProjectId,psu_15V_reg,7073755f-3135-4565-9f72-65672e6b6963,1.0*%
%TF.SameCoordinates,Original*%
%TF.FileFunction,Legend,Bot*%
%TF.FilePolarity,Positive*%
%FSLAX46Y46*%
G04 Gerber Fmt 4.6, Leading zero omitted, Abs format (unit mm)*
G04 Created by KiCad (PCBNEW (5.1.6-0)) date 2024-01-11 20:35:38*
%MOMM*%
%LPD*%
G01*
G04 APERTURE LIST*
%ADD10C,0.150000*%
G04 APERTURE END LIST*
D10*
X123297619Y-82627380D02*
X123297619Y-83341666D01*
X123345238Y-83484523D01*
X123440476Y-83579761D01*
X123583333Y-83627380D01*
X123678571Y-83627380D01*
X122392857Y-83627380D02*
X122392857Y-83103571D01*
X122440476Y-83008333D01*
X122535714Y-82960714D01*
X122726190Y-82960714D01*
X122821428Y-83008333D01*
X122392857Y-83579761D02*
X122488095Y-83627380D01*
X122726190Y-83627380D01*
X122821428Y-83579761D01*
X122869047Y-83484523D01*
X122869047Y-83389285D01*
X122821428Y-83294047D01*
X122726190Y-83246428D01*
X122488095Y-83246428D01*
X122392857Y-83198809D01*
X121916666Y-82960714D02*
X121916666Y-83627380D01*
X121916666Y-83055952D02*
X121869047Y-83008333D01*
X121773809Y-82960714D01*
X121630952Y-82960714D01*
X121535714Y-83008333D01*
X121488095Y-83103571D01*
X121488095Y-83627380D01*
X120297619Y-82722619D02*
X120250000Y-82675000D01*
X120154761Y-82627380D01*
X119916666Y-82627380D01*
X119821428Y-82675000D01*
X119773809Y-82722619D01*
X119726190Y-82817857D01*
X119726190Y-82913095D01*
X119773809Y-83055952D01*
X120345238Y-83627380D01*
X119726190Y-83627380D01*
X119107142Y-82627380D02*
X119011904Y-82627380D01*
X118916666Y-82675000D01*
X118869047Y-82722619D01*
X118821428Y-82817857D01*
X118773809Y-83008333D01*
X118773809Y-83246428D01*
X118821428Y-83436904D01*
X118869047Y-83532142D01*
X118916666Y-83579761D01*
X119011904Y-83627380D01*
X119107142Y-83627380D01*
X119202380Y-83579761D01*
X119250000Y-83532142D01*
X119297619Y-83436904D01*
X119345238Y-83246428D01*
X119345238Y-83008333D01*
X119297619Y-82817857D01*
X119250000Y-82722619D01*
X119202380Y-82675000D01*
X119107142Y-82627380D01*
X118392857Y-82722619D02*
X118345238Y-82675000D01*
X118250000Y-82627380D01*
X118011904Y-82627380D01*
X117916666Y-82675000D01*
X117869047Y-82722619D01*
X117821428Y-82817857D01*
X117821428Y-82913095D01*
X117869047Y-83055952D01*
X118440476Y-83627380D01*
X117821428Y-83627380D01*
X116964285Y-82960714D02*
X116964285Y-83627380D01*
X117202380Y-82579761D02*
X117440476Y-83294047D01*
X116821428Y-83294047D01*
X122321428Y-85277380D02*
X122654761Y-84801190D01*
X122892857Y-85277380D02*
X122892857Y-84277380D01*
X122511904Y-84277380D01*
X122416666Y-84325000D01*
X122369047Y-84372619D01*
X122321428Y-84467857D01*
X122321428Y-84610714D01*
X122369047Y-84705952D01*
X122416666Y-84753571D01*
X122511904Y-84801190D01*
X122892857Y-84801190D01*
X121511904Y-85229761D02*
X121607142Y-85277380D01*
X121797619Y-85277380D01*
X121892857Y-85229761D01*
X121940476Y-85134523D01*
X121940476Y-84753571D01*
X121892857Y-84658333D01*
X121797619Y-84610714D01*
X121607142Y-84610714D01*
X121511904Y-84658333D01*
X121464285Y-84753571D01*
X121464285Y-84848809D01*
X121940476Y-84944047D01*
X121130952Y-84610714D02*
X120892857Y-85277380D01*
X120654761Y-84610714D01*
X118988095Y-85277380D02*
X119559523Y-85277380D01*
X119273809Y-85277380D02*
X119273809Y-84277380D01*
X119369047Y-84420238D01*
X119464285Y-84515476D01*
X119559523Y-84563095D01*
X118559523Y-85182142D02*
X118511904Y-85229761D01*
X118559523Y-85277380D01*
X118607142Y-85229761D01*
X118559523Y-85182142D01*
X118559523Y-85277380D01*
X117892857Y-84277380D02*
X117797619Y-84277380D01*
X117702380Y-84325000D01*
X117654761Y-84372619D01*
X117607142Y-84467857D01*
X117559523Y-84658333D01*
X117559523Y-84896428D01*
X117607142Y-85086904D01*
X117654761Y-85182142D01*
X117702380Y-85229761D01*
X117797619Y-85277380D01*
X117892857Y-85277380D01*
X117988095Y-85229761D01*
X118035714Y-85182142D01*
X118083333Y-85086904D01*
X118130952Y-84896428D01*
X118130952Y-84658333D01*
X118083333Y-84467857D01*
X118035714Y-84372619D01*
X117988095Y-84325000D01*
X117892857Y-84277380D01*
M02*
