%TF.GenerationSoftware,KiCad,Pcbnew,(5.1.6-0)*%
%TF.CreationDate,2024-01-11T20:43:49-08:00*%
%TF.ProjectId,psu_15V_reg,7073755f-3135-4565-9f72-65672e6b6963,1.0*%
%TF.SameCoordinates,Original*%
%TF.FileFunction,Legend,Top*%
%TF.FilePolarity,Positive*%
%FSLAX46Y46*%
G04 Gerber Fmt 4.6, Leading zero omitted, Abs format (unit mm)*
G04 Created by KiCad (PCBNEW (5.1.6-0)) date 2024-01-11 20:43:49*
%MOMM*%
%LPD*%
G01*
G04 APERTURE LIST*
%ADD10C,0.150000*%
%ADD11C,0.120000*%
G04 APERTURE END LIST*
D10*
X143797619Y-114559523D02*
X143797619Y-114083333D01*
X144797619Y-114083333D01*
X143797619Y-114892857D02*
X144797619Y-114892857D01*
X144083333Y-115226190D01*
X144797619Y-115559523D01*
X143797619Y-115559523D01*
X144797619Y-115940476D02*
X144797619Y-116559523D01*
X144416666Y-116226190D01*
X144416666Y-116369047D01*
X144369047Y-116464285D01*
X144321428Y-116511904D01*
X144226190Y-116559523D01*
X143988095Y-116559523D01*
X143892857Y-116511904D01*
X143845238Y-116464285D01*
X143797619Y-116369047D01*
X143797619Y-116083333D01*
X143845238Y-115988095D01*
X143892857Y-115940476D01*
X144797619Y-116892857D02*
X144797619Y-117511904D01*
X144416666Y-117178571D01*
X144416666Y-117321428D01*
X144369047Y-117416666D01*
X144321428Y-117464285D01*
X144226190Y-117511904D01*
X143988095Y-117511904D01*
X143892857Y-117464285D01*
X143845238Y-117416666D01*
X143797619Y-117321428D01*
X143797619Y-117035714D01*
X143845238Y-116940476D01*
X143892857Y-116892857D01*
X144797619Y-117845238D02*
X144797619Y-118511904D01*
X143797619Y-118083333D01*
X126702380Y-89190476D02*
X126702380Y-89666666D01*
X125702380Y-89666666D01*
X126702380Y-88857142D02*
X125702380Y-88857142D01*
X126416666Y-88523809D01*
X125702380Y-88190476D01*
X126702380Y-88190476D01*
X125702380Y-87809523D02*
X125702380Y-87190476D01*
X126083333Y-87523809D01*
X126083333Y-87380952D01*
X126130952Y-87285714D01*
X126178571Y-87238095D01*
X126273809Y-87190476D01*
X126511904Y-87190476D01*
X126607142Y-87238095D01*
X126654761Y-87285714D01*
X126702380Y-87380952D01*
X126702380Y-87666666D01*
X126654761Y-87761904D01*
X126607142Y-87809523D01*
X126702380Y-86238095D02*
X126702380Y-86809523D01*
X126702380Y-86523809D02*
X125702380Y-86523809D01*
X125845238Y-86619047D01*
X125940476Y-86714285D01*
X125988095Y-86809523D01*
X125702380Y-85904761D02*
X125702380Y-85238095D01*
X126702380Y-85666666D01*
X140166666Y-91952380D02*
X139833333Y-91476190D01*
X139595238Y-91952380D02*
X139595238Y-90952380D01*
X139976190Y-90952380D01*
X140071428Y-91000000D01*
X140119047Y-91047619D01*
X140166666Y-91142857D01*
X140166666Y-91285714D01*
X140119047Y-91380952D01*
X140071428Y-91428571D01*
X139976190Y-91476190D01*
X139595238Y-91476190D01*
X141023809Y-91952380D02*
X141023809Y-91428571D01*
X140976190Y-91333333D01*
X140880952Y-91285714D01*
X140690476Y-91285714D01*
X140595238Y-91333333D01*
X141023809Y-91904761D02*
X140928571Y-91952380D01*
X140690476Y-91952380D01*
X140595238Y-91904761D01*
X140547619Y-91809523D01*
X140547619Y-91714285D01*
X140595238Y-91619047D01*
X140690476Y-91571428D01*
X140928571Y-91571428D01*
X141023809Y-91523809D01*
X141928571Y-91952380D02*
X141928571Y-90952380D01*
X141928571Y-91904761D02*
X141833333Y-91952380D01*
X141642857Y-91952380D01*
X141547619Y-91904761D01*
X141500000Y-91857142D01*
X141452380Y-91761904D01*
X141452380Y-91476190D01*
X141500000Y-91380952D01*
X141547619Y-91333333D01*
X141642857Y-91285714D01*
X141833333Y-91285714D01*
X141928571Y-91333333D01*
X142404761Y-91285714D02*
X142404761Y-92142857D01*
X142357142Y-92238095D01*
X142261904Y-92285714D01*
X142214285Y-92285714D01*
X142404761Y-90952380D02*
X142357142Y-91000000D01*
X142404761Y-91047619D01*
X142452380Y-91000000D01*
X142404761Y-90952380D01*
X142404761Y-91047619D01*
X128452380Y-109583333D02*
X127976190Y-109916666D01*
X128452380Y-110154761D02*
X127452380Y-110154761D01*
X127452380Y-109773809D01*
X127500000Y-109678571D01*
X127547619Y-109630952D01*
X127642857Y-109583333D01*
X127785714Y-109583333D01*
X127880952Y-109630952D01*
X127928571Y-109678571D01*
X127976190Y-109773809D01*
X127976190Y-110154761D01*
X128452380Y-108726190D02*
X127928571Y-108726190D01*
X127833333Y-108773809D01*
X127785714Y-108869047D01*
X127785714Y-109059523D01*
X127833333Y-109154761D01*
X128404761Y-108726190D02*
X128452380Y-108821428D01*
X128452380Y-109059523D01*
X128404761Y-109154761D01*
X128309523Y-109202380D01*
X128214285Y-109202380D01*
X128119047Y-109154761D01*
X128071428Y-109059523D01*
X128071428Y-108821428D01*
X128023809Y-108726190D01*
X128452380Y-107821428D02*
X127452380Y-107821428D01*
X128404761Y-107821428D02*
X128452380Y-107916666D01*
X128452380Y-108107142D01*
X128404761Y-108202380D01*
X128357142Y-108250000D01*
X128261904Y-108297619D01*
X127976190Y-108297619D01*
X127880952Y-108250000D01*
X127833333Y-108202380D01*
X127785714Y-108107142D01*
X127785714Y-107916666D01*
X127833333Y-107821428D01*
X127785714Y-107345238D02*
X128642857Y-107345238D01*
X128738095Y-107392857D01*
X128785714Y-107488095D01*
X128785714Y-107535714D01*
X127452380Y-107345238D02*
X127500000Y-107392857D01*
X127547619Y-107345238D01*
X127500000Y-107297619D01*
X127452380Y-107345238D01*
X127547619Y-107345238D01*
X114047619Y-106357142D02*
X113047619Y-106690476D01*
X114047619Y-107023809D01*
X113047619Y-107500000D02*
X113095238Y-107404761D01*
X113142857Y-107357142D01*
X113238095Y-107309523D01*
X113523809Y-107309523D01*
X113619047Y-107357142D01*
X113666666Y-107404761D01*
X113714285Y-107500000D01*
X113714285Y-107642857D01*
X113666666Y-107738095D01*
X113619047Y-107785714D01*
X113523809Y-107833333D01*
X113238095Y-107833333D01*
X113142857Y-107785714D01*
X113095238Y-107738095D01*
X113047619Y-107642857D01*
X113047619Y-107500000D01*
X113714285Y-108690476D02*
X113047619Y-108690476D01*
X113714285Y-108261904D02*
X113190476Y-108261904D01*
X113095238Y-108309523D01*
X113047619Y-108404761D01*
X113047619Y-108547619D01*
X113095238Y-108642857D01*
X113142857Y-108690476D01*
X113714285Y-109023809D02*
X113714285Y-109404761D01*
X114047619Y-109166666D02*
X113190476Y-109166666D01*
X113095238Y-109214285D01*
X113047619Y-109309523D01*
X113047619Y-109404761D01*
X113428571Y-109738095D02*
X113428571Y-110500000D01*
X114297619Y-95107142D02*
X113297619Y-95440476D01*
X114297619Y-95773809D01*
X113297619Y-96250000D02*
X113345238Y-96154761D01*
X113392857Y-96107142D01*
X113488095Y-96059523D01*
X113773809Y-96059523D01*
X113869047Y-96107142D01*
X113916666Y-96154761D01*
X113964285Y-96250000D01*
X113964285Y-96392857D01*
X113916666Y-96488095D01*
X113869047Y-96535714D01*
X113773809Y-96583333D01*
X113488095Y-96583333D01*
X113392857Y-96535714D01*
X113345238Y-96488095D01*
X113297619Y-96392857D01*
X113297619Y-96250000D01*
X113964285Y-97440476D02*
X113297619Y-97440476D01*
X113964285Y-97011904D02*
X113440476Y-97011904D01*
X113345238Y-97059523D01*
X113297619Y-97154761D01*
X113297619Y-97297619D01*
X113345238Y-97392857D01*
X113392857Y-97440476D01*
X113964285Y-97773809D02*
X113964285Y-98154761D01*
X114297619Y-97916666D02*
X113440476Y-97916666D01*
X113345238Y-97964285D01*
X113297619Y-98059523D01*
X113297619Y-98154761D01*
X113678571Y-98488095D02*
X113678571Y-99250000D01*
X113297619Y-98869047D02*
X114059523Y-98869047D01*
X114000000Y-101738095D02*
X114047619Y-101642857D01*
X114047619Y-101500000D01*
X114000000Y-101357142D01*
X113904761Y-101261904D01*
X113809523Y-101214285D01*
X113619047Y-101166666D01*
X113476190Y-101166666D01*
X113285714Y-101214285D01*
X113190476Y-101261904D01*
X113095238Y-101357142D01*
X113047619Y-101500000D01*
X113047619Y-101595238D01*
X113095238Y-101738095D01*
X113142857Y-101785714D01*
X113476190Y-101785714D01*
X113476190Y-101595238D01*
X113047619Y-102214285D02*
X114047619Y-102214285D01*
X113047619Y-102785714D01*
X114047619Y-102785714D01*
X113047619Y-103261904D02*
X114047619Y-103261904D01*
X114047619Y-103500000D01*
X114000000Y-103642857D01*
X113904761Y-103738095D01*
X113809523Y-103785714D01*
X113619047Y-103833333D01*
X113476190Y-103833333D01*
X113285714Y-103785714D01*
X113190476Y-103738095D01*
X113095238Y-103642857D01*
X113047619Y-103500000D01*
X113047619Y-103261904D01*
X150702380Y-99392857D02*
X151702380Y-99059523D01*
X150702380Y-98726190D01*
X151702380Y-98392857D02*
X151035714Y-98392857D01*
X150702380Y-98392857D02*
X150750000Y-98440476D01*
X150797619Y-98392857D01*
X150750000Y-98345238D01*
X150702380Y-98392857D01*
X150797619Y-98392857D01*
X151035714Y-97916666D02*
X151702380Y-97916666D01*
X151130952Y-97916666D02*
X151083333Y-97869047D01*
X151035714Y-97773809D01*
X151035714Y-97630952D01*
X151083333Y-97535714D01*
X151178571Y-97488095D01*
X151702380Y-97488095D01*
X151321428Y-97011904D02*
X151321428Y-96250000D01*
X151702380Y-96630952D02*
X150940476Y-96630952D01*
X150702380Y-108142857D02*
X151702380Y-107809523D01*
X150702380Y-107476190D01*
X151702380Y-107142857D02*
X151035714Y-107142857D01*
X150702380Y-107142857D02*
X150750000Y-107190476D01*
X150797619Y-107142857D01*
X150750000Y-107095238D01*
X150702380Y-107142857D01*
X150797619Y-107142857D01*
X151035714Y-106666666D02*
X151702380Y-106666666D01*
X151130952Y-106666666D02*
X151083333Y-106619047D01*
X151035714Y-106523809D01*
X151035714Y-106380952D01*
X151083333Y-106285714D01*
X151178571Y-106238095D01*
X151702380Y-106238095D01*
X151321428Y-105761904D02*
X151321428Y-105000000D01*
X150750000Y-103261904D02*
X150702380Y-103357142D01*
X150702380Y-103500000D01*
X150750000Y-103642857D01*
X150845238Y-103738095D01*
X150940476Y-103785714D01*
X151130952Y-103833333D01*
X151273809Y-103833333D01*
X151464285Y-103785714D01*
X151559523Y-103738095D01*
X151654761Y-103642857D01*
X151702380Y-103500000D01*
X151702380Y-103404761D01*
X151654761Y-103261904D01*
X151607142Y-103214285D01*
X151273809Y-103214285D01*
X151273809Y-103404761D01*
X151702380Y-102785714D02*
X150702380Y-102785714D01*
X151702380Y-102214285D01*
X150702380Y-102214285D01*
X151702380Y-101738095D02*
X150702380Y-101738095D01*
X150702380Y-101500000D01*
X150750000Y-101357142D01*
X150845238Y-101261904D01*
X150940476Y-101214285D01*
X151130952Y-101166666D01*
X151273809Y-101166666D01*
X151464285Y-101214285D01*
X151559523Y-101261904D01*
X151654761Y-101357142D01*
X151702380Y-101500000D01*
X151702380Y-101738095D01*
X145642857Y-112460714D02*
X145880952Y-113127380D01*
X146119047Y-112460714D01*
X146642857Y-113127380D02*
X146547619Y-113079761D01*
X146500000Y-113032142D01*
X146452380Y-112936904D01*
X146452380Y-112651190D01*
X146500000Y-112555952D01*
X146547619Y-112508333D01*
X146642857Y-112460714D01*
X146785714Y-112460714D01*
X146880952Y-112508333D01*
X146928571Y-112555952D01*
X146976190Y-112651190D01*
X146976190Y-112936904D01*
X146928571Y-113032142D01*
X146880952Y-113079761D01*
X146785714Y-113127380D01*
X146642857Y-113127380D01*
X147547619Y-113127380D02*
X147452380Y-113079761D01*
X147404761Y-112984523D01*
X147404761Y-112127380D01*
X147785714Y-112460714D02*
X148166666Y-112460714D01*
X147928571Y-112127380D02*
X147928571Y-112984523D01*
X147976190Y-113079761D01*
X148071428Y-113127380D01*
X148166666Y-113127380D01*
X148928571Y-113127380D02*
X148928571Y-112603571D01*
X148880952Y-112508333D01*
X148785714Y-112460714D01*
X148595238Y-112460714D01*
X148500000Y-112508333D01*
X148928571Y-113079761D02*
X148833333Y-113127380D01*
X148595238Y-113127380D01*
X148500000Y-113079761D01*
X148452380Y-112984523D01*
X148452380Y-112889285D01*
X148500000Y-112794047D01*
X148595238Y-112746428D01*
X148833333Y-112746428D01*
X148928571Y-112698809D01*
X149833333Y-112460714D02*
X149833333Y-113270238D01*
X149785714Y-113365476D01*
X149738095Y-113413095D01*
X149642857Y-113460714D01*
X149500000Y-113460714D01*
X149404761Y-113413095D01*
X149833333Y-113079761D02*
X149738095Y-113127380D01*
X149547619Y-113127380D01*
X149452380Y-113079761D01*
X149404761Y-113032142D01*
X149357142Y-112936904D01*
X149357142Y-112651190D01*
X149404761Y-112555952D01*
X149452380Y-112508333D01*
X149547619Y-112460714D01*
X149738095Y-112460714D01*
X149833333Y-112508333D01*
X150690476Y-113079761D02*
X150595238Y-113127380D01*
X150404761Y-113127380D01*
X150309523Y-113079761D01*
X150261904Y-112984523D01*
X150261904Y-112603571D01*
X150309523Y-112508333D01*
X150404761Y-112460714D01*
X150595238Y-112460714D01*
X150690476Y-112508333D01*
X150738095Y-112603571D01*
X150738095Y-112698809D01*
X150261904Y-112794047D01*
X151928571Y-113127380D02*
X151928571Y-112460714D01*
X151928571Y-112651190D02*
X151976190Y-112555952D01*
X152023809Y-112508333D01*
X152119047Y-112460714D01*
X152214285Y-112460714D01*
X152928571Y-113079761D02*
X152833333Y-113127380D01*
X152642857Y-113127380D01*
X152547619Y-113079761D01*
X152500000Y-112984523D01*
X152500000Y-112603571D01*
X152547619Y-112508333D01*
X152642857Y-112460714D01*
X152833333Y-112460714D01*
X152928571Y-112508333D01*
X152976190Y-112603571D01*
X152976190Y-112698809D01*
X152500000Y-112794047D01*
X153833333Y-112460714D02*
X153833333Y-113270238D01*
X153785714Y-113365476D01*
X153738095Y-113413095D01*
X153642857Y-113460714D01*
X153500000Y-113460714D01*
X153404761Y-113413095D01*
X153833333Y-113079761D02*
X153738095Y-113127380D01*
X153547619Y-113127380D01*
X153452380Y-113079761D01*
X153404761Y-113032142D01*
X153357142Y-112936904D01*
X153357142Y-112651190D01*
X153404761Y-112555952D01*
X153452380Y-112508333D01*
X153547619Y-112460714D01*
X153738095Y-112460714D01*
X153833333Y-112508333D01*
X154738095Y-112460714D02*
X154738095Y-113127380D01*
X154309523Y-112460714D02*
X154309523Y-112984523D01*
X154357142Y-113079761D01*
X154452380Y-113127380D01*
X154595238Y-113127380D01*
X154690476Y-113079761D01*
X154738095Y-113032142D01*
X155357142Y-113127380D02*
X155261904Y-113079761D01*
X155214285Y-112984523D01*
X155214285Y-112127380D01*
X156166666Y-113127380D02*
X156166666Y-112603571D01*
X156119047Y-112508333D01*
X156023809Y-112460714D01*
X155833333Y-112460714D01*
X155738095Y-112508333D01*
X156166666Y-113079761D02*
X156071428Y-113127380D01*
X155833333Y-113127380D01*
X155738095Y-113079761D01*
X155690476Y-112984523D01*
X155690476Y-112889285D01*
X155738095Y-112794047D01*
X155833333Y-112746428D01*
X156071428Y-112746428D01*
X156166666Y-112698809D01*
X156500000Y-112460714D02*
X156880952Y-112460714D01*
X156642857Y-112127380D02*
X156642857Y-112984523D01*
X156690476Y-113079761D01*
X156785714Y-113127380D01*
X156880952Y-113127380D01*
X157357142Y-113127380D02*
X157261904Y-113079761D01*
X157214285Y-113032142D01*
X157166666Y-112936904D01*
X157166666Y-112651190D01*
X157214285Y-112555952D01*
X157261904Y-112508333D01*
X157357142Y-112460714D01*
X157500000Y-112460714D01*
X157595238Y-112508333D01*
X157642857Y-112555952D01*
X157690476Y-112651190D01*
X157690476Y-112936904D01*
X157642857Y-113032142D01*
X157595238Y-113079761D01*
X157500000Y-113127380D01*
X157357142Y-113127380D01*
X158119047Y-113127380D02*
X158119047Y-112460714D01*
X158119047Y-112651190D02*
X158166666Y-112555952D01*
X158214285Y-112508333D01*
X158309523Y-112460714D01*
X158404761Y-112460714D01*
X150119047Y-114777380D02*
X150119047Y-113777380D01*
X150119047Y-114158333D02*
X150214285Y-114110714D01*
X150404761Y-114110714D01*
X150500000Y-114158333D01*
X150547619Y-114205952D01*
X150595238Y-114301190D01*
X150595238Y-114586904D01*
X150547619Y-114682142D01*
X150500000Y-114729761D01*
X150404761Y-114777380D01*
X150214285Y-114777380D01*
X150119047Y-114729761D01*
X151166666Y-114777380D02*
X151071428Y-114729761D01*
X151023809Y-114682142D01*
X150976190Y-114586904D01*
X150976190Y-114301190D01*
X151023809Y-114205952D01*
X151071428Y-114158333D01*
X151166666Y-114110714D01*
X151309523Y-114110714D01*
X151404761Y-114158333D01*
X151452380Y-114205952D01*
X151500000Y-114301190D01*
X151500000Y-114586904D01*
X151452380Y-114682142D01*
X151404761Y-114729761D01*
X151309523Y-114777380D01*
X151166666Y-114777380D01*
X152357142Y-114777380D02*
X152357142Y-114253571D01*
X152309523Y-114158333D01*
X152214285Y-114110714D01*
X152023809Y-114110714D01*
X151928571Y-114158333D01*
X152357142Y-114729761D02*
X152261904Y-114777380D01*
X152023809Y-114777380D01*
X151928571Y-114729761D01*
X151880952Y-114634523D01*
X151880952Y-114539285D01*
X151928571Y-114444047D01*
X152023809Y-114396428D01*
X152261904Y-114396428D01*
X152357142Y-114348809D01*
X152833333Y-114777380D02*
X152833333Y-114110714D01*
X152833333Y-114301190D02*
X152880952Y-114205952D01*
X152928571Y-114158333D01*
X153023809Y-114110714D01*
X153119047Y-114110714D01*
X153880952Y-114777380D02*
X153880952Y-113777380D01*
X153880952Y-114729761D02*
X153785714Y-114777380D01*
X153595238Y-114777380D01*
X153500000Y-114729761D01*
X153452380Y-114682142D01*
X153404761Y-114586904D01*
X153404761Y-114301190D01*
X153452380Y-114205952D01*
X153500000Y-114158333D01*
X153595238Y-114110714D01*
X153785714Y-114110714D01*
X153880952Y-114158333D01*
X115257157Y-80702380D02*
X115382157Y-79702380D01*
X115763110Y-79702380D01*
X115852395Y-79750000D01*
X115894062Y-79797619D01*
X115929776Y-79892857D01*
X115911919Y-80035714D01*
X115852395Y-80130952D01*
X115798824Y-80178571D01*
X115697633Y-80226190D01*
X115316681Y-80226190D01*
X116685729Y-80702380D02*
X116751205Y-80178571D01*
X116715491Y-80083333D01*
X116626205Y-80035714D01*
X116435729Y-80035714D01*
X116334538Y-80083333D01*
X116691681Y-80654761D02*
X116590491Y-80702380D01*
X116352395Y-80702380D01*
X116263110Y-80654761D01*
X116227395Y-80559523D01*
X116239300Y-80464285D01*
X116298824Y-80369047D01*
X116400014Y-80321428D01*
X116638110Y-80321428D01*
X116739300Y-80273809D01*
X117150014Y-80035714D02*
X117304776Y-80702380D01*
X117626205Y-80035714D01*
X118066681Y-80702380D02*
X117977395Y-80654761D01*
X117941681Y-80559523D01*
X118048824Y-79702380D01*
X118590491Y-80702380D02*
X118501205Y-80654761D01*
X118459538Y-80607142D01*
X118423824Y-80511904D01*
X118459538Y-80226190D01*
X118519062Y-80130952D01*
X118572633Y-80083333D01*
X118673824Y-80035714D01*
X118816681Y-80035714D01*
X118905967Y-80083333D01*
X118947633Y-80130952D01*
X118983348Y-80226190D01*
X118947633Y-80511904D01*
X118888110Y-80607142D01*
X118834538Y-80654761D01*
X118733348Y-80702380D01*
X118590491Y-80702380D01*
X119525014Y-79702380D02*
X119519062Y-79750000D01*
X119459538Y-79845238D01*
X119405967Y-79892857D01*
X119786919Y-80654761D02*
X119876205Y-80702380D01*
X120066681Y-80702380D01*
X120167872Y-80654761D01*
X120227395Y-80559523D01*
X120233348Y-80511904D01*
X120197633Y-80416666D01*
X120108348Y-80369047D01*
X119965491Y-80369047D01*
X119876205Y-80321428D01*
X119840491Y-80226190D01*
X119846443Y-80178571D01*
X119905967Y-80083333D01*
X120007157Y-80035714D01*
X120150014Y-80035714D01*
X120239300Y-80083333D01*
X121876205Y-80702380D02*
X121400014Y-80702380D01*
X121525014Y-79702380D01*
X122638110Y-80702380D02*
X122703586Y-80178571D01*
X122667872Y-80083333D01*
X122578586Y-80035714D01*
X122388110Y-80035714D01*
X122286919Y-80083333D01*
X122644062Y-80654761D02*
X122542872Y-80702380D01*
X122304776Y-80702380D01*
X122215491Y-80654761D01*
X122179776Y-80559523D01*
X122191681Y-80464285D01*
X122251205Y-80369047D01*
X122352395Y-80321428D01*
X122590491Y-80321428D01*
X122691681Y-80273809D01*
X123114300Y-80702380D02*
X123239300Y-79702380D01*
X123191681Y-80083333D02*
X123292872Y-80035714D01*
X123483348Y-80035714D01*
X123572633Y-80083333D01*
X123614300Y-80130952D01*
X123650014Y-80226190D01*
X123614300Y-80511904D01*
X123554776Y-80607142D01*
X123501205Y-80654761D01*
X123400014Y-80702380D01*
X123209538Y-80702380D01*
X123120252Y-80654761D01*
D11*
%TO.C,C2*%
X140240000Y-110510000D02*
X141940000Y-110510000D01*
X145760000Y-110510000D02*
X144060000Y-110510000D01*
X145760000Y-106054437D02*
X145760000Y-110510000D01*
X140240000Y-106054437D02*
X140240000Y-110510000D01*
X141304437Y-104990000D02*
X141940000Y-104990000D01*
X144695563Y-104990000D02*
X144060000Y-104990000D01*
X144695563Y-104990000D02*
X145760000Y-106054437D01*
X141304437Y-104990000D02*
X140240000Y-106054437D01*
X144685000Y-104125000D02*
X144685000Y-104750000D01*
X144997500Y-104437500D02*
X144372500Y-104437500D01*
%TO.C,C1*%
X149260000Y-80490000D02*
X147560000Y-80490000D01*
X143740000Y-80490000D02*
X145440000Y-80490000D01*
X143740000Y-84945563D02*
X143740000Y-80490000D01*
X149260000Y-84945563D02*
X149260000Y-80490000D01*
X148195563Y-86010000D02*
X147560000Y-86010000D01*
X144804437Y-86010000D02*
X145440000Y-86010000D01*
X144804437Y-86010000D02*
X143740000Y-84945563D01*
X148195563Y-86010000D02*
X149260000Y-84945563D01*
X144815000Y-86875000D02*
X144815000Y-86250000D01*
X144502500Y-86562500D02*
X145127500Y-86562500D01*
%TO.C,R4*%
X129340000Y-115147936D02*
X129340000Y-116352064D01*
X131160000Y-115147936D02*
X131160000Y-116352064D01*
%TO.C,R3*%
X125340000Y-107647936D02*
X125340000Y-108852064D01*
X127160000Y-107647936D02*
X127160000Y-108852064D01*
%TO.C,R2*%
X141647936Y-90660000D02*
X142852064Y-90660000D01*
X141647936Y-88840000D02*
X142852064Y-88840000D01*
%TO.C,R1*%
X134397936Y-98660000D02*
X135602064Y-98660000D01*
X134397936Y-96840000D02*
X135602064Y-96840000D01*
%TO.C,C4*%
X137090000Y-108397936D02*
X137090000Y-109602064D01*
X138910000Y-108397936D02*
X138910000Y-109602064D01*
%TO.C,C3*%
X141660000Y-84602064D02*
X141660000Y-83397936D01*
X139840000Y-84602064D02*
X139840000Y-83397936D01*
%TO.C,U2*%
X135530000Y-119430000D02*
X134430000Y-119430000D01*
X135530000Y-119700000D02*
X135530000Y-119430000D01*
X137030000Y-119700000D02*
X135530000Y-119700000D01*
X135530000Y-113070000D02*
X132700000Y-113070000D01*
X135530000Y-112800000D02*
X135530000Y-113070000D01*
X137030000Y-112800000D02*
X135530000Y-112800000D01*
%TO.C,U1*%
X134970000Y-84320000D02*
X136070000Y-84320000D01*
X134970000Y-84050000D02*
X134970000Y-84320000D01*
X133470000Y-84050000D02*
X134970000Y-84050000D01*
X134970000Y-90680000D02*
X137800000Y-90680000D01*
X134970000Y-90950000D02*
X134970000Y-90680000D01*
X133470000Y-90950000D02*
X134970000Y-90950000D01*
%TO.C,J2*%
X112500000Y-108500000D02*
X105500000Y-108500000D01*
X112500000Y-96500000D02*
X105500000Y-96500000D01*
X105500000Y-108500000D02*
X105500000Y-96500000D01*
X112500000Y-108500000D02*
X112500000Y-96500000D01*
X110250000Y-106000000D02*
G75*
G03*
X110250000Y-106000000I-1250000J0D01*
G01*
X110250000Y-102500000D02*
G75*
G03*
X110250000Y-102500000I-1250000J0D01*
G01*
X110250000Y-99000000D02*
G75*
G03*
X110250000Y-99000000I-1250000J0D01*
G01*
X107250000Y-98500000D02*
X107250000Y-99500000D01*
X107250000Y-99500000D02*
X105500000Y-99500000D01*
X107250000Y-98500000D02*
X105500000Y-98500000D01*
X105500000Y-102000000D02*
X107250000Y-102000000D01*
X107250000Y-102000000D02*
X107250000Y-103000000D01*
X107250000Y-103000000D02*
X105500000Y-103000000D01*
X105500000Y-105500000D02*
X107250000Y-105500000D01*
X107250000Y-105500000D02*
X107250000Y-106500000D01*
X107250000Y-106500000D02*
X105500000Y-106500000D01*
%TO.C,J1*%
X152500000Y-96500000D02*
X159500000Y-96500000D01*
X152500000Y-108500000D02*
X159500000Y-108500000D01*
X159500000Y-96500000D02*
X159500000Y-108500000D01*
X152500000Y-96500000D02*
X152500000Y-108500000D01*
X157250000Y-99000000D02*
G75*
G03*
X157250000Y-99000000I-1250000J0D01*
G01*
X157250000Y-102500000D02*
G75*
G03*
X157250000Y-102500000I-1250000J0D01*
G01*
X157250000Y-106000000D02*
G75*
G03*
X157250000Y-106000000I-1250000J0D01*
G01*
X157750000Y-106500000D02*
X157750000Y-105500000D01*
X157750000Y-105500000D02*
X159500000Y-105500000D01*
X157750000Y-106500000D02*
X159500000Y-106500000D01*
X159500000Y-103000000D02*
X157750000Y-103000000D01*
X157750000Y-103000000D02*
X157750000Y-102000000D01*
X157750000Y-102000000D02*
X159500000Y-102000000D01*
X159500000Y-99500000D02*
X157750000Y-99500000D01*
X157750000Y-99500000D02*
X157750000Y-98500000D01*
X157750000Y-98500000D02*
X159500000Y-98500000D01*
%TO.C,D4*%
X127900000Y-112350000D02*
X127900000Y-117750000D01*
X124600000Y-112350000D02*
X124600000Y-117750000D01*
X127900000Y-112350000D02*
X124600000Y-112350000D01*
%TO.C,D3*%
X131100000Y-92350000D02*
X136500000Y-92350000D01*
X131100000Y-95650000D02*
X136500000Y-95650000D01*
X131100000Y-92350000D02*
X131100000Y-95650000D01*
%TO.C,D2*%
X132600000Y-120850000D02*
X138000000Y-120850000D01*
X132600000Y-124150000D02*
X138000000Y-124150000D01*
X132600000Y-120850000D02*
X132600000Y-124150000D01*
%TO.C,D1*%
X137900000Y-82650000D02*
X132500000Y-82650000D01*
X137900000Y-79350000D02*
X132500000Y-79350000D01*
X137900000Y-82650000D02*
X137900000Y-79350000D01*
%TO.C,C8*%
X121960000Y-105000000D02*
X120960000Y-105000000D01*
X121460000Y-104500000D02*
X121460000Y-105500000D01*
X116054437Y-105740000D02*
X114990000Y-106804437D01*
X122445563Y-105740000D02*
X123510000Y-106804437D01*
X122445563Y-105740000D02*
X120460000Y-105740000D01*
X116054437Y-105740000D02*
X118040000Y-105740000D01*
X114990000Y-106804437D02*
X114990000Y-114260000D01*
X123510000Y-106804437D02*
X123510000Y-114260000D01*
X123510000Y-114260000D02*
X120460000Y-114260000D01*
X114990000Y-114260000D02*
X118040000Y-114260000D01*
%TO.C,C7*%
X121960000Y-90000000D02*
X120960000Y-90000000D01*
X121460000Y-89500000D02*
X121460000Y-90500000D01*
X116054437Y-90740000D02*
X114990000Y-91804437D01*
X122445563Y-90740000D02*
X123510000Y-91804437D01*
X122445563Y-90740000D02*
X120460000Y-90740000D01*
X116054437Y-90740000D02*
X118040000Y-90740000D01*
X114990000Y-91804437D02*
X114990000Y-99260000D01*
X123510000Y-91804437D02*
X123510000Y-99260000D01*
X123510000Y-99260000D02*
X120460000Y-99260000D01*
X114990000Y-99260000D02*
X118040000Y-99260000D01*
%TO.C,C6*%
X134491250Y-102706250D02*
X133703750Y-102706250D01*
X134097500Y-102312500D02*
X134097500Y-103100000D01*
X129904437Y-103340000D02*
X128840000Y-104404437D01*
X134595563Y-103340000D02*
X135660000Y-104404437D01*
X134595563Y-103340000D02*
X133310000Y-103340000D01*
X129904437Y-103340000D02*
X131190000Y-103340000D01*
X128840000Y-104404437D02*
X128840000Y-110160000D01*
X135660000Y-104404437D02*
X135660000Y-110160000D01*
X135660000Y-110160000D02*
X133310000Y-110160000D01*
X128840000Y-110160000D02*
X131190000Y-110160000D01*
%TO.C,C5*%
X140206250Y-93508750D02*
X140206250Y-94296250D01*
X139812500Y-93902500D02*
X140600000Y-93902500D01*
X140840000Y-98095563D02*
X141904437Y-99160000D01*
X140840000Y-93404437D02*
X141904437Y-92340000D01*
X140840000Y-93404437D02*
X140840000Y-94690000D01*
X140840000Y-98095563D02*
X140840000Y-96810000D01*
X141904437Y-99160000D02*
X147660000Y-99160000D01*
X141904437Y-92340000D02*
X147660000Y-92340000D01*
X147660000Y-92340000D02*
X147660000Y-94690000D01*
X147660000Y-99160000D02*
X147660000Y-96810000D01*
%TO.C,C2*%
D10*
X143357142Y-102666666D02*
X143404761Y-102714285D01*
X143452380Y-102857142D01*
X143452380Y-102952380D01*
X143404761Y-103095238D01*
X143309523Y-103190476D01*
X143214285Y-103238095D01*
X143023809Y-103285714D01*
X142880952Y-103285714D01*
X142690476Y-103238095D01*
X142595238Y-103190476D01*
X142500000Y-103095238D01*
X142452380Y-102952380D01*
X142452380Y-102857142D01*
X142500000Y-102714285D01*
X142547619Y-102666666D01*
X142547619Y-102285714D02*
X142500000Y-102238095D01*
X142452380Y-102142857D01*
X142452380Y-101904761D01*
X142500000Y-101809523D01*
X142547619Y-101761904D01*
X142642857Y-101714285D01*
X142738095Y-101714285D01*
X142880952Y-101761904D01*
X143452380Y-102333333D01*
X143452380Y-101714285D01*
%TO.C,C1*%
X150607142Y-83416666D02*
X150654761Y-83464285D01*
X150702380Y-83607142D01*
X150702380Y-83702380D01*
X150654761Y-83845238D01*
X150559523Y-83940476D01*
X150464285Y-83988095D01*
X150273809Y-84035714D01*
X150130952Y-84035714D01*
X149940476Y-83988095D01*
X149845238Y-83940476D01*
X149750000Y-83845238D01*
X149702380Y-83702380D01*
X149702380Y-83607142D01*
X149750000Y-83464285D01*
X149797619Y-83416666D01*
X150702380Y-82464285D02*
X150702380Y-83035714D01*
X150702380Y-82750000D02*
X149702380Y-82750000D01*
X149845238Y-82845238D01*
X149940476Y-82940476D01*
X149988095Y-83035714D01*
%TO.C,R4*%
X130702380Y-119166666D02*
X130226190Y-119500000D01*
X130702380Y-119738095D02*
X129702380Y-119738095D01*
X129702380Y-119357142D01*
X129750000Y-119261904D01*
X129797619Y-119214285D01*
X129892857Y-119166666D01*
X130035714Y-119166666D01*
X130130952Y-119214285D01*
X130178571Y-119261904D01*
X130226190Y-119357142D01*
X130226190Y-119738095D01*
X130035714Y-118309523D02*
X130702380Y-118309523D01*
X129654761Y-118547619D02*
X130369047Y-118785714D01*
X130369047Y-118166666D01*
%TO.C,R3*%
X126702380Y-104916666D02*
X126226190Y-105250000D01*
X126702380Y-105488095D02*
X125702380Y-105488095D01*
X125702380Y-105107142D01*
X125750000Y-105011904D01*
X125797619Y-104964285D01*
X125892857Y-104916666D01*
X126035714Y-104916666D01*
X126130952Y-104964285D01*
X126178571Y-105011904D01*
X126226190Y-105107142D01*
X126226190Y-105488095D01*
X125702380Y-104583333D02*
X125702380Y-103964285D01*
X126083333Y-104297619D01*
X126083333Y-104154761D01*
X126130952Y-104059523D01*
X126178571Y-104011904D01*
X126273809Y-103964285D01*
X126511904Y-103964285D01*
X126607142Y-104011904D01*
X126654761Y-104059523D01*
X126702380Y-104154761D01*
X126702380Y-104440476D01*
X126654761Y-104535714D01*
X126607142Y-104583333D01*
%TO.C,R2*%
X145583333Y-90202380D02*
X145250000Y-89726190D01*
X145011904Y-90202380D02*
X145011904Y-89202380D01*
X145392857Y-89202380D01*
X145488095Y-89250000D01*
X145535714Y-89297619D01*
X145583333Y-89392857D01*
X145583333Y-89535714D01*
X145535714Y-89630952D01*
X145488095Y-89678571D01*
X145392857Y-89726190D01*
X145011904Y-89726190D01*
X145964285Y-89297619D02*
X146011904Y-89250000D01*
X146107142Y-89202380D01*
X146345238Y-89202380D01*
X146440476Y-89250000D01*
X146488095Y-89297619D01*
X146535714Y-89392857D01*
X146535714Y-89488095D01*
X146488095Y-89630952D01*
X145916666Y-90202380D01*
X146535714Y-90202380D01*
%TO.C,R1*%
X131583333Y-98202380D02*
X131250000Y-97726190D01*
X131011904Y-98202380D02*
X131011904Y-97202380D01*
X131392857Y-97202380D01*
X131488095Y-97250000D01*
X131535714Y-97297619D01*
X131583333Y-97392857D01*
X131583333Y-97535714D01*
X131535714Y-97630952D01*
X131488095Y-97678571D01*
X131392857Y-97726190D01*
X131011904Y-97726190D01*
X132535714Y-98202380D02*
X131964285Y-98202380D01*
X132250000Y-98202380D02*
X132250000Y-97202380D01*
X132154761Y-97345238D01*
X132059523Y-97440476D01*
X131964285Y-97488095D01*
%TO.C,C4*%
X138357142Y-105916666D02*
X138404761Y-105964285D01*
X138452380Y-106107142D01*
X138452380Y-106202380D01*
X138404761Y-106345238D01*
X138309523Y-106440476D01*
X138214285Y-106488095D01*
X138023809Y-106535714D01*
X137880952Y-106535714D01*
X137690476Y-106488095D01*
X137595238Y-106440476D01*
X137500000Y-106345238D01*
X137452380Y-106202380D01*
X137452380Y-106107142D01*
X137500000Y-105964285D01*
X137547619Y-105916666D01*
X137785714Y-105059523D02*
X138452380Y-105059523D01*
X137404761Y-105297619D02*
X138119047Y-105535714D01*
X138119047Y-104916666D01*
%TO.C,C3*%
X141107142Y-80916666D02*
X141154761Y-80964285D01*
X141202380Y-81107142D01*
X141202380Y-81202380D01*
X141154761Y-81345238D01*
X141059523Y-81440476D01*
X140964285Y-81488095D01*
X140773809Y-81535714D01*
X140630952Y-81535714D01*
X140440476Y-81488095D01*
X140345238Y-81440476D01*
X140250000Y-81345238D01*
X140202380Y-81202380D01*
X140202380Y-81107142D01*
X140250000Y-80964285D01*
X140297619Y-80916666D01*
X140202380Y-80583333D02*
X140202380Y-79964285D01*
X140583333Y-80297619D01*
X140583333Y-80154761D01*
X140630952Y-80059523D01*
X140678571Y-80011904D01*
X140773809Y-79964285D01*
X141011904Y-79964285D01*
X141107142Y-80011904D01*
X141154761Y-80059523D01*
X141202380Y-80154761D01*
X141202380Y-80440476D01*
X141154761Y-80535714D01*
X141107142Y-80583333D01*
%TO.C,U2*%
X141738095Y-120202380D02*
X141738095Y-121011904D01*
X141785714Y-121107142D01*
X141833333Y-121154761D01*
X141928571Y-121202380D01*
X142119047Y-121202380D01*
X142214285Y-121154761D01*
X142261904Y-121107142D01*
X142309523Y-121011904D01*
X142309523Y-120202380D01*
X142738095Y-120297619D02*
X142785714Y-120250000D01*
X142880952Y-120202380D01*
X143119047Y-120202380D01*
X143214285Y-120250000D01*
X143261904Y-120297619D01*
X143309523Y-120392857D01*
X143309523Y-120488095D01*
X143261904Y-120630952D01*
X142690476Y-121202380D01*
X143309523Y-121202380D01*
%TO.C,U1*%
X127238095Y-91452380D02*
X127238095Y-92261904D01*
X127285714Y-92357142D01*
X127333333Y-92404761D01*
X127428571Y-92452380D01*
X127619047Y-92452380D01*
X127714285Y-92404761D01*
X127761904Y-92357142D01*
X127809523Y-92261904D01*
X127809523Y-91452380D01*
X128809523Y-92452380D02*
X128238095Y-92452380D01*
X128523809Y-92452380D02*
X128523809Y-91452380D01*
X128428571Y-91595238D01*
X128333333Y-91690476D01*
X128238095Y-91738095D01*
%TO.C,J2*%
X110952380Y-102833333D02*
X111666666Y-102833333D01*
X111809523Y-102880952D01*
X111904761Y-102976190D01*
X111952380Y-103119047D01*
X111952380Y-103214285D01*
X111047619Y-102404761D02*
X111000000Y-102357142D01*
X110952380Y-102261904D01*
X110952380Y-102023809D01*
X111000000Y-101928571D01*
X111047619Y-101880952D01*
X111142857Y-101833333D01*
X111238095Y-101833333D01*
X111380952Y-101880952D01*
X111952380Y-102452380D01*
X111952380Y-101833333D01*
%TO.C,J1*%
X153202380Y-102833333D02*
X153916666Y-102833333D01*
X154059523Y-102880952D01*
X154154761Y-102976190D01*
X154202380Y-103119047D01*
X154202380Y-103214285D01*
X154202380Y-101833333D02*
X154202380Y-102404761D01*
X154202380Y-102119047D02*
X153202380Y-102119047D01*
X153345238Y-102214285D01*
X153440476Y-102309523D01*
X153488095Y-102404761D01*
%TO.C,D4*%
X126702380Y-121488095D02*
X125702380Y-121488095D01*
X125702380Y-121250000D01*
X125750000Y-121107142D01*
X125845238Y-121011904D01*
X125940476Y-120964285D01*
X126130952Y-120916666D01*
X126273809Y-120916666D01*
X126464285Y-120964285D01*
X126559523Y-121011904D01*
X126654761Y-121107142D01*
X126702380Y-121250000D01*
X126702380Y-121488095D01*
X126035714Y-120059523D02*
X126702380Y-120059523D01*
X125654761Y-120297619D02*
X126369047Y-120535714D01*
X126369047Y-119916666D01*
%TO.C,D3*%
X129261904Y-94452380D02*
X129261904Y-93452380D01*
X129500000Y-93452380D01*
X129642857Y-93500000D01*
X129738095Y-93595238D01*
X129785714Y-93690476D01*
X129833333Y-93880952D01*
X129833333Y-94023809D01*
X129785714Y-94214285D01*
X129738095Y-94309523D01*
X129642857Y-94404761D01*
X129500000Y-94452380D01*
X129261904Y-94452380D01*
X130166666Y-93452380D02*
X130785714Y-93452380D01*
X130452380Y-93833333D01*
X130595238Y-93833333D01*
X130690476Y-93880952D01*
X130738095Y-93928571D01*
X130785714Y-94023809D01*
X130785714Y-94261904D01*
X130738095Y-94357142D01*
X130690476Y-94404761D01*
X130595238Y-94452380D01*
X130309523Y-94452380D01*
X130214285Y-94404761D01*
X130166666Y-94357142D01*
%TO.C,D2*%
X130261904Y-122952380D02*
X130261904Y-121952380D01*
X130500000Y-121952380D01*
X130642857Y-122000000D01*
X130738095Y-122095238D01*
X130785714Y-122190476D01*
X130833333Y-122380952D01*
X130833333Y-122523809D01*
X130785714Y-122714285D01*
X130738095Y-122809523D01*
X130642857Y-122904761D01*
X130500000Y-122952380D01*
X130261904Y-122952380D01*
X131214285Y-122047619D02*
X131261904Y-122000000D01*
X131357142Y-121952380D01*
X131595238Y-121952380D01*
X131690476Y-122000000D01*
X131738095Y-122047619D01*
X131785714Y-122142857D01*
X131785714Y-122238095D01*
X131738095Y-122380952D01*
X131166666Y-122952380D01*
X131785714Y-122952380D01*
%TO.C,D1*%
X129261904Y-81452380D02*
X129261904Y-80452380D01*
X129500000Y-80452380D01*
X129642857Y-80500000D01*
X129738095Y-80595238D01*
X129785714Y-80690476D01*
X129833333Y-80880952D01*
X129833333Y-81023809D01*
X129785714Y-81214285D01*
X129738095Y-81309523D01*
X129642857Y-81404761D01*
X129500000Y-81452380D01*
X129261904Y-81452380D01*
X130785714Y-81452380D02*
X130214285Y-81452380D01*
X130500000Y-81452380D02*
X130500000Y-80452380D01*
X130404761Y-80595238D01*
X130309523Y-80690476D01*
X130214285Y-80738095D01*
%TO.C,C8*%
X119607142Y-117166666D02*
X119654761Y-117214285D01*
X119702380Y-117357142D01*
X119702380Y-117452380D01*
X119654761Y-117595238D01*
X119559523Y-117690476D01*
X119464285Y-117738095D01*
X119273809Y-117785714D01*
X119130952Y-117785714D01*
X118940476Y-117738095D01*
X118845238Y-117690476D01*
X118750000Y-117595238D01*
X118702380Y-117452380D01*
X118702380Y-117357142D01*
X118750000Y-117214285D01*
X118797619Y-117166666D01*
X119130952Y-116595238D02*
X119083333Y-116690476D01*
X119035714Y-116738095D01*
X118940476Y-116785714D01*
X118892857Y-116785714D01*
X118797619Y-116738095D01*
X118750000Y-116690476D01*
X118702380Y-116595238D01*
X118702380Y-116404761D01*
X118750000Y-116309523D01*
X118797619Y-116261904D01*
X118892857Y-116214285D01*
X118940476Y-116214285D01*
X119035714Y-116261904D01*
X119083333Y-116309523D01*
X119130952Y-116404761D01*
X119130952Y-116595238D01*
X119178571Y-116690476D01*
X119226190Y-116738095D01*
X119321428Y-116785714D01*
X119511904Y-116785714D01*
X119607142Y-116738095D01*
X119654761Y-116690476D01*
X119702380Y-116595238D01*
X119702380Y-116404761D01*
X119654761Y-116309523D01*
X119607142Y-116261904D01*
X119511904Y-116214285D01*
X119321428Y-116214285D01*
X119226190Y-116261904D01*
X119178571Y-116309523D01*
X119130952Y-116404761D01*
%TO.C,C7*%
X124857142Y-95166666D02*
X124904761Y-95214285D01*
X124952380Y-95357142D01*
X124952380Y-95452380D01*
X124904761Y-95595238D01*
X124809523Y-95690476D01*
X124714285Y-95738095D01*
X124523809Y-95785714D01*
X124380952Y-95785714D01*
X124190476Y-95738095D01*
X124095238Y-95690476D01*
X124000000Y-95595238D01*
X123952380Y-95452380D01*
X123952380Y-95357142D01*
X124000000Y-95214285D01*
X124047619Y-95166666D01*
X123952380Y-94833333D02*
X123952380Y-94166666D01*
X124952380Y-94595238D01*
%TO.C,C6*%
X132607142Y-100916666D02*
X132654761Y-100964285D01*
X132702380Y-101107142D01*
X132702380Y-101202380D01*
X132654761Y-101345238D01*
X132559523Y-101440476D01*
X132464285Y-101488095D01*
X132273809Y-101535714D01*
X132130952Y-101535714D01*
X131940476Y-101488095D01*
X131845238Y-101440476D01*
X131750000Y-101345238D01*
X131702380Y-101202380D01*
X131702380Y-101107142D01*
X131750000Y-100964285D01*
X131797619Y-100916666D01*
X131702380Y-100059523D02*
X131702380Y-100250000D01*
X131750000Y-100345238D01*
X131797619Y-100392857D01*
X131940476Y-100488095D01*
X132130952Y-100535714D01*
X132511904Y-100535714D01*
X132607142Y-100488095D01*
X132654761Y-100440476D01*
X132702380Y-100345238D01*
X132702380Y-100154761D01*
X132654761Y-100059523D01*
X132607142Y-100011904D01*
X132511904Y-99964285D01*
X132273809Y-99964285D01*
X132178571Y-100011904D01*
X132130952Y-100059523D01*
X132083333Y-100154761D01*
X132083333Y-100345238D01*
X132130952Y-100440476D01*
X132178571Y-100488095D01*
X132273809Y-100535714D01*
%TO.C,C5*%
X144083333Y-100607142D02*
X144035714Y-100654761D01*
X143892857Y-100702380D01*
X143797619Y-100702380D01*
X143654761Y-100654761D01*
X143559523Y-100559523D01*
X143511904Y-100464285D01*
X143464285Y-100273809D01*
X143464285Y-100130952D01*
X143511904Y-99940476D01*
X143559523Y-99845238D01*
X143654761Y-99750000D01*
X143797619Y-99702380D01*
X143892857Y-99702380D01*
X144035714Y-99750000D01*
X144083333Y-99797619D01*
X144988095Y-99702380D02*
X144511904Y-99702380D01*
X144464285Y-100178571D01*
X144511904Y-100130952D01*
X144607142Y-100083333D01*
X144845238Y-100083333D01*
X144940476Y-100130952D01*
X144988095Y-100178571D01*
X145035714Y-100273809D01*
X145035714Y-100511904D01*
X144988095Y-100607142D01*
X144940476Y-100654761D01*
X144845238Y-100702380D01*
X144607142Y-100702380D01*
X144511904Y-100654761D01*
X144464285Y-100607142D01*
%TD*%
M02*
