%TF.GenerationSoftware,KiCad,Pcbnew,(5.1.6-0)*%
%TF.CreationDate,2024-01-11T20:35:38-08:00*%
%TF.ProjectId,psu_15V_reg,7073755f-3135-4565-9f72-65672e6b6963,1.0*%
%TF.SameCoordinates,Original*%
%TF.FileFunction,Soldermask,Bot*%
%TF.FilePolarity,Negative*%
%FSLAX46Y46*%
G04 Gerber Fmt 4.6, Leading zero omitted, Abs format (unit mm)*
G04 Created by KiCad (PCBNEW (5.1.6-0)) date 2024-01-11 20:35:38*
%MOMM*%
%LPD*%
G01*
G04 APERTURE LIST*
%ADD10C,0.900000*%
%ADD11C,6.500000*%
%ADD12C,2.100000*%
G04 APERTURE END LIST*
D10*
%TO.C,H4*%
X110197056Y-79302944D03*
X108500000Y-78600000D03*
X106802944Y-79302944D03*
X106100000Y-81000000D03*
X106802944Y-82697056D03*
X108500000Y-83400000D03*
X110197056Y-82697056D03*
X110900000Y-81000000D03*
D11*
X108500000Y-81000000D03*
%TD*%
D10*
%TO.C,H3*%
X158197056Y-79302944D03*
X156500000Y-78600000D03*
X154802944Y-79302944D03*
X154100000Y-81000000D03*
X154802944Y-82697056D03*
X156500000Y-83400000D03*
X158197056Y-82697056D03*
X158900000Y-81000000D03*
D11*
X156500000Y-81000000D03*
%TD*%
D10*
%TO.C,H2*%
X158197056Y-122302944D03*
X156500000Y-121600000D03*
X154802944Y-122302944D03*
X154100000Y-124000000D03*
X154802944Y-125697056D03*
X156500000Y-126400000D03*
X158197056Y-125697056D03*
X158900000Y-124000000D03*
D11*
X156500000Y-124000000D03*
%TD*%
D10*
%TO.C,H1*%
X110197056Y-122302944D03*
X108500000Y-121600000D03*
X106802944Y-122302944D03*
X106100000Y-124000000D03*
X106802944Y-125697056D03*
X108500000Y-126400000D03*
X110197056Y-125697056D03*
X110900000Y-124000000D03*
D11*
X108500000Y-124000000D03*
%TD*%
D12*
%TO.C,J2*%
X109000000Y-106000000D03*
X109000000Y-102500000D03*
X109000000Y-99000000D03*
%TD*%
%TO.C,J1*%
X156000000Y-99000000D03*
X156000000Y-102500000D03*
X156000000Y-106000000D03*
%TD*%
M02*
