%TF.GenerationSoftware,KiCad,Pcbnew,(5.1.6-0)*%
%TF.CreationDate,2024-01-11T20:43:49-08:00*%
%TF.ProjectId,psu_15V_reg,7073755f-3135-4565-9f72-65672e6b6963,1.0*%
%TF.SameCoordinates,Original*%
%TF.FileFunction,Copper,L2,Bot*%
%TF.FilePolarity,Positive*%
%FSLAX46Y46*%
G04 Gerber Fmt 4.6, Leading zero omitted, Abs format (unit mm)*
G04 Created by KiCad (PCBNEW (5.1.6-0)) date 2024-01-11 20:43:49*
%MOMM*%
%LPD*%
G01*
G04 APERTURE LIST*
%TA.AperFunction,ComponentPad*%
%ADD10C,0.800000*%
%TD*%
%TA.AperFunction,ComponentPad*%
%ADD11C,6.400000*%
%TD*%
%TA.AperFunction,ComponentPad*%
%ADD12C,2.000000*%
%TD*%
%TA.AperFunction,ViaPad*%
%ADD13C,0.800000*%
%TD*%
%TA.AperFunction,ViaPad*%
%ADD14C,0.700000*%
%TD*%
%TA.AperFunction,Conductor*%
%ADD15C,0.300000*%
%TD*%
G04 APERTURE END LIST*
D10*
%TO.P,H4,1*%
%TO.N,N/C*%
X110197056Y-79302944D03*
X108500000Y-78600000D03*
X106802944Y-79302944D03*
X106100000Y-81000000D03*
X106802944Y-82697056D03*
X108500000Y-83400000D03*
X110197056Y-82697056D03*
X110900000Y-81000000D03*
D11*
X108500000Y-81000000D03*
%TD*%
D10*
%TO.P,H3,1*%
%TO.N,N/C*%
X158197056Y-79302944D03*
X156500000Y-78600000D03*
X154802944Y-79302944D03*
X154100000Y-81000000D03*
X154802944Y-82697056D03*
X156500000Y-83400000D03*
X158197056Y-82697056D03*
X158900000Y-81000000D03*
D11*
X156500000Y-81000000D03*
%TD*%
D10*
%TO.P,H2,1*%
%TO.N,N/C*%
X158197056Y-122302944D03*
X156500000Y-121600000D03*
X154802944Y-122302944D03*
X154100000Y-124000000D03*
X154802944Y-125697056D03*
X156500000Y-126400000D03*
X158197056Y-125697056D03*
X158900000Y-124000000D03*
D11*
X156500000Y-124000000D03*
%TD*%
D10*
%TO.P,H1,1*%
%TO.N,N/C*%
X110197056Y-122302944D03*
X108500000Y-121600000D03*
X106802944Y-122302944D03*
X106100000Y-124000000D03*
X106802944Y-125697056D03*
X108500000Y-126400000D03*
X110197056Y-125697056D03*
X110900000Y-124000000D03*
D11*
X108500000Y-124000000D03*
%TD*%
D12*
%TO.P,J2,3*%
%TO.N,/VO-*%
X109000000Y-106000000D03*
%TO.P,J2,2*%
%TO.N,GND*%
X109000000Y-102500000D03*
%TO.P,J2,1*%
%TO.N,/VO+*%
X109000000Y-99000000D03*
%TD*%
%TO.P,J1,3*%
%TO.N,/VI+*%
X156000000Y-99000000D03*
%TO.P,J1,2*%
%TO.N,GND*%
X156000000Y-102500000D03*
%TO.P,J1,1*%
%TO.N,/VI-*%
X156000000Y-106000000D03*
%TD*%
D13*
%TO.N,GND*%
X119250000Y-103500000D03*
X119250000Y-101250000D03*
X126250000Y-105500000D03*
X132250000Y-101500000D03*
X138000000Y-106250000D03*
X143000000Y-103250000D03*
X149500000Y-95750000D03*
X145000000Y-89750000D03*
X140750000Y-81250000D03*
X146500000Y-78750000D03*
D14*
X106401191Y-85042500D03*
X106401191Y-102042500D03*
X106401191Y-108042500D03*
X106401191Y-114042500D03*
X107401191Y-119042500D03*
X109401191Y-111042500D03*
X110401191Y-104042500D03*
X110401191Y-116042500D03*
X112401191Y-84042500D03*
X112401191Y-120042500D03*
X116000000Y-106750000D03*
X113401191Y-113042500D03*
X113401191Y-125042500D03*
X115500000Y-101250000D03*
X115401191Y-117042500D03*
X116401191Y-110042500D03*
X116401191Y-122042500D03*
X117401191Y-98042500D03*
X117401191Y-104042500D03*
X118401191Y-126042500D03*
X119401191Y-119042500D03*
X121401191Y-100042500D03*
X121401191Y-106042500D03*
X121401191Y-112042500D03*
X121401191Y-123042500D03*
X123401191Y-116042500D03*
X124401191Y-103042500D03*
X124401191Y-126042500D03*
X125401191Y-120042500D03*
X128401191Y-101042500D03*
X128401191Y-107042500D03*
X128401191Y-123042500D03*
X130401191Y-119042500D03*
X131401191Y-126042500D03*
X134401191Y-101042500D03*
X136250000Y-79000000D03*
X135401191Y-87042500D03*
X135401191Y-106042500D03*
X138500000Y-82750000D03*
X138401191Y-103042500D03*
X140401191Y-106500000D03*
X141401191Y-79042500D03*
X141401191Y-87042500D03*
X141250000Y-100250000D03*
X143401191Y-83042500D03*
X144401191Y-92042500D03*
X145401191Y-98042500D03*
X145401191Y-104042500D03*
X146401191Y-88042500D03*
X148401191Y-79042500D03*
X148250000Y-93500000D03*
X148401191Y-101042500D03*
X149500000Y-83500000D03*
X152500000Y-95500000D03*
X152401191Y-87042500D03*
X152401191Y-122042500D03*
X155401191Y-90042500D03*
X157401191Y-86042500D03*
X157401191Y-94042500D03*
%TD*%
D15*
%TO.N,GND*%
G36*
X154173260Y-78164860D02*
G01*
X153664860Y-78673260D01*
X153265412Y-79271077D01*
X152990267Y-79935334D01*
X152850000Y-80640506D01*
X152850000Y-81359494D01*
X152990267Y-82064666D01*
X153265412Y-82728923D01*
X153664860Y-83326740D01*
X154173260Y-83835140D01*
X154771077Y-84234588D01*
X155435334Y-84509733D01*
X156140506Y-84650000D01*
X156859494Y-84650000D01*
X157564666Y-84509733D01*
X158228923Y-84234588D01*
X158826740Y-83835140D01*
X159335140Y-83326740D01*
X159525000Y-83042594D01*
X159525001Y-121957407D01*
X159335140Y-121673260D01*
X158826740Y-121164860D01*
X158228923Y-120765412D01*
X157564666Y-120490267D01*
X156859494Y-120350000D01*
X156140506Y-120350000D01*
X155435334Y-120490267D01*
X154771077Y-120765412D01*
X154173260Y-121164860D01*
X153664860Y-121673260D01*
X153265412Y-122271077D01*
X152990267Y-122935334D01*
X152850000Y-123640506D01*
X152850000Y-124359494D01*
X152990267Y-125064666D01*
X153265412Y-125728923D01*
X153664860Y-126326740D01*
X154173260Y-126835140D01*
X154457406Y-127025000D01*
X110542594Y-127025000D01*
X110826740Y-126835140D01*
X111335140Y-126326740D01*
X111734588Y-125728923D01*
X112009733Y-125064666D01*
X112150000Y-124359494D01*
X112150000Y-123640506D01*
X112009733Y-122935334D01*
X111734588Y-122271077D01*
X111335140Y-121673260D01*
X110826740Y-121164860D01*
X110228923Y-120765412D01*
X109564666Y-120490267D01*
X108859494Y-120350000D01*
X108140506Y-120350000D01*
X107435334Y-120490267D01*
X106771077Y-120765412D01*
X106173260Y-121164860D01*
X105664860Y-121673260D01*
X105475000Y-121957406D01*
X105475000Y-105857187D01*
X107550000Y-105857187D01*
X107550000Y-106142813D01*
X107605723Y-106422949D01*
X107715027Y-106686833D01*
X107873711Y-106924321D01*
X108075679Y-107126289D01*
X108313167Y-107284973D01*
X108577051Y-107394277D01*
X108857187Y-107450000D01*
X109142813Y-107450000D01*
X109422949Y-107394277D01*
X109686833Y-107284973D01*
X109924321Y-107126289D01*
X110126289Y-106924321D01*
X110284973Y-106686833D01*
X110394277Y-106422949D01*
X110450000Y-106142813D01*
X110450000Y-105857187D01*
X154550000Y-105857187D01*
X154550000Y-106142813D01*
X154605723Y-106422949D01*
X154715027Y-106686833D01*
X154873711Y-106924321D01*
X155075679Y-107126289D01*
X155313167Y-107284973D01*
X155577051Y-107394277D01*
X155857187Y-107450000D01*
X156142813Y-107450000D01*
X156422949Y-107394277D01*
X156686833Y-107284973D01*
X156924321Y-107126289D01*
X157126289Y-106924321D01*
X157284973Y-106686833D01*
X157394277Y-106422949D01*
X157450000Y-106142813D01*
X157450000Y-105857187D01*
X157394277Y-105577051D01*
X157284973Y-105313167D01*
X157126289Y-105075679D01*
X156924321Y-104873711D01*
X156686833Y-104715027D01*
X156422949Y-104605723D01*
X156142813Y-104550000D01*
X155857187Y-104550000D01*
X155577051Y-104605723D01*
X155313167Y-104715027D01*
X155075679Y-104873711D01*
X154873711Y-105075679D01*
X154715027Y-105313167D01*
X154605723Y-105577051D01*
X154550000Y-105857187D01*
X110450000Y-105857187D01*
X110394277Y-105577051D01*
X110284973Y-105313167D01*
X110126289Y-105075679D01*
X109924321Y-104873711D01*
X109686833Y-104715027D01*
X109422949Y-104605723D01*
X109142813Y-104550000D01*
X108857187Y-104550000D01*
X108577051Y-104605723D01*
X108313167Y-104715027D01*
X108075679Y-104873711D01*
X107873711Y-105075679D01*
X107715027Y-105313167D01*
X107605723Y-105577051D01*
X107550000Y-105857187D01*
X105475000Y-105857187D01*
X105475000Y-103518794D01*
X108122628Y-103518794D01*
X108226509Y-103734750D01*
X108482259Y-103861925D01*
X108757906Y-103936762D01*
X109042856Y-103956386D01*
X109326159Y-103920042D01*
X109596928Y-103829125D01*
X109773491Y-103734750D01*
X109877372Y-103518794D01*
X155122628Y-103518794D01*
X155226509Y-103734750D01*
X155482259Y-103861925D01*
X155757906Y-103936762D01*
X156042856Y-103956386D01*
X156326159Y-103920042D01*
X156596928Y-103829125D01*
X156773491Y-103734750D01*
X156877372Y-103518794D01*
X156000000Y-102641421D01*
X155122628Y-103518794D01*
X109877372Y-103518794D01*
X109000000Y-102641421D01*
X108122628Y-103518794D01*
X105475000Y-103518794D01*
X105475000Y-102542856D01*
X107543614Y-102542856D01*
X107579958Y-102826159D01*
X107670875Y-103096928D01*
X107765250Y-103273491D01*
X107981206Y-103377372D01*
X108858579Y-102500000D01*
X109141421Y-102500000D01*
X110018794Y-103377372D01*
X110234750Y-103273491D01*
X110361925Y-103017741D01*
X110436762Y-102742094D01*
X110450483Y-102542856D01*
X154543614Y-102542856D01*
X154579958Y-102826159D01*
X154670875Y-103096928D01*
X154765250Y-103273491D01*
X154981206Y-103377372D01*
X155858579Y-102500000D01*
X156141421Y-102500000D01*
X157018794Y-103377372D01*
X157234750Y-103273491D01*
X157361925Y-103017741D01*
X157436762Y-102742094D01*
X157456386Y-102457144D01*
X157420042Y-102173841D01*
X157329125Y-101903072D01*
X157234750Y-101726509D01*
X157018794Y-101622628D01*
X156141421Y-102500000D01*
X155858579Y-102500000D01*
X154981206Y-101622628D01*
X154765250Y-101726509D01*
X154638075Y-101982259D01*
X154563238Y-102257906D01*
X154543614Y-102542856D01*
X110450483Y-102542856D01*
X110456386Y-102457144D01*
X110420042Y-102173841D01*
X110329125Y-101903072D01*
X110234750Y-101726509D01*
X110018794Y-101622628D01*
X109141421Y-102500000D01*
X108858579Y-102500000D01*
X107981206Y-101622628D01*
X107765250Y-101726509D01*
X107638075Y-101982259D01*
X107563238Y-102257906D01*
X107543614Y-102542856D01*
X105475000Y-102542856D01*
X105475000Y-101481206D01*
X108122628Y-101481206D01*
X109000000Y-102358579D01*
X109877372Y-101481206D01*
X155122628Y-101481206D01*
X156000000Y-102358579D01*
X156877372Y-101481206D01*
X156773491Y-101265250D01*
X156517741Y-101138075D01*
X156242094Y-101063238D01*
X155957144Y-101043614D01*
X155673841Y-101079958D01*
X155403072Y-101170875D01*
X155226509Y-101265250D01*
X155122628Y-101481206D01*
X109877372Y-101481206D01*
X109773491Y-101265250D01*
X109517741Y-101138075D01*
X109242094Y-101063238D01*
X108957144Y-101043614D01*
X108673841Y-101079958D01*
X108403072Y-101170875D01*
X108226509Y-101265250D01*
X108122628Y-101481206D01*
X105475000Y-101481206D01*
X105475000Y-98857187D01*
X107550000Y-98857187D01*
X107550000Y-99142813D01*
X107605723Y-99422949D01*
X107715027Y-99686833D01*
X107873711Y-99924321D01*
X108075679Y-100126289D01*
X108313167Y-100284973D01*
X108577051Y-100394277D01*
X108857187Y-100450000D01*
X109142813Y-100450000D01*
X109422949Y-100394277D01*
X109686833Y-100284973D01*
X109924321Y-100126289D01*
X110126289Y-99924321D01*
X110284973Y-99686833D01*
X110394277Y-99422949D01*
X110450000Y-99142813D01*
X110450000Y-98857187D01*
X154550000Y-98857187D01*
X154550000Y-99142813D01*
X154605723Y-99422949D01*
X154715027Y-99686833D01*
X154873711Y-99924321D01*
X155075679Y-100126289D01*
X155313167Y-100284973D01*
X155577051Y-100394277D01*
X155857187Y-100450000D01*
X156142813Y-100450000D01*
X156422949Y-100394277D01*
X156686833Y-100284973D01*
X156924321Y-100126289D01*
X157126289Y-99924321D01*
X157284973Y-99686833D01*
X157394277Y-99422949D01*
X157450000Y-99142813D01*
X157450000Y-98857187D01*
X157394277Y-98577051D01*
X157284973Y-98313167D01*
X157126289Y-98075679D01*
X156924321Y-97873711D01*
X156686833Y-97715027D01*
X156422949Y-97605723D01*
X156142813Y-97550000D01*
X155857187Y-97550000D01*
X155577051Y-97605723D01*
X155313167Y-97715027D01*
X155075679Y-97873711D01*
X154873711Y-98075679D01*
X154715027Y-98313167D01*
X154605723Y-98577051D01*
X154550000Y-98857187D01*
X110450000Y-98857187D01*
X110394277Y-98577051D01*
X110284973Y-98313167D01*
X110126289Y-98075679D01*
X109924321Y-97873711D01*
X109686833Y-97715027D01*
X109422949Y-97605723D01*
X109142813Y-97550000D01*
X108857187Y-97550000D01*
X108577051Y-97605723D01*
X108313167Y-97715027D01*
X108075679Y-97873711D01*
X107873711Y-98075679D01*
X107715027Y-98313167D01*
X107605723Y-98577051D01*
X107550000Y-98857187D01*
X105475000Y-98857187D01*
X105475000Y-83042594D01*
X105664860Y-83326740D01*
X106173260Y-83835140D01*
X106771077Y-84234588D01*
X107435334Y-84509733D01*
X108140506Y-84650000D01*
X108859494Y-84650000D01*
X109564666Y-84509733D01*
X110228923Y-84234588D01*
X110826740Y-83835140D01*
X111335140Y-83326740D01*
X111734588Y-82728923D01*
X112009733Y-82064666D01*
X112150000Y-81359494D01*
X112150000Y-80640506D01*
X112009733Y-79935334D01*
X111734588Y-79271077D01*
X111335140Y-78673260D01*
X110826740Y-78164860D01*
X110542594Y-77975000D01*
X154457406Y-77975000D01*
X154173260Y-78164860D01*
G37*
X154173260Y-78164860D02*
X153664860Y-78673260D01*
X153265412Y-79271077D01*
X152990267Y-79935334D01*
X152850000Y-80640506D01*
X152850000Y-81359494D01*
X152990267Y-82064666D01*
X153265412Y-82728923D01*
X153664860Y-83326740D01*
X154173260Y-83835140D01*
X154771077Y-84234588D01*
X155435334Y-84509733D01*
X156140506Y-84650000D01*
X156859494Y-84650000D01*
X157564666Y-84509733D01*
X158228923Y-84234588D01*
X158826740Y-83835140D01*
X159335140Y-83326740D01*
X159525000Y-83042594D01*
X159525001Y-121957407D01*
X159335140Y-121673260D01*
X158826740Y-121164860D01*
X158228923Y-120765412D01*
X157564666Y-120490267D01*
X156859494Y-120350000D01*
X156140506Y-120350000D01*
X155435334Y-120490267D01*
X154771077Y-120765412D01*
X154173260Y-121164860D01*
X153664860Y-121673260D01*
X153265412Y-122271077D01*
X152990267Y-122935334D01*
X152850000Y-123640506D01*
X152850000Y-124359494D01*
X152990267Y-125064666D01*
X153265412Y-125728923D01*
X153664860Y-126326740D01*
X154173260Y-126835140D01*
X154457406Y-127025000D01*
X110542594Y-127025000D01*
X110826740Y-126835140D01*
X111335140Y-126326740D01*
X111734588Y-125728923D01*
X112009733Y-125064666D01*
X112150000Y-124359494D01*
X112150000Y-123640506D01*
X112009733Y-122935334D01*
X111734588Y-122271077D01*
X111335140Y-121673260D01*
X110826740Y-121164860D01*
X110228923Y-120765412D01*
X109564666Y-120490267D01*
X108859494Y-120350000D01*
X108140506Y-120350000D01*
X107435334Y-120490267D01*
X106771077Y-120765412D01*
X106173260Y-121164860D01*
X105664860Y-121673260D01*
X105475000Y-121957406D01*
X105475000Y-105857187D01*
X107550000Y-105857187D01*
X107550000Y-106142813D01*
X107605723Y-106422949D01*
X107715027Y-106686833D01*
X107873711Y-106924321D01*
X108075679Y-107126289D01*
X108313167Y-107284973D01*
X108577051Y-107394277D01*
X108857187Y-107450000D01*
X109142813Y-107450000D01*
X109422949Y-107394277D01*
X109686833Y-107284973D01*
X109924321Y-107126289D01*
X110126289Y-106924321D01*
X110284973Y-106686833D01*
X110394277Y-106422949D01*
X110450000Y-106142813D01*
X110450000Y-105857187D01*
X154550000Y-105857187D01*
X154550000Y-106142813D01*
X154605723Y-106422949D01*
X154715027Y-106686833D01*
X154873711Y-106924321D01*
X155075679Y-107126289D01*
X155313167Y-107284973D01*
X155577051Y-107394277D01*
X155857187Y-107450000D01*
X156142813Y-107450000D01*
X156422949Y-107394277D01*
X156686833Y-107284973D01*
X156924321Y-107126289D01*
X157126289Y-106924321D01*
X157284973Y-106686833D01*
X157394277Y-106422949D01*
X157450000Y-106142813D01*
X157450000Y-105857187D01*
X157394277Y-105577051D01*
X157284973Y-105313167D01*
X157126289Y-105075679D01*
X156924321Y-104873711D01*
X156686833Y-104715027D01*
X156422949Y-104605723D01*
X156142813Y-104550000D01*
X155857187Y-104550000D01*
X155577051Y-104605723D01*
X155313167Y-104715027D01*
X155075679Y-104873711D01*
X154873711Y-105075679D01*
X154715027Y-105313167D01*
X154605723Y-105577051D01*
X154550000Y-105857187D01*
X110450000Y-105857187D01*
X110394277Y-105577051D01*
X110284973Y-105313167D01*
X110126289Y-105075679D01*
X109924321Y-104873711D01*
X109686833Y-104715027D01*
X109422949Y-104605723D01*
X109142813Y-104550000D01*
X108857187Y-104550000D01*
X108577051Y-104605723D01*
X108313167Y-104715027D01*
X108075679Y-104873711D01*
X107873711Y-105075679D01*
X107715027Y-105313167D01*
X107605723Y-105577051D01*
X107550000Y-105857187D01*
X105475000Y-105857187D01*
X105475000Y-103518794D01*
X108122628Y-103518794D01*
X108226509Y-103734750D01*
X108482259Y-103861925D01*
X108757906Y-103936762D01*
X109042856Y-103956386D01*
X109326159Y-103920042D01*
X109596928Y-103829125D01*
X109773491Y-103734750D01*
X109877372Y-103518794D01*
X155122628Y-103518794D01*
X155226509Y-103734750D01*
X155482259Y-103861925D01*
X155757906Y-103936762D01*
X156042856Y-103956386D01*
X156326159Y-103920042D01*
X156596928Y-103829125D01*
X156773491Y-103734750D01*
X156877372Y-103518794D01*
X156000000Y-102641421D01*
X155122628Y-103518794D01*
X109877372Y-103518794D01*
X109000000Y-102641421D01*
X108122628Y-103518794D01*
X105475000Y-103518794D01*
X105475000Y-102542856D01*
X107543614Y-102542856D01*
X107579958Y-102826159D01*
X107670875Y-103096928D01*
X107765250Y-103273491D01*
X107981206Y-103377372D01*
X108858579Y-102500000D01*
X109141421Y-102500000D01*
X110018794Y-103377372D01*
X110234750Y-103273491D01*
X110361925Y-103017741D01*
X110436762Y-102742094D01*
X110450483Y-102542856D01*
X154543614Y-102542856D01*
X154579958Y-102826159D01*
X154670875Y-103096928D01*
X154765250Y-103273491D01*
X154981206Y-103377372D01*
X155858579Y-102500000D01*
X156141421Y-102500000D01*
X157018794Y-103377372D01*
X157234750Y-103273491D01*
X157361925Y-103017741D01*
X157436762Y-102742094D01*
X157456386Y-102457144D01*
X157420042Y-102173841D01*
X157329125Y-101903072D01*
X157234750Y-101726509D01*
X157018794Y-101622628D01*
X156141421Y-102500000D01*
X155858579Y-102500000D01*
X154981206Y-101622628D01*
X154765250Y-101726509D01*
X154638075Y-101982259D01*
X154563238Y-102257906D01*
X154543614Y-102542856D01*
X110450483Y-102542856D01*
X110456386Y-102457144D01*
X110420042Y-102173841D01*
X110329125Y-101903072D01*
X110234750Y-101726509D01*
X110018794Y-101622628D01*
X109141421Y-102500000D01*
X108858579Y-102500000D01*
X107981206Y-101622628D01*
X107765250Y-101726509D01*
X107638075Y-101982259D01*
X107563238Y-102257906D01*
X107543614Y-102542856D01*
X105475000Y-102542856D01*
X105475000Y-101481206D01*
X108122628Y-101481206D01*
X109000000Y-102358579D01*
X109877372Y-101481206D01*
X155122628Y-101481206D01*
X156000000Y-102358579D01*
X156877372Y-101481206D01*
X156773491Y-101265250D01*
X156517741Y-101138075D01*
X156242094Y-101063238D01*
X155957144Y-101043614D01*
X155673841Y-101079958D01*
X155403072Y-101170875D01*
X155226509Y-101265250D01*
X155122628Y-101481206D01*
X109877372Y-101481206D01*
X109773491Y-101265250D01*
X109517741Y-101138075D01*
X109242094Y-101063238D01*
X108957144Y-101043614D01*
X108673841Y-101079958D01*
X108403072Y-101170875D01*
X108226509Y-101265250D01*
X108122628Y-101481206D01*
X105475000Y-101481206D01*
X105475000Y-98857187D01*
X107550000Y-98857187D01*
X107550000Y-99142813D01*
X107605723Y-99422949D01*
X107715027Y-99686833D01*
X107873711Y-99924321D01*
X108075679Y-100126289D01*
X108313167Y-100284973D01*
X108577051Y-100394277D01*
X108857187Y-100450000D01*
X109142813Y-100450000D01*
X109422949Y-100394277D01*
X109686833Y-100284973D01*
X109924321Y-100126289D01*
X110126289Y-99924321D01*
X110284973Y-99686833D01*
X110394277Y-99422949D01*
X110450000Y-99142813D01*
X110450000Y-98857187D01*
X154550000Y-98857187D01*
X154550000Y-99142813D01*
X154605723Y-99422949D01*
X154715027Y-99686833D01*
X154873711Y-99924321D01*
X155075679Y-100126289D01*
X155313167Y-100284973D01*
X155577051Y-100394277D01*
X155857187Y-100450000D01*
X156142813Y-100450000D01*
X156422949Y-100394277D01*
X156686833Y-100284973D01*
X156924321Y-100126289D01*
X157126289Y-99924321D01*
X157284973Y-99686833D01*
X157394277Y-99422949D01*
X157450000Y-99142813D01*
X157450000Y-98857187D01*
X157394277Y-98577051D01*
X157284973Y-98313167D01*
X157126289Y-98075679D01*
X156924321Y-97873711D01*
X156686833Y-97715027D01*
X156422949Y-97605723D01*
X156142813Y-97550000D01*
X155857187Y-97550000D01*
X155577051Y-97605723D01*
X155313167Y-97715027D01*
X155075679Y-97873711D01*
X154873711Y-98075679D01*
X154715027Y-98313167D01*
X154605723Y-98577051D01*
X154550000Y-98857187D01*
X110450000Y-98857187D01*
X110394277Y-98577051D01*
X110284973Y-98313167D01*
X110126289Y-98075679D01*
X109924321Y-97873711D01*
X109686833Y-97715027D01*
X109422949Y-97605723D01*
X109142813Y-97550000D01*
X108857187Y-97550000D01*
X108577051Y-97605723D01*
X108313167Y-97715027D01*
X108075679Y-97873711D01*
X107873711Y-98075679D01*
X107715027Y-98313167D01*
X107605723Y-98577051D01*
X107550000Y-98857187D01*
X105475000Y-98857187D01*
X105475000Y-83042594D01*
X105664860Y-83326740D01*
X106173260Y-83835140D01*
X106771077Y-84234588D01*
X107435334Y-84509733D01*
X108140506Y-84650000D01*
X108859494Y-84650000D01*
X109564666Y-84509733D01*
X110228923Y-84234588D01*
X110826740Y-83835140D01*
X111335140Y-83326740D01*
X111734588Y-82728923D01*
X112009733Y-82064666D01*
X112150000Y-81359494D01*
X112150000Y-80640506D01*
X112009733Y-79935334D01*
X111734588Y-79271077D01*
X111335140Y-78673260D01*
X110826740Y-78164860D01*
X110542594Y-77975000D01*
X154457406Y-77975000D01*
X154173260Y-78164860D01*
%TD*%
M02*
