M48
; DRILL file {KiCad (5.1.6-0)} date Thursday, January 11, 2024 at 08:35:39 PM
; FORMAT={-:-/ absolute / inch / decimal}
; #@! TF.CreationDate,2024-01-11T20:35:39-08:00
; #@! TF.GenerationSoftware,Kicad,Pcbnew,(5.1.6-0)
; #@! TF.FileFunction,Plated,1,2,PTH
FMAT,2
INCH
T1C0.0118
T2C0.0157
T3C0.0197
T4C0.0394
T5C0.1260
%
G90
G05
T1
X4.189Y-3.3481
X4.189Y-4.0174
X4.189Y-4.2536
X4.189Y-4.4899
X4.2284Y-4.6867
X4.3071Y-4.3718
X4.3465Y-4.0962
X4.3465Y-4.5686
X4.4252Y-3.3088
X4.4252Y-4.7261
X4.4646Y-4.4505
X4.4646Y-4.9229
X4.5434Y-4.608
X4.5472Y-3.9862
X4.5669Y-4.2028
X4.5827Y-4.3324
X4.5827Y-4.8048
X4.6221Y-3.8599
X4.6221Y-4.0962
X4.6615Y-4.9623
X4.7008Y-4.6867
X4.7796Y-3.9387
X4.7796Y-4.1749
X4.7796Y-4.4111
X4.7796Y-4.8442
X4.8583Y-4.5686
X4.8977Y-4.0568
X4.8977Y-4.9623
X4.9371Y-4.7261
X5.0552Y-3.9781
X5.0552Y-4.2143
X5.0552Y-4.8442
X5.1339Y-4.6867
X5.1733Y-4.9623
X5.2914Y-3.9781
X5.3308Y-3.4269
X5.3308Y-4.1749
X5.3642Y-3.1102
X5.4489Y-4.0568
X5.4528Y-3.2579
X5.5276Y-4.1929
X5.561Y-3.9469
X5.567Y-3.1119
X5.567Y-3.4269
X5.6457Y-3.2694
X5.6851Y-3.6237
X5.7245Y-3.8599
X5.7245Y-4.0962
X5.7638Y-3.4662
X5.8366Y-3.6811
X5.8426Y-3.1119
X5.8426Y-3.9781
X5.8858Y-3.2874
X6.0Y-3.4269
X6.0Y-4.8048
X6.0039Y-3.7598
X6.1182Y-3.545
X6.1969Y-3.3875
X6.1969Y-3.7025
T2
X4.6949Y-3.9862
X4.6949Y-4.0748
X4.9705Y-4.1535
X5.2067Y-3.9961
X5.4331Y-4.1831
X5.5413Y-3.1988
X5.6299Y-4.065
X5.7087Y-3.5335
X5.7677Y-3.1004
X5.8858Y-3.7697
T3
X6.0669Y-4.8819
X6.0946Y-4.8151
X6.0946Y-4.9487
X6.1614Y-4.7874
X6.1614Y-4.9764
X6.2282Y-4.8151
X6.2282Y-4.9487
X6.2559Y-4.8819
X4.1772Y-4.8819
X4.2048Y-4.8151
X4.2048Y-4.9487
X4.2717Y-4.7874
X4.2717Y-4.9764
X4.3385Y-4.8151
X4.3385Y-4.9487
X4.3661Y-4.8819
X6.0669Y-3.189
X6.0946Y-3.1222
X6.0946Y-3.2558
X6.1614Y-3.0945
X6.1614Y-3.2835
X6.2282Y-3.1222
X6.2282Y-3.2558
X6.2559Y-3.189
X4.1772Y-3.189
X4.2048Y-3.1222
X4.2048Y-3.2558
X4.2717Y-3.0945
X4.2717Y-3.2835
X4.3385Y-3.1222
X4.3385Y-3.2558
X4.3661Y-3.189
T4
X4.2913Y-3.8976
X4.2913Y-4.0354
X4.2913Y-4.1732
X6.1417Y-3.8976
X6.1417Y-4.0354
X6.1417Y-4.1732
T5
X4.2717Y-3.189
X6.1614Y-4.8819
X4.2717Y-4.8819
X6.1614Y-3.189
T0
M30
